<svg width="35" height="35" viewBox="0 0 35 35" version="1.1" xmlns="http://www.w3.org/2000/svg" xmlns:xlink="http://www.w3.org/1999/xlink">
<g id="Canvas" fill="none">
<g id="Group 7">
<g id="if_call_326500">
<g id="Page 1">
<g id="Icons Communication">
<g id="call">
<g id="Shape">
<path fill-rule="evenodd" clip-rule="evenodd" d="M 4.2 9.1C 5.83333 12.3667 8.63333 15.05 11.9 16.8L 14.4667 14.2333C 14.8167 13.8833 15.2833 13.7667 15.6333 14C 16.9167 14.4667 18.3167 14.7 19.8333 14.7C 20.5333 14.7 21 15.1667 21 15.8667L 21 19.8333C 21 20.5333 20.5333 21 19.8333 21C 8.86667 21 0 12.1333 0 1.16667C 0 0.466667 0.466667 0 1.16667 0L 5.25 0C 5.95 0 6.41667 0.466667 6.41667 1.16667C 6.41667 2.56667 6.65 3.96667 7.11667 5.36667C 7.23333 5.71667 7.11667 6.18333 6.88333 6.53333L 4.2 9.1Z" transform="translate(6 7)" fill="url(#paint0_linear)"/>
</g>
</g>
</g>
</g>
</g>
</g>
</g>
<defs>

<linearGradient id="paint0_linear" x2="1" gradientUnits="userSpaceOnUse" gradientTransform="matrix(0 21 -21 0 21 0)">
<stop stop-color="#76DE82"/>
<stop offset="1" stop-color="#4CB058"/>
</linearGradient>

</defs>
</svg>

