<svg width="35" height="35" viewBox="0 0 35 35" version="1.1" xmlns="http://www.w3.org/2000/svg" xmlns:xlink="http://www.w3.org/1999/xlink">
<g id="Canvas" fill="none">
<g id="Group 8">
<g id="if_00-ELASTOFONT-STORE-READY_cart_2703080">
<g id="Vector">
<path d="M 23.25 -5.04315e-08L 20.4141 -5.04315e-08C 20.3873 -5.04315e-08 20.3645 0.0126201 20.3385 0.0153904C 20.2841 0.0209926 20.2332 0.0301037 20.1823 0.0472179C 20.1396 0.0614387 20.1011 0.0789838 20.0622 0.100284C 20.0175 0.124847 19.9771 0.151504 19.9381 0.184686C 19.9022 0.215097 19.8718 0.247479 19.8421 0.283985C 19.8115 0.321599 19.7854 0.359891 19.7622 0.403477C 19.7382 0.448232 19.7214 0.494157 19.7067 0.543776C 19.6987 0.570679 19.6814 0.592287 19.6763 0.620544L 19.2468 2.98815L 0.893194 4.06998C 0.822882 4.06506 0.760871 4.0754 0.682258 4.08279C 0.274545 4.12022 -0.0281872 4.48072 0.00208604 4.89245C 0.00452742 4.92348 0.00843373 4.95352 0.014293 4.98307L 1.29309 12.0179C 1.58557 13.1087 2.48645 14.21 3.84142 14.21L 17.2109 14.21L 16.9247 15.7879L 5.67491 15.7879C 4.2506 15.7879 3.09142 16.9571 3.09142 18.3937C 3.09142 19.8308 4.2506 21 5.67491 21C 7.09921 21 8.25839 19.8308 8.25839 18.3937C 8.25839 18.0022 8.16616 17.6343 8.01211 17.3009L 14.9202 17.3009C 14.7661 17.6343 14.6739 18.0022 14.6739 18.3937C 14.6739 19.8308 15.8331 21 17.2574 21C 18.6817 21 19.8408 19.8308 19.8408 18.3937C 19.8408 17.3722 19.2494 16.495 18.3987 16.068L 21.0393 1.51295L 23.25 1.51295C 23.6641 1.51295 24 1.17411 24 0.756473C 24 0.338837 23.6641 -5.04315e-08 23.25 -5.04315e-08ZM 18.0221 9.73829L 14.8439 9.78865L 15.017 7.93084L 18.3684 7.82951L 18.0221 9.73829ZM 2.14441 8.32009L 5.32035 8.22406L 5.52812 9.93615L 2.44659 9.98497L 2.14441 8.32009ZM 6.32365 8.19371L 9.81453 8.08819L 9.81453 9.86825L 6.53324 9.92027L 6.32365 8.19371ZM 9.81453 7.07864L 6.20158 7.18791L 5.97074 5.28626L 9.81453 5.05959L 9.81453 7.07864ZM 10.8145 5.00061L 14.3047 4.79475L 14.1041 6.94892L 10.8145 7.04841L 10.8145 5.00061ZM 9.81453 10.8771L 9.81453 12.697L 6.87027 12.697L 6.65543 10.9272L 9.81453 10.8771ZM 10.8145 10.8613L 13.7439 10.815L 13.5685 12.697L 10.8145 12.697L 10.8145 10.8613ZM 10.8145 9.85243L 10.8145 8.05796L 14.0098 7.96131L 13.838 9.80453L 10.8145 9.85243ZM 18.5526 6.81441L 15.1113 6.91845L 15.3147 4.73522L 18.9689 4.51969L 18.5526 6.81441ZM 4.97087 5.34524L 5.19822 7.2182L 1.9621 7.31608C 1.82575 6.56884 1.71716 5.98813 1.62464 5.54254L 4.97087 5.34524ZM 2.755 11.6845L 2.62915 10.991L 5.65037 10.9431L 5.86326 12.697L 3.84142 12.697C 3.19885 12.697 2.84094 11.9947 2.755 11.6845ZM 14.573 12.697L 14.7498 10.799L 17.8386 10.7501L 17.4854 12.697L 14.573 12.697ZM 6.7584 18.3937C 6.7584 18.9965 6.27256 19.4871 5.67491 19.4871C 5.07725 19.4871 4.59142 18.9965 4.59142 18.3937C 4.59142 17.7909 5.07725 17.3009 5.67491 17.3009C 6.27256 17.3009 6.7584 17.7909 6.7584 18.3937ZM 17.2574 19.4871C 16.6597 19.4871 16.1739 18.9965 16.1739 18.3937C 16.1739 17.7909 16.6597 17.3009 17.2574 17.3009C 17.855 17.3009 18.3409 17.7909 18.3409 18.3937C 18.3409 18.9965 17.855 19.4871 17.2574 19.4871Z" transform="translate(7 7)" fill="url(#paint0_linear)"/>
</g>
</g>
</g>
</g>
<defs>

<linearGradient id="paint0_linear" x2="1" gradientUnits="userSpaceOnUse" gradientTransform="matrix(0 21 -24 0 24 0)">
<stop stop-color="#4E90DE"/>
<stop offset="1" stop-color="#2E5A8F"/>
</linearGradient>

</defs>
</svg>

