<svg width="35" height="35" viewBox="0 0 35 35" version="1.1" xmlns="http://www.w3.org/2000/svg" xmlns:xlink="http://www.w3.org/1999/xlink">
<g id="Canvas" fill="none">
<g id="Group 4">
<g id="if_Instagram_Color_1435162" filter="url(#filter0_d)">
<g id="XMLID 138">
<path id="XMLID 142" d="M 25.3169 4.48068C 24.9853 3.62674 24.5433 2.9034 23.8199 2.18006C 23.0966 1.45672 22.3733 1.01468 21.5193 0.683152C 20.6955 0.361669 19.7411 0.140649 18.3648 0.0803703C 16.9784 0.0200921 16.5363 6.13182e-07 13 6.13182e-07C 9.46368 6.13182e-07 9.02164 0.0100458 7.63524 0.0803703C 6.24884 0.140649 5.30448 0.361669 4.48068 0.683152C 3.62674 1.01468 2.9034 1.45672 2.18006 2.18006C 1.45672 2.9034 1.01468 3.62674 0.683153 4.48068C 0.361669 5.30448 0.140649 6.25889 0.0803709 7.63524C 0.0200927 9.02164 -3.06591e-07 9.46368 -3.06591e-07 13C -3.06591e-07 16.5363 0.0100464 16.9784 0.0803709 18.3648C 0.140649 19.7512 0.361669 20.6955 0.683153 21.5193C 1.01468 22.3733 1.45672 23.0966 2.18006 23.8199C 2.9034 24.5433 3.62674 24.9853 4.48068 25.3168C 5.30448 25.6383 6.25889 25.8594 7.63524 25.9196C 9.02164 25.9799 9.46368 26 13 26C 16.5363 26 16.9784 25.99 18.3648 25.9196C 19.7512 25.8594 20.6955 25.6383 21.5193 25.3168C 22.3733 24.9853 23.0966 24.5433 23.8199 23.8199C 24.5433 23.0966 24.9853 22.3733 25.3169 21.5193C 25.6383 20.6955 25.8594 19.7411 25.9196 18.3648C 25.9799 16.9784 26 16.5363 26 13C 26 9.46368 25.99 9.02164 25.9196 7.63524C 25.8594 6.24884 25.6383 5.30448 25.3169 4.48068ZM 23.5788 18.2542C 23.5185 19.5201 23.3076 20.2133 23.1267 20.6654C 22.8957 21.2682 22.6043 21.7102 22.1522 22.1623C 21.7002 22.6144 21.2682 22.8957 20.6553 23.1368C 20.1932 23.3176 19.51 23.5286 18.2442 23.5889C 16.8679 23.6491 16.466 23.6692 12.99 23.6692C 9.51391 23.6692 9.10201 23.6592 7.7357 23.5889C 6.46986 23.5286 5.77666 23.3176 5.32457 23.1368C 4.72179 22.9057 4.27975 22.6144 3.82767 22.1623C 3.37558 21.7102 3.09428 21.2782 2.85317 20.6654C 2.67233 20.2032 2.46136 19.5201 2.40108 18.2542C 2.3408 16.8779 2.32071 16.466 2.32071 13C 2.32071 9.534 2.33076 9.11206 2.40108 7.74575C 2.46136 6.47991 2.67233 5.78671 2.85317 5.33462C 3.08424 4.73184 3.37558 4.2898 3.82767 3.83771C 4.27975 3.38563 4.71175 3.10433 5.32457 2.86322C 5.78671 2.68238 6.46986 2.47141 7.7357 2.41113C 9.11206 2.35085 9.52396 2.33076 12.99 2.33076C 16.456 2.33076 16.8779 2.3408 18.2442 2.41113C 19.51 2.47141 20.2032 2.68238 20.6553 2.86322C 21.2581 3.09428 21.7002 3.38563 22.1522 3.83771C 22.6043 4.2898 22.8856 4.72179 23.1267 5.33462C 23.3076 5.79676 23.5185 6.47991 23.5788 7.74575C 23.6391 9.1221 23.6592 9.534 23.6592 13C 23.6592 16.466 23.6391 16.8879 23.5788 18.2542Z" transform="translate(5 5)" fill="url(#paint0_radial)"/>
<path id="XMLID 145" d="M 6.68083 0C 2.99382 0 0 2.99382 0 6.68083C 0 10.3679 2.99382 13.3617 6.68083 13.3617C 10.3679 13.3617 13.3617 10.3679 13.3617 6.68083C 13.3617 2.99382 10.3679 0 6.68083 0ZM 6.68083 11.0209C 4.2898 11.0209 2.3408 9.08192 2.3408 6.68083C 2.3408 4.2898 4.27975 2.3408 6.68083 2.3408C 9.08192 2.3408 11.0209 4.27975 11.0209 6.68083C 11.0209 9.07187 9.07187 11.0209 6.68083 11.0209Z" transform="translate(11.3091 11.3193)" fill="url(#paint1_radial)"/>
<path id="XMLID 143" d="M 1.55719 3.11437C 2.4172 3.11437 3.11437 2.4172 3.11437 1.55719C 3.11437 0.697176 2.4172 0 1.55719 0C 0.697177 0 0 0.697176 0 1.55719C 0 2.4172 0.697177 3.11437 1.55719 3.11437Z" transform="translate(23.3748 9.50098)" fill="url(#paint2_radial)"/>
</g>
</g>
</g>
</g>
<defs>
<filter id="filter0_d" x="1" y="5" width="34" height="34" filterUnits="userSpaceOnUse" color-interpolation-filters="sRGB">
<feFlood flood-opacity="0" result="BackgroundImageFix"/>
<feColorMatrix in="SourceAlpha" type="matrix" values="0 0 0 0 0 0 0 0 0 0 0 0 0 0 0 0 0 0 255 0"/>
<feOffset dy="4"/>
<feGaussianBlur stdDeviation="2"/>
<feColorMatrix type="matrix" values="0 0 0 0 0.906114 0 0 0 0 0.0791366 0 0 0 0 0.525704 0 0 0 0.05 0"/>
<feBlend mode="normal" in2="BackgroundImageFix" result="effect1_dropShadow"/>
<feBlend mode="normal" in="SourceGraphic" in2="effect1_dropShadow" result="shape"/>
</filter>
<radialGradient id="paint0_radial" cx="0.5" cy="0.5" r="0.5" gradientUnits="userSpaceOnUse" gradientTransform="translate(-18.6898 -0.286281) scale(52.4639)">
<stop stop-color="#FFD776"/>
<stop offset="0.2463" stop-color="#F3A554"/>
<stop offset="0.3793" stop-color="#F15C3C"/>
<stop offset="0.5394" stop-color="#D94867"/>
<stop offset="0.6995" stop-color="#C32F87"/>
<stop offset="0.9122" stop-color="#7D63A7"/>
<stop offset="0.9852" stop-color="#5C6CB3"/>
</radialGradient>
<radialGradient id="paint1_radial" cx="0.5" cy="0.5" r="0.5" gradientUnits="userSpaceOnUse" gradientTransform="translate(-9.58712 -0.142026) scale(26.9409)">
<stop stop-color="#FFD776"/>
<stop offset="0.2463" stop-color="#F3A554"/>
<stop offset="0.3793" stop-color="#F15C3C"/>
<stop offset="0.607" stop-color="#D94867"/>
<stop offset="0.8346" stop-color="#C32F87"/>
<stop offset="0.9577" stop-color="#7D63A7"/>
<stop offset="1" stop-color="#5C6CB3"/>
</radialGradient>
<radialGradient id="paint2_radial" cx="0.5" cy="0.5" r="0.5" gradientUnits="userSpaceOnUse" gradientTransform="translate(-2.24142 -0.0404467) scale(6.29566)">
<stop stop-color="#5F6DB3"/>
<stop offset="1" stop-color="#5C6CB3"/>
</radialGradient>
</defs>
</svg>
