<svg width="35" height="35" viewBox="0 0 35 35" version="1.1" xmlns="http://www.w3.org/2000/svg" xmlns:xlink="http://www.w3.org/1999/xlink">
<g id="Canvas" fill="none">
<g id="Group 8">
<g id="Group">
<path id="Vector" d="M 13.5 27C 20.9558 27 27 20.9558 27 13.5C 27 6.04416 20.9558 0 13.5 0C 6.04416 0 0 6.04416 0 13.5C 0 20.9558 6.04416 27 13.5 27Z" transform="translate(4 4)" fill="#F99400"/>
<g id="Group_2">
<path id="Vector_2" fill-rule="evenodd" clip-rule="evenodd" d="M 2.26841 2.47305C 1.78151 2.35995 1.32761 2.19645 0.896214 1.97445C 0.741714 1.89465 0.589614 1.80915 0.442014 1.71735C 0.00671357 1.44555 -0.128587 0.884847 0.133013 0.453447C 0.402113 0.0103475 0.959813 -0.133653 1.40501 0.136347C 1.84301 0.401247 2.30711 0.593848 2.81141 0.684748C 3.80381 0.862947 4.73621 0.698847 5.60501 0.187947C 5.78231 0.0835469 5.96141 0.00164669 6.17291 0.00284669C 6.58301 0.00524669 6.94211 0.267747 7.06121 0.658047C 7.18091 1.05135 7.03181 1.47705 6.68351 1.70115C 6.14081 2.05035 5.55311 2.29635 4.92731 2.45055C 4.90031 2.45685 4.87391 2.46465 4.83611 2.47455C 4.86161 2.50215 4.88141 2.52375 4.90241 2.54475C 5.45861 3.10095 6.01511 3.65625 6.57071 4.21335C 6.89561 4.53915 6.96401 4.98615 6.74831 5.35875C 6.43781 5.89545 5.72381 5.98455 5.27651 5.53995C 4.72211 4.98855 4.17071 4.43475 3.61841 3.88245C 3.59861 3.86265 3.58001 3.84135 3.53591 3.79335C 3.51761 3.82605 3.50771 3.85785 3.48731 3.87825C 2.93381 4.43385 2.38031 4.98855 1.82441 5.54175C 1.44311 5.92215 0.860813 5.91975 0.491813 5.54055C 0.154313 5.19375 0.144714 4.64295 0.471114 4.27905C 0.515214 4.22925 0.563213 4.18245 0.610013 4.13535C 1.14101 3.60405 1.67171 3.07365 2.20271 2.54205C 2.22101 2.52345 2.23991 2.50275 2.26841 2.47305Z" transform="translate(13.9487 17.8037)" fill="white"/>
<path id="Vector_3" fill-rule="evenodd" clip-rule="evenodd" d="M 3.16471 -1.69373e-07C 4.90621 -1.69373e-07 6.327 1.4214 6.3267 3.1629C 6.3264 4.9065 4.9191 6.3258 3.1659 6.3264C 1.4028 6.3282 0.00270516 4.9068 5.15983e-06 3.1689C -0.00299484 1.425 1.40791 0.00479983 3.16471 -1.69373e-07ZM 4.4718 3.1659C 4.4724 2.4453 3.8895 1.8576 3.1725 1.8558C 2.4459 1.854 1.854 2.4366 1.8528 3.1542C 1.8516 3.873 2.4345 4.4715 3.13801 4.4721C 3.8835 4.4727 4.4712 3.8973 4.4718 3.1659Z" transform="translate(14.3367 11.3701)" fill="white"/>
</g>
</g>
</g>
</g>
</svg>
