<svg width="35" height="35" viewBox="0 0 35 35" version="1.1" xmlns="http://www.w3.org/2000/svg" xmlns:xlink="http://www.w3.org/1999/xlink">
<g id="Canvas" fill="none">
<g id="Group 7">
<g id="if_skype_834715" filter="url(#filter0_d)">
<g id="layer1">
<path id="rect2990-1" d="M 27 13.5C 27 6.04416 20.9558 0 13.5 0C 6.04416 0 0 6.04416 0 13.5C 0 20.9558 6.04416 27 13.5 27C 20.9558 27 27 20.9558 27 13.5Z" transform="translate(4 4)" fill="#01AEF2"/>
<path id="rect2989-7" d="M 4.78042 1.41328e-07C 2.14257 1.41328e-07 0 2.10979 0 4.71079C 0 5.58379 0.237892 6.39781 0.656526 7.09531C 0.548492 7.62181 0.488842 8.17153 0.488842 8.72953C 0.488842 13.2205 4.18141 16.8565 8.73237 16.8565C 9.25003 16.8565 9.75395 16.8115 10.2401 16.7215C 10.9153 17.077 11.6848 17.28 12.4996 17.28C 15.1419 17.28 17.28 15.1702 17.28 12.5692C 17.2845 11.8177 17.1037 11.106 16.7841 10.476C 16.9101 9.9135 16.9745 9.33229 16.9745 8.73379C 16.9745 4.24729 13.2821 0.608212 8.72668 0.608212C 8.24503 0.608212 7.77757 0.648236 7.31842 0.724735C 6.58469 0.265735 5.71672 1.41328e-07 4.78042 1.41328e-07ZM 8.65989 3.01121C 9.39813 3.01121 10.0424 3.09647 10.5826 3.25847C 11.1273 3.42497 11.5808 3.65021 11.9454 3.92921C 12.3055 4.20821 12.5758 4.50403 12.7468 4.81453C 12.9179 5.12953 13.0041 5.43955 13.0041 5.74105C 13.0041 6.02905 12.8909 6.29597 12.6658 6.52547C 12.4408 6.75497 12.1579 6.87647 11.8203 6.87647C 11.5142 6.87647 11.2749 6.80447 11.1084 6.66047C 10.9553 6.52547 10.7937 6.31681 10.6181 6.01531C 10.411 5.63281 10.1642 5.32753 9.88058 5.11153C 9.60149 4.90453 9.14136 4.79605 8.50216 4.79605C 7.91247 4.79605 7.43103 4.91471 7.07542 5.14421C 6.73331 5.36471 6.56668 5.62003 6.56668 5.92153C 6.56668 6.10603 6.62183 6.25974 6.73437 6.39474C 6.85141 6.53424 7.01306 6.66071 7.22463 6.76421C 7.4407 6.87221 7.66485 6.95724 7.88542 7.01574C 8.115 7.07874 8.49844 7.173 9.02511 7.29C 9.69582 7.4295 10.3081 7.59245 10.8483 7.75895C 11.3975 7.93445 11.8695 8.14524 12.2566 8.39274C 12.6527 8.64474 12.9637 8.97347 13.1888 9.36047C 13.4094 9.74747 13.5213 10.2335 13.5213 10.7915C 13.5393 11.471 13.3457 12.0837 12.9586 12.6147C 12.576 13.1457 12.0138 13.5668 11.2846 13.8638C 10.5598 14.1608 9.69569 14.31 8.70537 14.31C 7.52149 14.31 6.53117 14.1039 5.75242 13.6989C 5.19874 13.4019 4.74359 13.0045 4.39247 12.5095C 4.04136 12.0145 3.86526 11.52 3.86526 11.043C 3.86526 10.746 3.98409 10.4902 4.20916 10.2742C 4.43423 10.0672 4.72679 9.95874 5.06889 9.95874C 5.35249 9.95874 5.59415 10.0395 5.79221 10.206C 5.98127 10.3635 6.14341 10.5977 6.27395 10.9037C 6.42249 11.2322 6.58179 11.5103 6.75284 11.7308C 6.91489 11.9423 7.14354 12.1185 7.44063 12.258C 7.74223 12.3975 8.142 12.4697 8.63716 12.4697C 9.31688 12.4697 9.87547 12.3255 10.2941 12.042C 10.7082 11.7675 10.9066 11.4338 10.9066 11.0288C 10.9066 10.7093 10.8029 10.458 10.5868 10.26C 10.3618 10.053 10.069 9.89195 9.70437 9.78395C 9.33075 9.66695 8.82257 9.54355 8.19237 9.41305C 7.33709 9.23305 6.61305 9.018 6.03237 8.775C 5.44268 8.5275 4.96527 8.18219 4.61416 7.75469C 4.25854 7.31819 4.08268 6.76824 4.08268 6.12474C 4.08268 5.50823 4.27204 4.959 4.64116 4.482C 5.01028 4.0095 5.54496 3.64121 6.24268 3.38921C 6.9269 3.13721 7.7416 3.01121 8.65989 3.01121Z" transform="translate(8.85999 8.86035)" fill="white"/>
</g>
</g>
</g>
</g>
<defs>
<filter id="filter0_d" x="0" y="4" width="35" height="35" filterUnits="userSpaceOnUse" color-interpolation-filters="sRGB">
<feFlood flood-opacity="0" result="BackgroundImageFix"/>
<feColorMatrix in="SourceAlpha" type="matrix" values="0 0 0 0 0 0 0 0 0 0 0 0 0 0 0 0 0 0 255 0"/>
<feOffset dy="4"/>
<feGaussianBlur stdDeviation="2"/>
<feColorMatrix type="matrix" values="0 0 0 0 0 0 0 0 0 0 0 0 0 0 0 0 0 0 0.1 0"/>
<feBlend mode="normal" in2="BackgroundImageFix" result="effect1_dropShadow"/>
<feBlend mode="normal" in="SourceGraphic" in2="effect1_dropShadow" result="shape"/>
</filter>
</defs>
</svg>
