<svg width="35" height="35" viewBox="0 0 35 35" version="1.1" xmlns="http://www.w3.org/2000/svg" xmlns:xlink="http://www.w3.org/1999/xlink">
<g id="Canvas" fill="none">
<g id="Group 4">
<g id="Group 4_2" filter="url(#filter0_d)">
<g id="Vector">
<path d="M 3 22.1429L 5.25 24.3571L 6 25.0952L 6 27.3095L 6.75 29.5238L 9 28.7857L 10.5 26.5714L 12.75 25.0952L 17.25 24.3571L 21 23.619L 23.25 22.881L 26.25 19.9286L 27 18.4524L 27 14.7619L 27 11.0714L 26.25 5.90476L 24.75 3.69048L 21.75 1.47619L 17.25 0L 6.75 1.47619L 3 2.95238L 2.25 3.69048L 0.75 6.64286L 0 10.3333L 0 11.8095L 0.75 15.5L 0.75 17.7143L 0.75 19.1905L 2.25 21.4048L 3 22.1429Z" transform="translate(3.5 2.73828)" fill="#7D3DAF"/>
</g>
<g id="Vector_2">
<path d="M 29.4046 7.44242C 28.8789 5.83233 27.9683 4.37581 26.7524 3.20001C 25.5366 2.0242 24.0523 1.16485 22.4292 0.69697C 17.6034 -0.232324 12.6455 -0.232324 7.8197 0.69697C 6.16883 1.136 4.65194 1.97819 3.40439 3.14841C 2.15684 4.31863 1.21743 5.78049 0.669962 7.40354C -0.223321 11.4694 -0.223321 15.6817 0.669962 19.7475C 1.17674 21.2935 2.03615 22.6995 3.17982 23.8537C 4.32348 25.0078 5.71984 25.8783 7.2578 26.3958L 7.2578 29.681C 7.25837 29.9444 7.33735 30.2016 7.48459 30.4196C 7.63184 30.6376 7.84064 30.8066 8.08423 30.9047C 8.32782 31.0029 8.59508 31.0258 8.85175 30.9706C 9.10841 30.9153 9.34278 30.7844 9.52479 30.5947L 12.8381 27.1539C 13.555 27.1539 14.2719 27.1539 14.9888 27.1539C 17.4403 27.1519 19.8861 26.9176 22.2936 26.4541C 23.9167 25.9862 25.4009 25.1269 26.6168 23.951C 27.8327 22.7752 28.7432 21.3187 29.2689 19.7086C 30.1956 15.6776 30.2419 11.4931 29.4046 7.44242ZM 26.7888 19.106C 26.3837 20.221 25.7295 21.2282 24.8764 22.0503C 24.0234 22.8725 22.994 23.4878 21.8673 23.8492C 19.3136 24.3355 16.7151 24.544 14.1169 24.4713C 14.0954 24.4622 14.0724 24.4575 14.0491 24.4575C 14.0258 24.4575 14.0027 24.4622 13.9813 24.4713L 11.5399 27.115L 8.96289 29.7588C 8.91964 29.7999 8.86547 29.8277 8.80688 29.8388C 8.7483 29.8498 8.68777 29.8437 8.63256 29.8212C 8.57735 29.7986 8.5298 29.7605 8.4956 29.7115C 8.4614 29.6625 8.442 29.6047 8.43974 29.5449L 8.43974 24.1214C 8.43635 24.0793 8.41939 24.0394 8.39142 24.0079C 8.36346 23.9763 8.326 23.9547 8.28473 23.9464C 7.158 23.585 6.12868 22.9697 5.27561 22.1475C 4.42255 21.3254 3.76838 20.3182 3.36323 19.2032C 2.55865 15.5276 2.55865 11.7206 3.36323 8.04504C 3.76838 6.93005 4.42255 5.92289 5.27561 5.10074C 6.12868 4.27858 7.158 3.66323 8.28473 3.30184C 12.7652 2.44251 17.3674 2.44251 21.8479 3.30184C 22.9747 3.66323 24.004 4.27858 24.857 5.10074C 25.7101 5.92289 26.3643 6.93005 26.7694 8.04504C 27.581 11.7192 27.5876 15.5263 26.7888 19.2032L 26.7888 19.106Z" transform="translate(2 2)" fill="white"/>
</g>
<g id="Vector_3">
<path d="M 14.3829 11.5555C 13.9798 11.2163 13.5594 10.8984 13.1234 10.6029C 12.6778 10.2919 12.2515 9.98088 11.7865 9.68929C 11.5822 9.53627 11.3342 9.45359 11.0793 9.45359C 10.8244 9.45359 10.5763 9.53627 10.372 9.68929C 9.94577 10.0392 9.73263 10.7196 9.13198 10.7973C 8.77946 10.8067 8.4311 10.7193 8.12442 10.5446C 7.20353 10.1372 6.38081 9.53571 5.71215 8.78101C 5.0435 8.02631 4.54456 7.13608 4.24923 6.17077C 4.18947 6.04994 4.15838 5.91688 4.15838 5.78199C 4.15838 5.6471 4.18947 5.51404 4.24923 5.3932C 4.33311 5.26618 4.43794 5.15442 4.55924 5.06273L 4.96614 4.7517C 5.23254 4.56639 5.41745 4.28516 5.48242 3.96653C 5.54738 3.6479 5.48738 3.31641 5.31491 3.04104C 4.76282 2.09434 4.11341 1.20825 3.37731 0.397293C 3.2414 0.2113 3.04399 0.0798487 2.82037 0.026432C 2.59675 -0.0269846 2.36149 0.00111247 2.15662 0.105702C 1.57794 0.376941 1.06292 0.767783 0.645288 1.25262C 0.379319 1.49148 0.184289 1.79942 0.081716 2.14244C -0.0208568 2.48547 -0.0269839 2.85026 0.06401 3.19656C 0.374026 3.95469 0.684042 4.71282 1.03281 5.45152C 1.77116 7.0105 2.71623 8.46216 3.84233 9.76705C 5.88095 11.9554 8.39339 13.6447 11.1858 14.7046C 11.4571 14.8213 11.7477 14.8796 12.0384 14.9768C 12.3041 14.9172 12.5636 14.8326 12.8134 14.7241C 13.6087 14.2898 14.2413 13.6074 14.6154 12.7801C 14.7222 12.5801 14.7573 12.3494 14.715 12.1266C 14.6727 11.9037 14.5555 11.7021 14.3829 11.5555Z" transform="translate(9.25208 8.69922)" fill="white"/>
</g>
<g id="Vector_4">
<path d="M 0.662593 1.58915e-05L 0.449457 1.58915e-05C 0.385705 -0.000530861 0.322577 0.0126535 0.264337 0.0386767C 0.206097 0.0646999 0.154101 0.102956 0.111859 0.150864C 0.0696166 0.198772 0.0381123 0.255218 0.0194724 0.316386C 0.000832508 0.377554 -0.00450804 0.442022 0.00381014 0.505439C 0.00381014 0.835908 0.391329 0.835907 0.662593 0.874785C 0.933857 0.913664 1.49576 0.874787 1.88328 1.01086C 3.21144 1.25908 4.42931 1.91688 5.3671 2.89258C 6.30488 3.86827 6.91584 5.11323 7.1148 6.45388C 7.1148 6.9593 7.21168 7.48416 7.25043 8.00902C 7.28919 8.53388 7.40544 8.51444 7.69608 8.51444C 7.75758 8.51267 7.81797 8.49756 7.8731 8.47016C 7.92823 8.44275 7.9768 8.40369 8.01546 8.35567C 8.05412 8.30765 8.08196 8.2518 8.09707 8.19196C 8.11217 8.13213 8.11419 8.06971 8.10298 8.00902C 8.10298 7.38696 8.10298 6.7649 7.90922 6.06509C 7.59706 4.36439 6.70158 2.8269 5.37802 1.71914C 4.05445 0.61138 2.38624 0.00319305 0.662593 1.58915e-05Z" transform="translate(16.4233 7.90625)" fill="white"/>
</g>
<g id="Vector_5">
<path d="M 4.65467 5.13393C 4.6362 5.24983 4.6362 5.36794 4.65467 5.48384C 4.68096 5.56623 4.73266 5.63811 4.80231 5.68911C 4.87196 5.74011 4.95596 5.76759 5.04219 5.76759C 5.12841 5.76759 5.21242 5.74011 5.28207 5.68911C 5.35172 5.63811 5.40342 5.56623 5.42971 5.48384C 5.43599 5.39972 5.43599 5.31525 5.42971 5.23113C 5.42971 4.97842 5.42971 4.78403 5.42971 4.60907C 5.42971 4.43412 5.42971 4.45356 5.42971 4.3758C 5.33784 3.58191 5.05069 2.82339 4.59409 2.16849C 4.13749 1.51358 3.52576 0.982836 2.81395 0.624008C 2.07424 0.244803 1.26082 0.0324901 0.4307 0.00194979C 0.376651 -0.00350086 0.322063 0.00251056 0.270478 0.0195932C 0.218893 0.0366758 0.171464 0.0644478 0.131269 0.101108C 0.091074 0.137769 0.0590103 0.182499 0.0371587 0.232394C 0.0153071 0.28229 0.00415555 0.336237 0.00442792 0.390736C -0.00379797 0.444857 -0.000537952 0.500112 0.0139942 0.552882C 0.0285263 0.605652 0.0540041 0.654747 0.0887578 0.696954C 0.123511 0.739162 0.166758 0.773531 0.215667 0.797809C 0.264576 0.822088 0.318045 0.835728 0.372573 0.83784L 1.07011 0.954477C 1.54697 1.02913 2.01042 1.1732 2.4458 1.38214C 3.16544 1.73933 3.76497 2.30026 4.17027 2.99561C 4.5085 3.65614 4.67511 4.39162 4.65467 5.13393Z" transform="translate(17.1006 9.88965)" fill="white"/>
</g>
<g id="Vector_6">
<path d="M 2.97316 2.87802C 2.991 2.76207 2.991 2.64406 2.97316 2.52811C 2.97572 2.19717 2.91295 1.86899 2.78849 1.5625C 2.66402 1.25601 2.48032 0.977263 2.24796 0.742341C 2.0156 0.507419 1.7392 0.320967 1.43467 0.19373C 1.13015 0.0664942 0.803534 0.000993059 0.473658 0.001003C 0.367236 -0.00615565 0.261785 0.0252164 0.176457 0.0894219C 0.0911281 0.153627 0.0315821 0.246407 0.00863397 0.35091C -0.0025696 0.404602 -0.00287301 0.460008 0.00774331 0.513819C 0.0183596 0.567631 0.0396766 0.618746 0.070422 0.664108C 0.101167 0.709469 0.140712 0.748149 0.18669 0.777836C 0.232668 0.807523 0.284138 0.827608 0.338026 0.836893C 0.551162 0.836893 0.783673 0.836893 1.01618 0.93409C 1.18982 0.983333 1.35368 1.06225 1.50058 1.16736C 1.80715 1.40328 2.02006 1.74092 2.10124 2.11989C 2.11368 2.31408 2.11368 2.50888 2.10124 2.70307C 2.10119 2.76346 2.11332 2.82323 2.13692 2.87878C 2.16052 2.93433 2.19509 2.98451 2.23854 3.0263C 2.282 3.06808 2.33344 3.1006 2.38977 3.12189C 2.44609 3.14318 2.50613 3.1528 2.56627 3.15017C 2.65554 3.16265 2.74627 3.14183 2.82126 3.09167C 2.89626 3.04151 2.95031 2.96549 2.97316 2.87802Z" transform="translate(17.6971 11.8535)" fill="white"/>
</g>
</g>
</g>
</g>
<defs>
<filter id="filter0_d" x="-2" y="2" width="38" height="39" filterUnits="userSpaceOnUse" color-interpolation-filters="sRGB">
<feFlood flood-opacity="0" result="BackgroundImageFix"/>
<feColorMatrix in="SourceAlpha" type="matrix" values="0 0 0 0 0 0 0 0 0 0 0 0 0 0 0 0 0 0 255 0"/>
<feOffset dy="4"/>
<feGaussianBlur stdDeviation="2"/>
<feColorMatrix type="matrix" values="0 0 0 0 0 0 0 0 0 0 0 0 0 0 0 0 0 0 0.1 0"/>
<feBlend mode="normal" in2="BackgroundImageFix" result="effect1_dropShadow"/>
<feBlend mode="normal" in="SourceGraphic" in2="effect1_dropShadow" result="shape"/>
</filter>

</defs>
</svg>

