<svg width="35" height="35" viewBox="0 0 35 35" version="1.1" xmlns="http://www.w3.org/2000/svg" xmlns:xlink="http://www.w3.org/1999/xlink">
<g id="Canvas" fill="none">
<g id="Group">
<g id="Group_2">
<g id="XMLID 11">
<path d="M 13.5 27C 20.9558 27 27 20.9558 27 13.5C 27 6.04416 20.9558 0 13.5 0C 6.04416 0 0 6.04416 0 13.5C 0 20.9558 6.04416 27 13.5 27Z" transform="translate(4 4)" fill="#4D76A1"/>
</g>
</g>
<g id="Vector">
<path fill-rule="evenodd" clip-rule="evenodd" d="M 8.67291 10.0704L 9.73249 10.0704C 9.73249 10.0704 10.0526 10.0352 10.216 9.85909C 10.3664 9.69738 10.3616 9.39368 10.3616 9.39368C 10.3616 9.39368 10.3409 7.97191 11.0007 7.76255C 11.6512 7.55631 12.4865 9.13666 13.3718 9.7443C 14.0413 10.2042 14.5501 10.1034 14.5501 10.1034L 16.9173 10.0704C 16.9173 10.0704 18.1557 9.9941 17.5685 9.02043C 17.5204 8.94077 17.2266 8.30016 15.8084 6.9838C 14.3241 5.60608 14.5229 5.82892 16.3109 3.44576C 17.3999 1.9944 17.8352 1.10833 17.6992 0.728821C 17.5695 0.367365 16.7686 0.462903 16.7686 0.462903L 14.1032 0.479508C 14.1032 0.479508 13.9056 0.452555 13.7591 0.540152C 13.6159 0.626064 13.5237 0.826285 13.5237 0.826285C 13.5237 0.826285 13.1018 1.9494 12.5392 2.90454C 11.3523 4.91999 10.8777 5.02635 10.6838 4.90122C 10.2326 4.60955 10.3452 3.72949 10.3452 3.10428C 10.3452 1.15116 10.6414 0.336803 9.76835 0.125993C 9.47861 0.0559639 9.26539 0.00975906 8.52443 0.0022989C 7.57338 -0.00756776 6.7684 0.00518639 6.31261 0.22851C 6.00939 0.376991 5.77548 0.707885 5.91794 0.726896C 6.0941 0.75048 6.4931 0.834467 6.70463 1.12253C 6.97777 1.49409 6.96814 2.32867 6.96814 2.32867C 6.96814 2.32867 7.12505 4.62784 6.60163 4.91349C 6.24234 5.10938 5.74949 4.70942 4.69135 2.88096C 4.14916 1.94435 3.73982 0.909069 3.73982 0.909069C 3.73982 0.909069 3.66089 0.715586 3.5201 0.612106C 3.34924 0.486727 3.11052 0.44678 3.11052 0.44678L 0.577673 0.463384C 0.577673 0.463384 0.197446 0.473973 0.0578687 0.6393C -0.0663068 0.786337 0.048002 1.09052 0.048002 1.09052C 0.048002 1.09052 2.03096 5.72977 4.27623 8.06769C 6.33499 10.2112 8.67291 10.0704 8.67291 10.0704Z" transform="translate(8.31714 13.3506)" fill="white"/>
</g>
</g>
</g>
</svg>

