<svg width="35" height="35" viewBox="0 0 35 35" version="1.1" xmlns="http://www.w3.org/2000/svg" xmlns:xlink="http://www.w3.org/1999/xlink">
<g id="Canvas" fill="none">
<g id="Group 6">
<g id="if_whatsapp_287520" filter="url(#filter0_d)">
<g id="flat">
<g id="whatsapp">
<g id="Vector">
<path fill-rule="evenodd" clip-rule="evenodd" d="M 12.6055 25.2109C 19.5673 25.2109 25.2109 19.5673 25.2109 12.6055C 25.2109 5.64365 19.5673 0 12.6055 0C 5.64365 0 0 5.64365 0 12.6055C 0 16.0879 0.96965 21.3323 0.969743 24.2413C 3.8786 24.2413 9.12609 25.2109 12.6055 25.2109Z" transform="translate(5.09607 3.49219)" fill="url(#paint0_linear)"/>
</g>
<g id="Vector_2">
<path fill-rule="evenodd" clip-rule="evenodd" d="M 14.7636 28.2531C 12.2673 28.2531 9.92219 27.6151 7.88188 26.4954L -3.60377e-07 29L 2.5694 21.4207C 1.27342 19.2918 0.526834 16.7952 0.526834 14.1265C 0.526834 6.32458 6.90071 3.60377e-07 14.7639 3.60377e-07C 22.6261 3.60377e-07 29 6.32458 29 14.1265C 29 21.9285 22.6264 28.2531 14.7636 28.2531ZM 14.7636 2.24976C 8.16318 2.24976 2.79431 7.5777 2.79431 14.1265C 2.79431 16.7253 3.64143 19.1319 5.07403 21.0901L 3.57892 25.5007L 8.17832 24.0387C 10.0685 25.2796 12.3324 26.0033 14.7636 26.0033C 21.363 26.0033 26.7328 20.6757 26.7328 14.1269C 26.7328 7.57802 21.363 2.24976 14.7636 2.24976ZM 21.9524 17.38C 21.8647 17.236 21.6321 17.149 21.2837 16.976C 20.9345 16.8029 19.2183 15.9648 18.899 15.8498C 18.5787 15.7344 18.3457 15.6761 18.1134 16.0228C 17.8811 16.3695 17.2121 17.149 17.0082 17.38C 16.8045 17.6114 16.6012 17.6404 16.2522 17.467C 15.9036 17.294 14.779 16.9283 13.4457 15.7486C 12.4085 14.8309 11.7079 13.698 11.5046 13.351C 11.301 13.0046 11.483 12.8174 11.6577 12.645C 11.8146 12.4897 12.0066 12.2406 12.1813 12.0385C 12.3559 11.8362 12.4139 11.6922 12.5299 11.4608C 12.6466 11.2298 12.5883 11.0277 12.5009 10.8541C 12.4136 10.681 11.7154 8.97711 11.4247 8.28369C 11.1341 7.59091 10.8437 7.70627 10.6398 7.70627C 10.4361 7.70627 10.2035 7.67727 9.97084 7.67727C 9.7382 7.67727 9.35991 7.76394 9.03994 8.11033C 8.7203 8.45704 7.81904 9.29482 7.81904 10.9984C 7.81904 12.7023 9.06894 14.3486 9.24391 14.5793C 9.41823 14.81 11.6574 18.4202 15.2047 19.8067C 18.7533 21.1929 18.7533 20.7305 19.3933 20.6728C 20.0322 20.6151 21.4571 19.8354 21.7487 19.0269C 22.039 18.2178 22.039 17.5244 21.9524 17.38Z" transform="translate(3 2)" fill="white"/>
</g>
</g>
</g>
</g>
</g>
</g>
<defs>
<filter id="filter0_d" x="-1" y="2" width="37" height="37" filterUnits="userSpaceOnUse" color-interpolation-filters="sRGB">
<feFlood flood-opacity="0" result="BackgroundImageFix"/>
<feColorMatrix in="SourceAlpha" type="matrix" values="0 0 0 0 0 0 0 0 0 0 0 0 0 0 0 0 0 0 255 0"/>
<feOffset dy="4"/>
<feGaussianBlur stdDeviation="2"/>
<feColorMatrix type="matrix" values="0 0 0 0 0 0 0 0 0 0 0 0 0 0 0 0 0 0 0.1 0"/>
<feBlend mode="normal" in2="BackgroundImageFix" result="effect1_dropShadow"/>
<feBlend mode="normal" in="SourceGraphic" in2="effect1_dropShadow" result="shape"/>
</filter>

<linearGradient id="paint0_linear" x2="1" gradientUnits="userSpaceOnUse" gradientTransform="matrix(9.33737 23.3434 -23.3434 9.33737 18.6747 -2.80121)">
<stop stop-color="#68DE76"/>
<stop offset="1" stop-color="#57BB63"/>
</linearGradient>

</defs>
</svg>

