<?xml version="1.0" encoding="UTF-8" standalone="no"?>
<!DOCTYPE svg PUBLIC "-//W3C//DTD SVG 1.1//EN" "http://www.w3.org/Graphics/SVG/1.1/DTD/svg11.dtd">
<svg version="1.1" xmlns="http://www.w3.org/2000/svg" xmlns:xlink="http://www.w3.org/1999/xlink" preserveAspectRatio="xMidYMid meet" viewBox="0 0 13 17" width="13" height="17"><defs><path d="M8.43 0.02L8.48 0.04L8.53 0.06L8.57 0.09L8.62 0.12L8.66 0.16L8.69 0.2L8.72 0.25L8.75 0.29L8.77 0.35L8.78 0.4L8.79 0.45L8.79 0.5L8.78 0.56L8.77 0.61L8.75 0.66L8.47 1.39L8.32 2.05L8.28 2.64L8.34 3.19L8.49 3.69L8.73 4.17L9.03 4.64L9.4 5.1L9.82 5.58L10.28 6.07L10.38 6.18L10.48 6.29L10.59 6.4L10.69 6.51L10.79 6.62L10.9 6.74L11 6.85L11.1 6.97L11.21 7.09L11.31 7.21L11.83 7.89L12.27 8.64L12.61 9.42L12.86 10.25L12.99 11.09L13 11.93L12.88 12.77L12.61 13.59L12.19 14.37L11.6 15.1L11.24 15.45L10.84 15.76L10.41 16.04L9.96 16.29L9.48 16.51L8.98 16.68L8.47 16.82L7.93 16.92L7.39 16.98L6.83 17L6.14 16.97L5.46 16.88L4.8 16.73L4.16 16.52L3.55 16.25L2.97 15.94L2.44 15.57L1.94 15.16L1.5 14.71L1.11 14.21L0.8 13.71L0.54 13.2L0.33 12.65L0.17 12.09L0.07 11.52L0.01 10.93L0 10.33L0.05 9.72L0.15 9.11L0.3 8.5L0.45 8.06L0.61 7.64L0.8 7.24L1.02 6.87L1.24 6.53L1.49 6.22L1.74 5.95L2.01 5.71L2.29 5.52L2.57 5.37L2.62 5.35L2.67 5.34L2.72 5.33L2.78 5.33L2.83 5.33L2.88 5.33L2.93 5.35L2.98 5.36L3.02 5.39L3.07 5.41L3.11 5.45L3.14 5.48L3.18 5.52L3.21 5.56L3.23 5.6L3.25 5.65L3.26 5.7L3.27 5.75L3.27 5.8L3.27 5.85L3.26 6L3.27 6.17L3.3 6.34L3.35 6.52L3.41 6.7L3.48 6.87L3.57 7.04L3.66 7.21L3.77 7.36L3.88 7.49L3.92 7.53L3.97 7.58L4.02 7.62L4.07 7.66L4.13 7.7L4.19 7.73L4.25 7.76L4.31 7.78L4.37 7.8L4.44 7.8L4.46 7.8L4.48 7.8L4.49 7.8L4.51 7.8L4.53 7.79L4.55 7.79L4.57 7.78L4.58 7.78L4.6 7.77L4.62 7.77L4.79 7.68L4.93 7.57L5.03 7.45L5.09 7.29L5.13 7.11L5.13 6.9L5.11 6.67L5.07 6.4L5 6.09L4.92 5.75L4.9 5.7L4.89 5.64L4.87 5.58L4.86 5.53L4.84 5.47L4.83 5.42L4.82 5.37L4.81 5.31L4.8 5.26L4.79 5.21L4.68 4.44L4.67 3.73L4.76 3.07L4.94 2.47L5.23 1.92L5.61 1.44L6.1 1L6.68 0.62L7.37 0.3L8.15 0.02L8.21 0.01L8.26 0L8.32 0L8.37 0.01L8.43 0.02ZM6.5 1.91L6.15 2.3L5.89 2.73L5.72 3.22L5.65 3.77L5.66 4.37L5.75 5.04L5.76 5.09L5.78 5.15L5.79 5.2L5.8 5.26L5.82 5.33L5.84 5.39L5.85 5.46L5.87 5.52L5.97 5.9L6.05 6.32L6.11 6.77L6.1 7.21L6.01 7.64L5.81 8.03L5.48 8.37L4.99 8.64L4.75 8.71L4.51 8.74L4.27 8.74L4.04 8.69L3.8 8.6L3.58 8.48L3.36 8.32L3.15 8.12L3.02 7.97L2.9 7.81L2.78 7.64L2.68 7.46L2.59 7.27L2.51 7.07L2.43 6.88L2.38 6.68L2.21 6.87L2.04 7.09L1.88 7.32L1.73 7.58L1.59 7.85L1.46 8.14L1.35 8.45L1.25 8.76L1.09 9.42L1 10.08L0.98 10.73L1.04 11.37L1.16 11.99L1.35 12.58L1.61 13.15L1.93 13.68L2.35 14.21L2.84 14.67L3.4 15.08L4.01 15.42L4.67 15.69L5.36 15.89L6.09 16.02L6.83 16.06L7.43 16.03L8 15.95L8.56 15.82L9.09 15.64L9.59 15.41L10.06 15.14L10.49 14.82L10.88 14.46L11.46 13.69L11.82 12.86L11.99 11.98L11.99 11.09L11.82 10.2L11.51 9.34L11.09 8.54L10.56 7.82L10.43 7.67L10.3 7.53L10.18 7.38L10.05 7.25L9.92 7.11L9.8 6.97L9.67 6.84L9.55 6.71L9.01 6.13L8.51 5.55L8.07 4.96L7.71 4.34L7.45 3.68L7.31 2.96L7.32 2.16L7.49 1.28L6.94 1.57L6.5 1.91Z" id="a4WXgcCvKc"></path><clipPath id="clipb3q63igv3d"><use xlink:href="#a4WXgcCvKc" opacity="1"></use></clipPath></defs><g><g><path></path><g><use xlink:href="#a4WXgcCvKc" opacity="1" fill="#000000" fill-opacity="0"></use><g clip-path="url(#clipb3q63igv3d)"><use xlink:href="#a4WXgcCvKc" opacity="1" fill-opacity="0" stroke="#d50000" stroke-width="4" stroke-opacity="1"></use></g></g></g></g></svg>