<?xml version="1.0" encoding="UTF-8" standalone="no"?>
<!DOCTYPE svg PUBLIC "-//W3C//DTD SVG 1.1//EN" "http://www.w3.org/Graphics/SVG/1.1/DTD/svg11.dtd">
<svg version="1.1" xmlns="http://www.w3.org/2000/svg" xmlns:xlink="http://www.w3.org/1999/xlink" preserveAspectRatio="xMidYMid meet" viewBox="0 0 16 16" width="17" height="17"><defs><path d="M9.28 0.03L9.43 0.07L9.58 0.11L9.73 0.17L9.87 0.23L10.01 0.3L10.25 0.45L10.48 0.62L10.68 0.8L10.86 1L11.02 1.21L11.16 1.44L11.27 1.67L11.35 1.92L11.41 2.17L11.44 2.44L11.44 2.71L11.42 3.02L11.39 3.32L11.35 3.61L11.31 3.89L11.26 4.16L11.2 4.42L11.14 4.67L11.08 4.91L11.01 5.14L10.95 5.36L10.89 5.58L11.84 5.5L12.63 5.44L13.29 5.41L13.82 5.4L14.25 5.41L14.58 5.43L14.82 5.46L15 5.5L15.12 5.54L15.19 5.58L15.24 5.61L15.36 5.7L15.47 5.81L15.57 5.93L15.66 6.06L15.74 6.21L15.81 6.38L15.87 6.56L15.91 6.75L15.95 6.96L15.98 7.19L16 7.43L16 8.13L15.94 8.92L15.82 9.77L15.65 10.64L15.43 11.53L15.18 12.38L14.91 13.19L14.61 13.93L14.31 14.56L14 15.06L13.69 15.41L13.54 15.52L13.35 15.62L13.14 15.71L12.9 15.78L12.64 15.85L12.36 15.9L12.05 15.94L11.74 15.97L11.4 15.99L11.06 16L10.7 16L10.11 15.99L9.5 15.97L8.89 15.93L8.3 15.87L7.72 15.81L7.16 15.75L6.65 15.68L6.18 15.61L5.76 15.54L5.42 15.48L5.15 15.43L5.14 15.43L5.13 15.44L5.12 15.45L4.99 15.55L4.82 15.64L4.61 15.71L4.36 15.77L4.1 15.81L3.81 15.85L3.52 15.88L3.23 15.89L2.95 15.91L2.68 15.91L2.44 15.91L2.06 15.91L1.72 15.89L1.42 15.86L1.16 15.83L0.94 15.77L0.76 15.71L0.61 15.63L0.49 15.53L0.4 15.43L0.33 15.3L0.3 15.16L0.28 14.96L0.24 14.46L0.19 13.71L0.13 12.77L0.07 11.72L0.03 10.61L0 9.51L0 8.48L0.03 7.59L0.1 6.9L0.22 6.48L0.36 6.31L0.57 6.18L0.84 6.07L1.14 5.98L1.48 5.91L1.83 5.86L2.17 5.82L2.51 5.8L2.81 5.79L3.07 5.78L3.28 5.78L3.55 5.78L3.8 5.79L4.01 5.81L4.19 5.84L4.35 5.87L4.48 5.91L4.59 5.96L4.69 6.01L4.76 6.06L4.83 6.13L4.88 6.19L4.89 6.2L4.9 6.21L4.9 6.22L4.91 6.23L4.92 6.24L4.93 6.26L4.93 6.27L4.94 6.29L4.95 6.31L4.96 6.33L4.97 6.35L5.34 5.98L5.73 5.51L6.12 4.96L6.5 4.35L6.87 3.71L7.21 3.07L7.51 2.46L7.77 1.89L7.98 1.39L8.12 1L8.19 0.73L8.19 0.66L8.19 0.6L8.2 0.54L8.22 0.48L8.24 0.43L8.26 0.37L8.29 0.32L8.33 0.27L8.37 0.22L8.41 0.18L8.46 0.14L8.58 0.08L8.7 0.03L8.84 0.01L8.98 0L9.13 0.01L9.28 0.03ZM8.64 2.71L8.2 3.65L7.67 4.61L7.09 5.55L6.46 6.39L5.81 7.07L5.16 7.54L5.18 7.81L5.21 8.12L5.23 8.46L5.25 8.84L5.27 9.26L5.3 9.73L5.32 10.24L5.34 10.81L5.36 11.45L5.37 12.03L5.38 12.55L5.39 13.01L5.39 13.41L5.38 13.77L5.37 14.08L5.36 14.34L5.97 14.47L6.9 14.61L8.04 14.73L9.28 14.83L10.5 14.88L11.59 14.87L12.45 14.77L12.96 14.57L13.25 14.18L13.58 13.52L13.92 12.66L14.24 11.65L14.52 10.57L14.74 9.47L14.87 8.42L14.89 7.49L14.87 7.27L14.84 7.08L14.81 6.92L14.77 6.8L14.74 6.71L14.7 6.63L14.67 6.58L14.64 6.55L14.4 6.52L14.03 6.51L13.55 6.52L13 6.54L12.38 6.58L11.72 6.63L11.04 6.69L10.37 6.76L9.29 7.07L9.27 7.07L9.25 7.08L9.23 7.08L9.21 7.09L9.18 7.09L9.16 7.09L9.14 7.09L9.12 7.09L9.02 7.08L8.93 7.06L8.84 7.02L8.76 6.97L8.68 6.91L8.62 6.83L8.57 6.75L8.53 6.65L8.51 6.53L8.51 6.41L8.54 6.3L8.59 6.19L8.65 6.09L8.74 6.01L8.84 5.94L8.95 5.9L9.73 5.67L9.81 5.43L9.9 5.13L9.99 4.79L10.08 4.41L10.17 4L10.24 3.57L10.29 3.12L10.33 2.66L10.33 2.51L10.31 2.36L10.28 2.22L10.23 2.08L10.17 1.95L10.09 1.83L10 1.7L9.9 1.59L9.81 1.51L9.72 1.44L9.63 1.38L9.54 1.32L9.45 1.27L9.37 1.23L9.29 1.19L9.21 1.16L8.98 1.86L8.64 2.71ZM2.02 6.97L1.52 7.04L1.17 7.12L1.1 8.55L1.15 10.81L1.26 13.13L1.37 14.73L1.54 14.76L1.77 14.78L2.07 14.79L2.44 14.8L3 14.79L3.5 14.76L3.92 14.71L4.23 14.66L4.27 13.1L4.22 10.78L4.12 8.47L3.97 6.93L3.86 6.92L3.71 6.91L3.52 6.9L3.28 6.89L2.62 6.91L2.02 6.97Z" id="c2LQz6BEVS"></path></defs><g><g><g><use xlink:href="#c2LQz6BEVS" opacity="1" fill="#39b106" fill-opacity="1"></use><g><use xlink:href="#c2LQz6BEVS" opacity="1" fill-opacity="0" stroke="#000000" stroke-width="1" stroke-opacity="0"></use></g></g></g></g></svg>