<?xml version="1.0" encoding="UTF-8" standalone="no"?>
<!DOCTYPE svg PUBLIC "-//W3C//DTD SVG 1.1//EN" "http://www.w3.org/Graphics/SVG/1.1/DTD/svg11.dtd">
<svg version="1.1" xmlns="http://www.w3.org/2000/svg" xmlns:xlink="http://www.w3.org/1999/xlink" preserveAspectRatio="xMidYMid meet" viewBox="0 0 45 35" width="45" height="35"><defs><path d="M33.75 17.5L45 35L22.5 35L0 35L11.25 17.5L22.5 0L33.75 17.5Z" id="baQgpKMMq"></path><clipPath id="clipa6kpHLDL7T"><use xlink:href="#baQgpKMMq" opacity="1"></use></clipPath><path d="M24 27.5C24 28.33 23.33 29 22.5 29C21.67 29 21 28.33 21 27.5C21 26.67 21.67 26 22.5 26C23.33 26 24 26.67 24 27.5Z" id="a2fkNYTyb5"></path><path d="M22.5 12C23.33 12 24 12.67 24 13.5C24 15.6 24 20.4 24 22.5C24 23.33 23.33 24 22.5 24C22.2 24 22.8 24 22.5 24C21.67 24 21 23.33 21 22.5C21 20.4 21 15.6 21 13.5C21 12.67 21.67 12 22.5 12C22.8 12 22.2 12 22.5 12Z" id="b2HsnBZb9B"></path><clipPath id="clipa6OrRw8dbZ"><use xlink:href="#b2HsnBZb9B" opacity="1"></use></clipPath></defs><g><g><g><use xlink:href="#baQgpKMMq" opacity="1" fill="#000000" fill-opacity="0"></use><g clip-path="url(#clipa6kpHLDL7T)"><use xlink:href="#baQgpKMMq" opacity="1" fill-opacity="0" stroke="#de9616" stroke-width="6" stroke-opacity="1"></use></g></g><g><use xlink:href="#a2fkNYTyb5" opacity="1" fill="#de9616" fill-opacity="1"></use></g><g><use xlink:href="#b2HsnBZb9B" opacity="1" fill="#000000" fill-opacity="0"></use><g clip-path="url(#clipa6OrRw8dbZ)"><use xlink:href="#b2HsnBZb9B" opacity="1" fill-opacity="0" stroke="#de9616" stroke-width="22" stroke-opacity="1"></use></g></g></g></g></svg>