<?xml version="1.0" encoding="UTF-8" standalone="no"?>
<!DOCTYPE svg PUBLIC "-//W3C//DTD SVG 1.1//EN" "http://www.w3.org/Graphics/SVG/1.1/DTD/svg11.dtd">
<svg version="1.1" xmlns="http://www.w3.org/2000/svg" xmlns:xlink="http://www.w3.org/1999/xlink" preserveAspectRatio="xMidYMid meet" viewBox="0 0 12 12" width="12" height="12"><defs><path d="M2.12 5.34C4.48 2.84 5.79 1.45 6.05 1.17C6.3 0.91 6.3 0.46 6.05 0.2C5.8 -0.07 5.47 -0.07 5.21 0.2C4.71 0.73 0.69 4.98 0.19 5.51C-0.06 5.78 -0.06 6.22 0.19 6.49C0.69 7.02 4.71 11.27 5.21 11.8C5.47 12.07 5.88 12.07 6.14 11.8C6.39 11.54 6.39 11.18 6.14 10.92C5.87 10.63 4.56 9.21 2.2 6.66C7.68 6.66 10.72 6.66 11.33 6.66C11.66 6.66 12 6.4 12 5.96C11.83 5.6 11.58 5.25 11.25 5.34C11.25 5.34 11.25 5.34 11.25 5.34L2.12 5.34Z" id="cdihnGx6o"></path></defs><g><g><g><use xlink:href="#cdihnGx6o" opacity="1" fill="#ffffff" fill-opacity="1"></use><g><use xlink:href="#cdihnGx6o" opacity="1" fill-opacity="0" stroke="#000000" stroke-width="1" stroke-opacity="0"></use></g></g></g></g></svg>