<?xml version="1.0" encoding="UTF-8" standalone="no"?>
<!DOCTYPE svg PUBLIC "-//W3C//DTD SVG 1.1//EN" "http://www.w3.org/Graphics/SVG/1.1/DTD/svg11.dtd">
<svg version="1.1" xmlns="http://www.w3.org/2000/svg" xmlns:xlink="http://www.w3.org/1999/xlink" preserveAspectRatio="xMidYMid meet" viewBox="0 0 12 12" width="12" height="12"><defs><path d="M12 11.7C12 11.13 12 6.57 12 6C12 4.5 10.79 3.3 9.3 3.29C8.76 3.29 6.02 3.29 1.09 3.29C2.9 1.62 3.91 0.7 4.11 0.51C4.23 0.4 4.23 0.21 4.12 0.09C4.12 0.09 4.12 0.09 4.11 0.09C4 -0.03 3.81 -0.03 3.69 0.09C3.45 0.31 2.25 1.41 0.09 3.39C0.09 3.39 0.09 3.39 0.09 3.39C-0.02 3.5 -0.03 3.69 0.08 3.8C0.08 3.81 0.09 3.82 0.09 3.82C0.09 3.82 0.09 3.82 0.09 3.82C2.25 5.8 3.45 6.9 3.69 7.12C3.81 7.24 4 7.24 4.11 7.12C4.23 7.01 4.23 6.82 4.11 6.7C3.92 6.51 2.92 5.59 1.12 3.92C6.03 3.92 8.76 3.92 9.3 3.92C10.45 3.92 11.39 4.84 11.4 6C11.4 6.57 11.4 11.13 11.4 11.7C11.4 11.87 11.53 12 11.7 12C11.87 12 12 11.87 12 11.7Z" id="c2QRYSveQN"></path></defs><g><g><g><use xlink:href="#c2QRYSveQN" opacity="1" fill="#999999" fill-opacity="1"></use><g><use xlink:href="#c2QRYSveQN" opacity="1" fill-opacity="0" stroke="#000000" stroke-width="1" stroke-opacity="0"></use></g></g></g></g></svg>