<?xml version="1.0" encoding="UTF-8" standalone="no"?>
<!DOCTYPE svg PUBLIC "-//W3C//DTD SVG 1.1//EN" "http://www.w3.org/Graphics/SVG/1.1/DTD/svg11.dtd">
<svg version="1.1" xmlns="http://www.w3.org/2000/svg" xmlns:xlink="http://www.w3.org/1999/xlink" preserveAspectRatio="xMidYMid meet" viewBox="0 0 14 17" width="14" height="17"><defs><path d="M8.1 1.01L8.15 1.03L8.19 1.05L8.24 1.07L8.28 1.1L8.32 1.14L8.35 1.18L8.38 1.23L8.4 1.28L8.41 1.32L8.42 1.38L8.43 1.43L8.42 1.48L8.41 1.53L8.39 1.58L8.14 2.3L8.02 2.93L8.01 3.5L8.1 4.01L8.28 4.5L8.54 4.96L8.87 5.41L9.26 5.87L9.69 6.36L9.78 6.47L9.88 6.57L9.98 6.68L10.07 6.79L10.17 6.9L10.27 7.01L10.37 7.13L10.46 7.25L10.56 7.37L11.04 8.04L11.44 8.77L11.74 9.55L11.93 10.37L12 11.2L11.93 12.03L11.72 12.83L11.35 13.6L10.81 14.32L10.46 14.66L10.08 14.97L9.67 15.23L9.24 15.46L8.78 15.65L8.3 15.81L7.81 15.91L7.3 15.98L6.78 16L6.12 15.97L5.49 15.87L4.87 15.7L4.28 15.48L3.72 15.19L3.21 14.85L2.73 14.46L2.31 14.02L1.94 13.54L1.65 13.05L1.42 12.54L1.23 12L1.1 11.45L1.02 10.87L1 10.29L1.03 9.7L1.11 9.1L1.25 8.5L1.39 8.07L1.55 7.66L1.74 7.28L1.94 6.93L2.16 6.61L2.4 6.33L2.65 6.08L2.91 5.89L3.18 5.74L3.22 5.72L3.27 5.71L3.32 5.7L3.37 5.7L3.41 5.7L3.46 5.71L3.51 5.73L3.55 5.75L3.59 5.78L3.63 5.81L3.66 5.84L3.69 5.88L3.72 5.92L3.74 5.97L3.75 6.01L3.76 6.06L3.77 6.11L3.76 6.16L3.76 6.31L3.77 6.47L3.8 6.65L3.85 6.82L3.91 7L3.99 7.17L4.08 7.33L4.17 7.48L4.28 7.61L4.32 7.65L4.36 7.7L4.41 7.74L4.46 7.78L4.52 7.81L4.57 7.84L4.63 7.86L4.69 7.88L4.75 7.88L4.77 7.88L4.79 7.88L4.8 7.88L4.82 7.88L4.84 7.87L4.85 7.87L4.87 7.87L4.89 7.86L4.9 7.85L5.07 7.77L5.19 7.66L5.27 7.53L5.32 7.37L5.34 7.18L5.33 6.96L5.29 6.7L5.23 6.41L5.16 6.08L5.14 6.02L5.13 5.97L5.11 5.91L5.1 5.86L5.09 5.8L5.08 5.75L5.07 5.7L5.05 5.65L5.04 5.6L4.95 4.84L4.95 4.15L5.06 3.53L5.27 2.96L5.59 2.45L6.01 2.01L6.53 1.62L7.16 1.29L7.89 1.02L7.94 1.01L7.99 1L8.04 1L8.1 1.01ZM6.4 2.78L6.09 3.19L5.89 3.65L5.78 4.18L5.78 4.78L5.86 5.44L5.87 5.5L5.88 5.56L5.9 5.62L5.91 5.68L5.93 5.74L5.94 5.81L5.96 5.87L6.05 6.26L6.13 6.69L6.17 7.14L6.12 7.58L5.97 7.99L5.68 8.35L5.22 8.63L4.99 8.7L4.76 8.72L4.53 8.7L4.3 8.63L4.08 8.52L3.86 8.36L3.66 8.17L3.54 8.02L3.42 7.85L3.31 7.67L3.22 7.48L3.14 7.29L3.07 7.09L3.01 6.89L2.84 7.09L2.68 7.31L2.53 7.56L2.39 7.83L2.27 8.11L2.15 8.41L2.05 8.73L1.91 9.4L1.84 10.06L1.84 10.71L1.93 11.35L2.09 11.96L2.32 12.53L2.63 13.07L3.04 13.6L3.53 14.05L4.09 14.44L4.7 14.75L5.36 14.98L6.06 15.12L6.78 15.17L7.35 15.14L7.9 15.05L8.43 14.9L8.93 14.69L9.39 14.43L9.82 14.12L10.2 13.76L10.74 12.98L11.05 12.13L11.15 11.24L11.07 10.33L10.82 9.45L10.43 8.63L9.92 7.9L9.8 7.75L9.68 7.6L9.55 7.46L9.43 7.32L9.31 7.19L9.19 7.05L9.07 6.92L8.55 6.33L8.08 5.75L7.68 5.14L7.38 4.5L7.2 3.8L7.17 3.01L7.33 2.13L6.81 2.43L6.4 2.78Z" id="g1Fi4Ly7ja"></path></defs><g><g><path></path><g><use xlink:href="#g1Fi4Ly7ja" opacity="1" fill="#000000" fill-opacity="0"></use><g><use xlink:href="#g1Fi4Ly7ja" opacity="1" fill-opacity="0" stroke="#000000" stroke-width="1" stroke-opacity="1"></use></g></g></g></g></svg>