<?xml version="1.0" encoding="UTF-8" standalone="no"?>
<!DOCTYPE svg PUBLIC "-//W3C//DTD SVG 1.1//EN" "http://www.w3.org/Graphics/SVG/1.1/DTD/svg11.dtd">
<svg version="1.1" xmlns="http://www.w3.org/2000/svg" xmlns:xlink="http://www.w3.org/1999/xlink" preserveAspectRatio="xMidYMid meet" viewBox="0 0 17 15" width="17" height="15"><defs><path d="M15.97 3C16.54 3 17 3.46 17 4.03C17 6.22 17 11.77 17 13.97C17 14.54 16.54 15 15.97 15C12.77 15 4.22 15 1.03 15C0.46 15 0 14.54 0 13.97C0 11.77 0 6.22 0 4.03C0 3.46 0.46 3 1.03 3C4.22 3 12.77 3 15.97 3Z" id="a2KVVyLu2x"></path><clipPath id="clipcQ6g4A69f"><use xlink:href="#a2KVVyLu2x" opacity="1"></use></clipPath><path d="M11.57 0C11.81 0 12 0.19 12 0.43C12 1.34 12 3.66 12 4.57C12 4.81 11.81 5 11.57 5C10.26 5 6.74 5 5.43 5C5.19 5 5 4.81 5 4.57C5 3.66 5 1.34 5 0.43C5 0.19 5.19 0 5.43 0C6.74 0 10.26 0 11.57 0Z" id="acW5x56C3"></path><clipPath id="clipd21SKzlzyF"><use xlink:href="#acW5x56C3" opacity="1"></use></clipPath><path d="" id="apAjo7uUQ"></path><path d="M1 7L16 7L16 8L1 8L1 7Z" id="ffv6YeLVf"></path><clipPath id="clipc18gfPapb2"><use xlink:href="#ffv6YeLVf" opacity="1"></use></clipPath><path d="M7 8L10 8L10 9L7 9L7 8Z" id="a2eQBhG6bS"></path><clipPath id="clipc1fdQcFEgV"><use xlink:href="#a2eQBhG6bS" opacity="1"></use></clipPath></defs><g><g><g><use xlink:href="#a2KVVyLu2x" opacity="1" fill="#675353" fill-opacity="0"></use><g clip-path="url(#clipcQ6g4A69f)"><use xlink:href="#a2KVVyLu2x" opacity="1" fill-opacity="0" stroke="#000000" stroke-width="4" stroke-opacity="1"></use></g></g><g><use xlink:href="#acW5x56C3" opacity="1" fill="#675353" fill-opacity="0"></use><g clip-path="url(#clipd21SKzlzyF)"><use xlink:href="#acW5x56C3" opacity="1" fill-opacity="0" stroke="#000000" stroke-width="4" stroke-opacity="1"></use></g></g><g><g><use xlink:href="#apAjo7uUQ" opacity="1" fill-opacity="0" stroke="#000000" stroke-width="1" stroke-opacity="1"></use></g></g><g><use xlink:href="#ffv6YeLVf" opacity="1" fill="#675353" fill-opacity="0"></use><g clip-path="url(#clipc18gfPapb2)"><use xlink:href="#ffv6YeLVf" opacity="1" fill-opacity="0" stroke="#000000" stroke-width="2" stroke-opacity="1"></use></g></g><g><use xlink:href="#a2eQBhG6bS" opacity="1" fill="#675353" fill-opacity="0"></use><g clip-path="url(#clipc1fdQcFEgV)"><use xlink:href="#a2eQBhG6bS" opacity="1" fill-opacity="0" stroke="#000000" stroke-width="2" stroke-opacity="1"></use></g></g></g></g></svg>