<?xml version="1.0" encoding="UTF-8" standalone="no"?>
<!DOCTYPE svg PUBLIC "-//W3C//DTD SVG 1.1//EN" "http://www.w3.org/Graphics/SVG/1.1/DTD/svg11.dtd">
<svg version="1.1" xmlns="http://www.w3.org/2000/svg" xmlns:xlink="http://www.w3.org/1999/xlink" preserveAspectRatio="xMidYMid meet" viewBox="0 0 15 15" width="15" height="15"><defs><path d="M14.33 0C14.7 0 15 0.3 15 0.68C15 2.74 15 8.27 15 10.33C15 10.7 14.7 11 14.33 11C11.46 11 3.54 11 0.67 11C0.3 11 0 10.7 0 10.33C0 8.27 0 2.74 0 0.68C0 0.3 0.3 0 0.67 0C3.54 0 11.46 0 14.33 0Z" id="a1gqc6kTDb"></path><clipPath id="clipcA7gxpIex"><use xlink:href="#a1gqc6kTDb" opacity="1"></use></clipPath><path d="M0 14L5 10L0 10L0 14Z" id="e2YylXyfM3"></path><clipPath id="clipeGyyc5ve8"><use xlink:href="#e2YylXyfM3" opacity="1"></use></clipPath><path d="M4 4L11 4L11 5L4 5L4 4Z" id="a1HzwMuwCS"></path><clipPath id="clipa2jHoisqje"><use xlink:href="#a1HzwMuwCS" opacity="1"></use></clipPath><path d="M4 6L11 6L11 7L4 7L4 6Z" id="a1yzauaRKI"></path><clipPath id="clipd3QakmNcb"><use xlink:href="#a1yzauaRKI" opacity="1"></use></clipPath></defs><g><g><g><use xlink:href="#a1gqc6kTDb" opacity="1" fill="#027bc4" fill-opacity="0"></use><g clip-path="url(#clipcA7gxpIex)"><use xlink:href="#a1gqc6kTDb" opacity="1" fill-opacity="0" stroke="#000000" stroke-width="4" stroke-opacity="1"></use></g></g><g><use xlink:href="#e2YylXyfM3" opacity="1" fill="#027bc4" fill-opacity="0"></use><g clip-path="url(#clipeGyyc5ve8)"><use xlink:href="#e2YylXyfM3" opacity="1" fill-opacity="0" stroke="#000000" stroke-width="4" stroke-opacity="1"></use></g></g><g><use xlink:href="#a1HzwMuwCS" opacity="1" fill="#027bc4" fill-opacity="0"></use><g clip-path="url(#clipa2jHoisqje)"><use xlink:href="#a1HzwMuwCS" opacity="1" fill-opacity="0" stroke="#000000" stroke-width="4" stroke-opacity="1"></use></g></g><g><use xlink:href="#a1yzauaRKI" opacity="1" fill="#027bc4" fill-opacity="0"></use><g clip-path="url(#clipd3QakmNcb)"><use xlink:href="#a1yzauaRKI" opacity="1" fill-opacity="0" stroke="#000000" stroke-width="4" stroke-opacity="1"></use></g></g></g></g></svg>