<?xml version="1.0" encoding="UTF-8" standalone="no"?>
<!DOCTYPE svg PUBLIC "-//W3C//DTD SVG 1.1//EN" "http://www.w3.org/Graphics/SVG/1.1/DTD/svg11.dtd">
<svg version="1.1" xmlns="http://www.w3.org/2000/svg" xmlns:xlink="http://www.w3.org/1999/xlink" preserveAspectRatio="xMidYMid meet" viewBox="0 0 400 400" width="400" height="400"><defs><path d="M142.79 306.86C122.94 306.86 106.86 322.95 106.86 342.8C106.86 362.64 122.94 378.73 142.79 378.73C162.64 378.73 178.72 362.64 178.72 342.8C178.72 322.95 162.64 306.86 142.79 306.86Z" id="a1od9Twp0E"></path><path d="M288.42 306.86C268.57 306.86 252.48 322.95 252.48 342.8C252.48 362.64 268.57 378.73 288.42 378.73C308.26 378.73 324.35 362.64 324.35 342.8C324.35 322.95 308.26 306.86 288.42 306.86Z" id="aaYfO5iUu"></path><path d="M352.25 115.85L325.3 234.52L124.82 234.52L76.6 22.23L0 22.23L0 60.05L46.34 60.05L94.56 272.35L355.08 272.35L400 78.02L152.72 78.02L152.72 115.85L152.72 115.85L352.25 115.85Z" id="a5cDBeWElV"></path></defs><g><g><g><g><use xlink:href="#a1od9Twp0E" opacity="1" fill="#ffffff" fill-opacity="1"></use></g><g><use xlink:href="#aaYfO5iUu" opacity="1" fill="#ffffff" fill-opacity="1"></use></g><g><use xlink:href="#a5cDBeWElV" opacity="1" fill="#ffffff" fill-opacity="1"></use></g></g></g></g></svg>