<?xml version="1.0" encoding="UTF-8" standalone="no"?>
<!DOCTYPE svg PUBLIC "-//W3C//DTD SVG 1.1//EN" "http://www.w3.org/Graphics/SVG/1.1/DTD/svg11.dtd">
<svg version="1.1" xmlns="http://www.w3.org/2000/svg" xmlns:xlink="http://www.w3.org/1999/xlink" preserveAspectRatio="xMidYMid meet" viewBox="0 0 21 21" width="21" height="21"><defs><path d="M13.97 1.02L14.04 1.04L14.11 1.07L14.18 1.1L14.25 1.14L14.31 1.19L14.37 1.24L14.42 1.3L14.47 1.37L14.51 1.44L17.74 7.26L20.17 7.26L20.22 7.26L20.26 7.26L20.31 7.27L20.35 7.28L20.39 7.29L20.44 7.3L20.48 7.32L20.52 7.34L20.56 7.36L20.6 7.38L20.64 7.4L20.67 7.43L20.71 7.46L20.74 7.49L20.77 7.52L20.8 7.56L20.83 7.59L20.86 7.63L20.88 7.67L20.91 7.71L20.93 7.75L20.94 7.79L20.96 7.84L20.97 7.88L20.98 7.93L20.99 7.97L21 8.02L21 8.06L21.01 8.11L21 8.15L21 8.2L21 8.25L20.99 8.29L20.98 8.34L18.2 19.36L18.18 19.42L18.16 19.49L18.13 19.55L18.1 19.61L18.06 19.66L18.02 19.71L17.98 19.76L17.93 19.8L17.88 19.84L17.83 19.88L17.77 19.91L17.71 19.94L17.65 19.96L17.59 19.98L17.53 19.99L17.46 20L17.4 20L3.61 20L3.55 20L3.48 19.99L3.42 19.98L3.36 19.96L3.3 19.94L3.24 19.91L3.18 19.88L3.13 19.84L3.08 19.8L3.03 19.76L2.99 19.71L2.95 19.66L2.91 19.61L2.88 19.55L2.85 19.49L2.83 19.42L2.81 19.36L0.03 8.34L0.02 8.29L0.01 8.25L0.01 8.2L0.01 8.15L0 8.11L0.01 8.06L0.01 8.02L0.02 7.97L0.03 7.93L0.04 7.88L0.05 7.84L0.07 7.79L0.08 7.75L0.1 7.71L0.13 7.67L0.15 7.63L0.18 7.59L0.21 7.56L0.24 7.52L0.27 7.49L0.3 7.46L0.34 7.43L0.37 7.4L0.41 7.38L0.45 7.36L0.49 7.34L0.53 7.32L0.57 7.3L0.62 7.29L0.66 7.28L0.7 7.27L0.75 7.26L0.79 7.26L0.84 7.26L3.27 7.26L6.5 1.44L6.54 1.37L6.59 1.3L6.64 1.24L6.7 1.19L6.76 1.14L6.83 1.1L6.9 1.07L6.97 1.04L7.04 1.02L7.11 1.01L7.19 1L7.27 1L7.34 1.01L7.42 1.03L7.49 1.05L7.56 1.08L7.64 1.12L7.7 1.16L7.77 1.21L7.82 1.27L7.87 1.33L7.92 1.39L7.96 1.46L7.99 1.53L8.01 1.6L8.03 1.68L8.05 1.76L8.05 1.84L8.05 1.91L8.04 1.99L8.03 2.07L8.01 2.15L7.98 2.22L7.94 2.3L5.19 7.26L15.82 7.26L13.07 2.3L13.03 2.22L13 2.15L12.98 2.07L12.97 1.99L12.96 1.91L12.96 1.84L12.96 1.76L12.98 1.68L13 1.6L13.02 1.53L13.05 1.46L13.09 1.39L13.14 1.33L13.19 1.27L13.24 1.21L13.31 1.16L13.37 1.12L13.45 1.08L13.52 1.05L13.59 1.03L13.67 1.01L13.74 1L13.82 1L13.9 1.01L13.97 1.02ZM4.26 18.28L16.75 18.28L19.09 8.98L1.92 8.98L4.26 18.28Z" id="buje9sXtG"></path></defs><g><g><g><use xlink:href="#buje9sXtG" opacity="1" fill="#000000" fill-opacity="1"></use></g></g></g></svg>