<?xml version="1.0" encoding="UTF-8" standalone="no"?>
<!DOCTYPE svg PUBLIC "-//W3C//DTD SVG 1.1//EN" "http://www.w3.org/Graphics/SVG/1.1/DTD/svg11.dtd">
<svg version="1.1" xmlns="http://www.w3.org/2000/svg" xmlns:xlink="http://www.w3.org/1999/xlink" preserveAspectRatio="xMidYMid meet" viewBox="0 0 14 18" width="14" height="18"><defs><path d="M0 1L14 1L14 3L0 3L0 1Z" id="b5sVPnfBcb"></path><path d="M8.37 0C8.72 0 9 0.28 9 0.63C9 1.1 9 1.9 9 2.37C9 2.72 8.72 3 8.37 3C7.7 3 6.31 3 5.63 3C5.28 3 5 2.72 5 2.37C5 1.9 5 1.1 5 0.63C5 0.28 5.28 0 5.63 0C6.31 0 7.7 0 8.37 0Z" id="e6nYwTJqF"></path><path d="" id="azxJ1LUfV"></path><path d="M2 17L12 17L12 6L2 6L2 17Z" id="d1043l2r35"></path><path d="M5.5 7L5.5 16L5.5 7Z" id="dekQQr5Jh"></path><path d="M8.5 7L8.5 16L8.5 7Z" id="bw0CKqpF4"></path></defs><g><g><g><use xlink:href="#b5sVPnfBcb" opacity="1" fill="#000000" fill-opacity="1"></use></g><g><use xlink:href="#e6nYwTJqF" opacity="1" fill="#000000" fill-opacity="1"></use></g><g><g><use xlink:href="#azxJ1LUfV" opacity="1" fill-opacity="0" stroke="#000000" stroke-width="1" stroke-opacity="1"></use></g></g><g><use xlink:href="#d1043l2r35" opacity="1" fill="#ffffff" fill-opacity="0"></use><g><use xlink:href="#d1043l2r35" opacity="1" fill-opacity="0" stroke="#000000" stroke-width="2" stroke-opacity="1"></use></g></g><g><use xlink:href="#dekQQr5Jh" opacity="1" fill="#ffffff" fill-opacity="0"></use><g><use xlink:href="#dekQQr5Jh" opacity="1" fill-opacity="0" stroke="#000000" stroke-width="1" stroke-opacity="1"></use></g></g><g><use xlink:href="#bw0CKqpF4" opacity="1" fill="#ffffff" fill-opacity="0"></use><g><use xlink:href="#bw0CKqpF4" opacity="1" fill-opacity="0" stroke="#000000" stroke-width="1" stroke-opacity="1"></use></g></g></g></g></svg>