<?xml version="1.0" encoding="UTF-8" standalone="no"?>
<!DOCTYPE svg PUBLIC "-//W3C//DTD SVG 1.1//EN" "http://www.w3.org/Graphics/SVG/1.1/DTD/svg11.dtd">
<svg version="1.1" xmlns="http://www.w3.org/2000/svg" xmlns:xlink="http://www.w3.org/1999/xlink" preserveAspectRatio="xMidYMid meet" viewBox="0 0 14 18" width="14" height="18"><defs><path d="M1 5L13 5L13 18L1 18L1 5Z" id="d6FKgEDKoj"></path><path d="M3 7L5 7L5 16L3 16L3 7Z" id="clj7WqLUP"></path><path d="M6 7L8 7L8 16L6 16L6 7Z" id="bBZtEQSD0"></path><path d="M9 7L11 7L11 16L9 16L9 7Z" id="f1iGf1mE6s"></path><path d="M0 1L14 1L14 3L0 3L0 1Z" id="bl5pxNS51"></path><path d="M8.37 0C8.72 0 9 0.28 9 0.63C9 1.1 9 1.9 9 2.37C9 2.72 8.72 3 8.37 3C7.7 3 6.31 3 5.63 3C5.28 3 5 2.72 5 2.37C5 1.9 5 1.1 5 0.63C5 0.28 5.28 0 5.63 0C6.31 0 7.7 0 8.37 0Z" id="a4yH1N8cWO"></path></defs><g><g><g><use xlink:href="#d6FKgEDKoj" opacity="1" fill="#f00000" fill-opacity="1"></use></g><g><use xlink:href="#clj7WqLUP" opacity="1" fill="#ffffff" fill-opacity="1"></use></g><g><use xlink:href="#bBZtEQSD0" opacity="1" fill="#ffffff" fill-opacity="1"></use></g><g><use xlink:href="#f1iGf1mE6s" opacity="1" fill="#ffffff" fill-opacity="1"></use></g><g><use xlink:href="#bl5pxNS51" opacity="1" fill="#f00000" fill-opacity="1"></use></g><g><use xlink:href="#a4yH1N8cWO" opacity="1" fill="#f00000" fill-opacity="1"></use></g></g></g></svg>