<?xml version="1.0" encoding="UTF-8" standalone="no"?>
<!DOCTYPE svg PUBLIC "-//W3C//DTD SVG 1.1//EN" "http://www.w3.org/Graphics/SVG/1.1/DTD/svg11.dtd">
<svg version="1.1" xmlns="http://www.w3.org/2000/svg" xmlns:xlink="http://www.w3.org/1999/xlink" preserveAspectRatio="xMidYMid meet" viewBox="0 0 260 260" width="260" height="260"><defs><path d="M92.65 76.03L93.28 76.09L93.91 76.17L94.54 76.27L95.17 76.4L95.8 76.56L96.43 76.74L97.05 76.95L253.53 131.35L253.7 131.42L253.88 131.48L254.05 131.55L254.22 131.62L254.38 131.7L254.55 131.77L254.72 131.85L254.88 131.94L255.04 132.02L255.2 132.11L255.35 132.21L255.51 132.3L255.66 132.4L255.81 132.5L255.96 132.61L256.11 132.71L256.25 132.82L256.4 132.93L256.54 133.05L256.68 133.17L256.81 133.29L256.95 133.41L257.08 133.53L257.21 133.66L257.33 133.79L257.46 133.92L257.58 134.06L257.7 134.2L257.82 134.34L257.93 134.48L258.04 134.62L258.15 134.77L258.26 134.92L258.36 135.07L258.46 135.22L258.56 135.38L258.66 135.53L258.75 135.69L258.84 135.85L258.92 136.02L259.1 136.37L259.26 136.73L259.4 137.09L259.53 137.46L259.64 137.82L259.74 138.19L259.82 138.56L259.88 138.94L259.93 139.31L259.97 139.68L259.99 140.05L260 140.43L259.99 140.8L259.97 141.17L259.93 141.54L259.88 141.9L259.82 142.27L259.74 142.63L259.65 142.98L259.55 143.34L259.43 143.69L259.3 144.03L259.15 144.37L258.99 144.7L258.82 145.03L258.64 145.35L258.44 145.67L258.24 145.98L258.02 146.28L257.78 146.57L257.54 146.85L257.28 147.13L257.01 147.39L256.73 147.65L256.44 147.89L256.14 148.13L255.82 148.35L255.5 148.56L255.16 148.77L254.81 148.95L209.05 173.27L224.35 188.57L236.25 200.47L236.27 200.49L236.29 200.51L236.31 200.53L236.33 200.55L236.34 200.57L236.8 201.05L237.23 201.54L237.64 202.04L238.02 202.56L238.38 203.09L238.72 203.62L239.04 204.17L239.33 204.73L239.59 205.3L239.84 205.87L240.06 206.46L240.25 207.05L240.43 207.64L240.58 208.24L240.7 208.84L240.81 209.45L240.89 210.06L240.94 210.67L240.97 211.29L240.98 211.9L240.97 212.51L240.93 213.13L240.87 213.74L240.79 214.35L240.68 214.95L240.55 215.56L240.39 216.16L240.21 216.75L240.01 217.34L239.79 217.92L239.54 218.49L239.27 219.05L238.97 219.61L238.65 220.16L238.31 220.69L237.95 221.22L237.56 221.73L237.15 222.23L236.71 222.72L236.25 223.19L222.49 236.95L222.47 236.97L222.45 236.99L222.44 237.01L222.42 237.03L222.4 237.05L221.92 237.5L221.43 237.93L220.92 238.34L220.41 238.73L219.88 239.09L219.34 239.42L218.79 239.74L218.23 240.03L217.67 240.3L217.09 240.54L216.51 240.76L215.92 240.96L215.33 241.13L214.73 241.28L214.12 241.41L213.52 241.51L212.91 241.59L212.29 241.65L211.68 241.68L211.07 241.69L210.45 241.67L209.84 241.64L209.23 241.57L208.62 241.49L208.01 241.38L207.41 241.25L206.81 241.1L206.22 240.92L205.63 240.72L205.05 240.49L204.48 240.24L203.91 239.97L203.36 239.68L202.81 239.36L202.27 239.02L201.75 238.65L201.23 238.26L200.73 237.85L200.24 237.41L199.77 236.95L172.57 209.75L165.6 222.96L150.3 251.92L150 252.49L149.47 253.49L148.57 255.19L148.44 255.42L148.29 255.65L148.15 255.87L147.99 256.08L147.84 256.29L147.67 256.49L147.51 256.69L147.33 256.89L147.15 257.07L146.97 257.26L146.78 257.44L146.59 257.61L146.4 257.78L146.2 257.94L145.99 258.1L145.79 258.25L145.57 258.39L145.36 258.53L145.14 258.66L144.92 258.79L144.69 258.91L144.46 259.03L144.23 259.14L143.99 259.24L143.76 259.34L143.51 259.43L143.27 259.51L143.03 259.59L142.78 259.66L142.53 259.73L142.28 259.79L142.02 259.84L141.76 259.88L141.51 259.92L141.25 259.95L140.99 259.97L140.72 259.99L140.46 260L140.2 260L139.93 259.99L139.29 259.99L139.01 259.97L138.73 259.93L138.45 259.89L138.17 259.84L137.89 259.78L137.62 259.72L137.35 259.64L137.09 259.56L136.83 259.47L136.57 259.38L136.31 259.27L136.06 259.16L135.81 259.04L135.56 258.92L135.32 258.79L135.08 258.65L134.85 258.51L134.62 258.35L134.4 258.2L134.18 258.03L133.96 257.86L133.75 257.69L133.55 257.5L133.35 257.32L133.16 257.12L132.97 256.92L132.78 256.72L132.61 256.51L132.43 256.29L132.27 256.07L132.11 255.84L131.95 255.61L131.81 255.38L131.67 255.14L131.53 254.89L131.41 254.64L131.29 254.38L131.17 254.13L131.07 253.86L130.97 253.59L76.57 97.11L76.57 97.43L76.48 97.17L76.39 96.91L76.31 96.64L76.23 96.37L76.16 96.1L76.09 95.84L76.02 95.57L75.96 95.29L75.91 95.02L75.86 94.75L75.81 94.48L75.77 94.21L75.74 93.93L75.71 93.66L75.68 93.38L75.66 93.11L75.64 92.83L75.63 92.56L75.62 92.28L75.62 92.01L75.62 91.73L75.63 91.45L75.64 91.18L75.66 90.9L75.68 90.63L75.71 90.35L75.74 90.08L75.77 89.81L75.81 89.53L75.86 89.26L75.91 88.99L75.96 88.72L76.02 88.45L76.09 88.18L76.16 87.91L76.23 87.64L76.31 87.37L76.39 87.1L76.48 86.84L76.57 86.58L76.81 85.96L77.07 85.36L77.35 84.77L77.65 84.21L77.97 83.65L78.31 83.12L78.67 82.6L79.05 82.1L79.45 81.61L79.87 81.14L80.3 80.7L80.75 80.27L81.21 79.85L81.69 79.46L82.18 79.09L82.68 78.73L83.2 78.4L83.73 78.09L84.27 77.8L84.82 77.52L85.38 77.27L85.95 77.04L86.53 76.84L87.11 76.65L87.71 76.49L88.31 76.35L88.92 76.23L89.53 76.14L90.15 76.07L90.77 76.02L91.39 76L92.02 76.01L92.65 76.03ZM161.69 188.95L161.73 188.89L161.76 188.82L161.8 188.76L161.83 188.69L161.87 188.63L161.91 188.56L161.95 188.5L161.99 188.43L162.03 188.37L162.07 188.31L162.11 188.24L162.15 188.18L162.19 188.12L162.23 188.05L162.27 187.99L162.31 187.93L162.36 187.87L162.4 187.81L162.45 187.75L162.49 187.69L162.53 187.63L162.58 187.57L162.63 187.51L162.67 187.45L162.72 187.39L162.77 187.33L162.81 187.28L162.86 187.22L162.91 187.16L162.96 187.11L163.01 187.05L163.06 186.99L163.11 186.94L163.16 186.88L163.21 186.83L163.26 186.77L163.32 186.72L163.37 186.67L163.42 186.61L163.48 186.56L163.76 186.29L164.06 186.03L164.37 185.79L164.68 185.56L165 185.35L165.32 185.15L165.65 184.96L165.99 184.79L166.33 184.63L166.67 184.49L167.03 184.36L167.38 184.24L167.74 184.14L168.1 184.05L168.46 183.98L168.82 183.92L169.19 183.88L169.56 183.85L169.93 183.83L170.3 183.83L170.66 183.84L171.03 183.86L171.4 183.9L171.76 183.96L172.13 184.02L172.49 184.1L172.85 184.2L173.2 184.31L173.55 184.43L173.9 184.57L174.24 184.72L174.58 184.89L174.91 185.07L175.24 185.26L175.56 185.47L175.87 185.69L176.18 185.92L176.48 186.17L176.77 186.44L177.05 186.71L211.29 220.95L220.57 211.67L186.33 177.43L186.28 177.38L186.22 177.33L186.17 177.28L186.12 177.22L186.07 177.17L186.02 177.11L185.97 177.06L185.92 177L185.87 176.95L185.82 176.89L185.77 176.83L185.72 176.78L185.67 176.72L185.62 176.66L185.57 176.6L185.53 176.54L185.48 176.49L185.44 176.43L185.39 176.37L185.35 176.31L185.3 176.25L185.26 176.19L185.21 176.13L185.17 176.06L185.13 176L185.09 175.94L185.04 175.88L185 175.82L184.96 175.75L184.92 175.69L184.88 175.63L184.84 175.56L184.8 175.5L184.77 175.43L184.73 175.37L184.69 175.3L184.65 175.24L184.62 175.17L184.58 175.11L184.55 175.04L184.37 174.69L184.21 174.33L184.06 173.97L183.93 173.6L183.82 173.24L183.72 172.87L183.64 172.5L183.57 172.13L183.51 171.76L183.47 171.38L183.45 171.01L183.44 170.64L183.45 170.27L183.46 169.9L183.5 169.53L183.55 169.16L183.61 168.8L183.68 168.44L183.77 168.08L183.87 167.72L183.99 167.37L184.12 167.03L184.26 166.69L184.42 166.35L184.58 166.03L184.77 165.7L184.96 165.39L185.17 165.08L185.38 164.78L185.62 164.48L185.86 164.2L186.11 163.92L186.38 163.65L186.66 163.4L186.95 163.15L187.25 162.91L187.56 162.68L187.89 162.47L188.22 162.27L188.57 162.07L226.33 142.23L96.73 97.11L141.85 226.71L161.69 188.95Z" id="d44ec7HRw"></path><path d="M100.57 50.39C105.78 49.42 109.22 44.41 108.25 39.2C108.25 39.2 108.25 39.2 108.25 39.19C107.67 36.12 103.07 11.55 102.49 8.47C101.52 3.26 96.5 -0.18 91.29 0.79C86.08 1.77 82.64 6.78 83.61 11.99C83.61 11.99 83.61 11.99 83.61 11.99C84.19 15.07 88.79 39.64 89.37 42.71C90.27 47.14 94.14 50.34 98.65 50.39C99.03 50.39 100.38 50.39 100.57 50.39Z" id="jSVr4jGvO"></path><path d="M33.37 19.99C29.13 16.81 23.11 17.67 19.93 21.91C17.37 25.33 17.37 30.02 19.93 33.43C21.95 35.45 38.07 51.58 40.09 53.59C44.33 56.78 50.35 55.92 53.53 51.67C56.09 48.26 56.09 43.57 53.53 40.15C49.5 36.12 35.39 22.01 33.37 19.99Z" id="cbMsOEgSo"></path><path d="M38.81 108.63C39.77 108.63 40.3 108.63 40.41 108.63C45.71 109.08 50.37 105.14 50.81 99.83C51.25 94.53 47.31 89.88 42.01 89.43C38.97 88.89 14.65 84.54 11.61 83.99C6.4 83.02 1.38 86.46 0.41 91.67C-0.56 96.89 2.88 101.9 8.09 102.87C12.19 103.64 22.43 105.56 38.81 108.63Z" id="a100tmBOX0"></path></defs><g><g><g><g><use xlink:href="#d44ec7HRw" opacity="1" fill="#ffffff" fill-opacity="1"></use><g><use xlink:href="#d44ec7HRw" opacity="1" fill-opacity="0" stroke="#000000" stroke-width="1" stroke-opacity="0"></use></g></g><g><use xlink:href="#jSVr4jGvO" opacity="1" fill="#ffffff" fill-opacity="1"></use><g><use xlink:href="#jSVr4jGvO" opacity="1" fill-opacity="0" stroke="#000000" stroke-width="1" stroke-opacity="0"></use></g></g><g><use xlink:href="#cbMsOEgSo" opacity="1" fill="#ffffff" fill-opacity="1"></use><g><use xlink:href="#cbMsOEgSo" opacity="1" fill-opacity="0" stroke="#000000" stroke-width="1" stroke-opacity="0"></use></g></g><g><use xlink:href="#a100tmBOX0" opacity="1" fill="#ffffff" fill-opacity="1"></use><g><use xlink:href="#a100tmBOX0" opacity="1" fill-opacity="0" stroke="#000000" stroke-width="1" stroke-opacity="0"></use></g></g></g></g></g></svg>