<?xml version="1.0" encoding="UTF-8" standalone="no"?>
<!DOCTYPE svg PUBLIC "-//W3C//DTD SVG 1.1//EN" "http://www.w3.org/Graphics/SVG/1.1/DTD/svg11.dtd">
<svg version="1.1" xmlns="http://www.w3.org/2000/svg" xmlns:xlink="http://www.w3.org/1999/xlink" preserveAspectRatio="xMidYMid meet" viewBox="0 0 200 200" width="200" height="200"><defs><path d="M2.45 2.45C-0.82 5.71 -0.82 11.07 2.45 14.33C8.16 20.04 36.71 48.6 88.12 100C36.71 151.4 8.16 179.96 2.45 185.67C-0.82 188.93 -0.82 194.29 2.45 197.55C5.71 200.82 11.07 200.82 14.33 197.55C20.04 191.84 48.6 163.28 100 111.88C151.4 163.28 179.96 191.84 185.67 197.55C188.93 200.82 194.29 200.82 197.55 197.55C200.82 194.29 200.82 188.93 197.55 185.67C191.84 179.96 163.29 151.4 111.88 100C163.29 48.6 191.84 20.04 197.55 14.33C200.82 11.07 200.82 5.71 197.55 2.45C194.29 -0.82 188.93 -0.82 185.67 2.45C179.96 8.16 151.4 36.72 100 88.12C48.6 36.72 20.04 8.16 14.33 2.45C12.7 0.82 10.59 0.1 8.46 0.1C6.32 0.1 4.08 0.82 2.45 2.45Z" id="bmfyb3RJC"></path></defs><g><g><g><use xlink:href="#bmfyb3RJC" opacity="1" fill="#000000" fill-opacity="1"></use><g><use xlink:href="#bmfyb3RJC" opacity="1" fill-opacity="0" stroke="#000000" stroke-width="1" stroke-opacity="0"></use></g></g></g></g></svg>