<?xml version="1.0" encoding="UTF-8" standalone="no"?>
<!DOCTYPE svg PUBLIC "-//W3C//DTD SVG 1.1//EN" "http://www.w3.org/Graphics/SVG/1.1/DTD/svg11.dtd">
<svg version="1.1" xmlns="http://www.w3.org/2000/svg" xmlns:xlink="http://www.w3.org/1999/xlink" preserveAspectRatio="xMidYMid meet" viewBox="0 0 16 9" width="16" height="9"><defs><path d="M-213.84 -114.06C-213.84 -114.06 -213.84 -114.06 -213.84 -114.06C-213.84 261.78 -213.84 470.58 -213.84 512.34C-213.84 512.34 -213.84 512.34 -213.84 512.34C-225.84 512.34 -232.51 512.34 -233.84 512.34C-233.84 512.34 -233.84 512.34 -233.84 512.34C-233.84 136.5 -233.84 -72.3 -233.84 -114.06C-233.84 -114.06 -233.84 -114.06 -233.84 -114.06C-221.84 -114.06 -215.17 -114.06 -213.84 -114.06Z" id="bxZFzVjzS"></path><path d="M14.88 2.49C14.26 2.49 13.76 2.98 13.76 3.58C13.76 3.69 13.76 4.27 13.76 5.3C11.21 2.83 9.8 1.46 9.52 1.18C9.08 0.76 8.37 0.76 7.93 1.18C7.76 1.35 6.91 2.18 5.37 3.67C3.29 1.66 2.14 0.55 1.91 0.32C1.47 -0.1 0.76 -0.1 0.33 0.32C-0.11 0.75 -0.11 1.43 0.33 1.86C0.75 2.27 4.15 5.56 4.57 5.97C5.01 6.4 5.72 6.4 6.16 5.97C6.33 5.81 7.18 4.98 8.72 3.49L12.18 6.83C11.11 6.83 10.52 6.83 10.4 6.83C9.78 6.83 9.28 7.32 9.28 7.92C9.28 7.92 9.28 7.92 9.28 7.92C9.28 8.52 9.78 9 10.4 9C10.85 9 14.43 9 14.88 9C15.5 9 16 8.52 16 7.92C16 7.49 16 4.01 16 3.58C16 2.98 15.5 2.49 14.88 2.49C14.88 2.49 14.88 2.49 14.88 2.49C14.88 2.49 14.88 2.49 14.88 2.49Z" id="b5n9MvL8HF"></path></defs><g><g><path></path><g><use xlink:href="#bxZFzVjzS" opacity="1" fill="#000000" fill-opacity="1"></use><g><use xlink:href="#bxZFzVjzS" opacity="1" fill-opacity="0" stroke="#000000" stroke-width="1" stroke-opacity="0"></use></g></g><g><use xlink:href="#b5n9MvL8HF" opacity="1" fill="#a9a9a9" fill-opacity="1"></use><g><use xlink:href="#b5n9MvL8HF" opacity="1" fill-opacity="0" stroke="#000000" stroke-width="1" stroke-opacity="0"></use></g></g></g></g></svg>