<?xml version="1.0" encoding="UTF-8" standalone="no"?>
<!DOCTYPE svg PUBLIC "-//W3C//DTD SVG 1.1//EN" "http://www.w3.org/Graphics/SVG/1.1/DTD/svg11.dtd">
<svg version="1.1" xmlns="http://www.w3.org/2000/svg" xmlns:xlink="http://www.w3.org/1999/xlink" preserveAspectRatio="xMidYMid meet" viewBox="0 0 46 51" width="26" height="28.83"><defs><path d="M36.68 0.05L37.19 0.11L37.68 0.2L38.17 0.31L38.64 0.44L39.11 0.59L39.57 0.76L40.02 0.96L40.45 1.17L40.88 1.41L41.29 1.66L41.69 1.94L42.07 2.23L42.44 2.53L42.8 2.86L43.14 3.2L43.46 3.55L43.77 3.92L44.06 4.3L44.33 4.7L44.59 5.11L44.82 5.54L45.04 5.97L45.23 6.42L45.41 6.87L45.56 7.34L45.69 7.82L45.8 8.3L45.89 8.8L45.95 9.3L45.99 9.81L46 10.32L46 30.43L45.99 30.89L45.96 31.35L45.91 31.79L45.84 32.24L45.75 32.67L45.65 33.1L45.52 33.53L45.38 33.94L45.22 34.35L45.05 34.75L44.86 35.14L44.65 35.52L44.43 35.89L44.19 36.25L43.94 36.6L43.68 36.94L43.4 37.27L43.11 37.58L42.8 37.89L42.48 38.18L42.16 38.45L41.82 38.72L41.46 38.97L41.1 39.2L40.73 39.42L40.35 39.63L39.95 39.82L39.55 39.99L39.15 40.15L38.73 40.29L38.3 40.41L37.87 40.51L37.43 40.6L37.43 49.31L37.43 49.36L37.43 49.42L37.42 49.47L37.42 49.53L37.41 49.58L37.4 49.64L37.38 49.69L37.37 49.75L37.35 49.8L37.33 49.86L37.31 49.91L37.29 49.96L37.27 50.01L37.24 50.07L37.22 50.12L37.19 50.17L37.16 50.22L37.13 50.26L37.09 50.31L37.06 50.36L37.02 50.4L36.99 50.45L36.95 50.49L36.91 50.53L36.87 50.57L36.83 50.61L36.78 50.65L36.74 50.69L36.7 50.72L36.65 50.75L36.6 50.79L36.56 50.82L36.51 50.85L36.49 50.86L36.46 50.87L36.44 50.88L36.42 50.9L36.4 50.91L36.37 50.92L36.35 50.92L36.33 50.93L36.3 50.94L36.28 50.95L36.26 50.95L36.23 50.96L36.21 50.97L36.18 50.97L36.16 50.97L36.13 50.98L36.11 50.98L36.08 50.99L36.06 50.99L36.04 50.99L36.01 50.99L35.99 50.99L35.96 51L35.94 51L35.91 51L35.89 51L35.87 51L35.84 51L35.82 51L35.8 51L35.78 51L35.73 51L35.7 51L35.67 51L35.63 51L35.6 51L35.56 50.99L35.53 50.99L35.5 50.99L35.47 50.99L35.43 50.98L35.4 50.98L35.37 50.97L35.34 50.97L35.31 50.96L35.28 50.95L35.25 50.95L35.22 50.94L35.19 50.93L35.16 50.92L35.13 50.91L35.1 50.9L35.07 50.89L35.04 50.87L35.01 50.86L34.99 50.85L34.96 50.83L34.93 50.82L34.9 50.8L34.87 50.79L34.84 50.77L34.82 50.75L34.79 50.73L34.76 50.71L34.73 50.69L29.56 46.92L29.05 46.55L28.53 46.2L28 45.85L27.47 45.52L26.93 45.19L26.39 44.88L25.85 44.58L25.3 44.29L24.74 44.01L24.18 43.74L23.62 43.48L23.05 43.24L22.48 43L21.9 42.78L21.32 42.56L20.74 42.36L20.15 42.17L19.56 41.99L18.96 41.82L18.37 41.67L17.76 41.52L17.16 41.39L16.55 41.26L15.94 41.15L15.33 41.05L14.71 40.97L14.1 40.89L13.48 40.82L12.85 40.77L12.23 40.73L11.6 40.7L10.97 40.68L10.34 40.68L9.83 40.66L9.32 40.63L8.81 40.56L8.32 40.48L7.83 40.37L7.36 40.24L6.89 40.09L6.43 39.91L5.98 39.72L5.55 39.5L5.12 39.27L4.71 39.01L4.31 38.74L3.93 38.45L3.56 38.14L3.2 37.82L2.86 37.48L2.54 37.13L2.23 36.76L1.94 36.37L1.67 35.97L1.41 35.56L1.18 35.14L0.96 34.71L0.77 34.26L0.59 33.8L0.44 33.33L0.31 32.86L0.2 32.37L0.11 31.88L0.05 31.38L0.01 30.87L0 30.35L0 10.32L0.28 9.71L0.57 9.11L0.85 8.53L1.14 7.97L1.43 7.43L1.72 6.91L2.01 6.41L2.31 5.92L2.61 5.46L2.91 5.01L3.21 4.59L3.51 4.18L3.82 3.79L4.12 3.42L4.43 3.07L4.74 2.74L5.06 2.43L5.37 2.13L5.69 1.86L6.01 1.6L6.33 1.37L6.65 1.15L6.98 0.95L7.31 0.77L7.64 0.61L7.97 0.46L8.3 0.34L8.64 0.24L8.97 0.15L9.31 0.09L9.65 0.04L10 0.01L10.34 0L35.66 0L36.17 0.01L36.68 0.05ZM9.86 3.48L9.47 3.51L9.08 3.57L8.69 3.65L8.32 3.75L7.95 3.87L7.6 4.01L7.25 4.17L6.91 4.34L6.59 4.54L6.27 4.75L5.97 4.98L5.69 5.22L5.41 5.48L5.15 5.75L4.91 6.04L4.68 6.34L4.47 6.65L4.27 6.98L4.1 7.31L3.94 7.66L3.8 8.02L3.68 8.38L3.58 8.75L3.5 9.14L3.44 9.53L3.41 9.92L3.4 10.32L3.4 30.43L3.62 30.91L3.84 31.38L4.07 31.82L4.29 32.25L4.52 32.66L4.75 33.05L4.98 33.43L5.22 33.79L5.45 34.13L5.69 34.45L5.93 34.76L6.17 35.05L6.41 35.32L6.66 35.57L6.9 35.81L7.15 36.03L7.4 36.23L7.65 36.41L7.91 36.58L8.16 36.73L8.42 36.86L8.68 36.97L8.94 37.07L9.2 37.15L9.46 37.21L9.73 37.25L10 37.28L10.27 37.29L11.08 37.3L11.9 37.32L12.71 37.37L13.52 37.43L14.32 37.51L15.13 37.61L15.93 37.73L16.72 37.86L17.51 38.02L18.3 38.19L19.08 38.37L19.86 38.58L20.63 38.8L21.4 39.04L22.16 39.3L22.92 39.57L23.67 39.86L24.41 40.17L25.15 40.49L25.88 40.83L26.61 41.19L27.33 41.56L28.04 41.95L28.75 42.36L29.44 42.78L30.13 43.22L30.82 43.67L31.49 44.14L33.96 45.92L33.96 38.98L33.96 38.88L33.97 38.79L33.99 38.69L34.01 38.6L34.03 38.5L34.06 38.41L34.09 38.33L34.13 38.24L34.18 38.16L34.23 38.08L34.28 38L34.34 37.93L34.4 37.86L34.46 37.79L34.53 37.72L34.6 37.66L34.68 37.61L34.75 37.55L34.83 37.51L34.92 37.46L35 37.42L35.09 37.39L35.18 37.36L35.27 37.33L35.37 37.31L35.46 37.3L35.56 37.29L35.66 37.29L36.06 37.28L36.46 37.24L36.85 37.18L37.23 37.11L37.6 37.01L37.97 36.89L38.33 36.75L38.67 36.59L39.01 36.41L39.33 36.22L39.65 36.01L39.95 35.78L40.24 35.53L40.51 35.27L40.77 35L41.01 34.71L41.24 34.41L41.45 34.1L41.65 33.78L41.83 33.44L41.99 33.09L42.13 32.74L42.25 32.37L42.34 32L42.42 31.62L42.48 31.23L42.52 30.83L42.53 30.43L42.53 10.32L42.52 9.92L42.48 9.53L42.42 9.14L42.34 8.75L42.25 8.38L42.13 8.02L41.99 7.66L41.83 7.31L41.65 6.98L41.45 6.65L41.24 6.34L41.01 6.04L40.77 5.75L40.51 5.48L40.24 5.22L39.95 4.98L39.65 4.75L39.33 4.54L39.01 4.34L38.67 4.17L38.33 4.01L37.97 3.87L37.6 3.75L37.23 3.65L36.85 3.57L36.46 3.51L36.06 3.48L35.66 3.47L10.27 3.47L9.86 3.48Z" id="d2EFQkneEn"></path><path d="M17.37 16.26C17.37 17.18 18.14 17.95 19.06 17.95C19.99 17.95 20.76 17.18 20.76 16.26C20.76 14.41 22.77 14.33 23 14.33C23.23 14.33 25.24 14.41 25.24 16.26C25.24 16.29 25.24 16.6 25.24 16.64C25.24 17.41 24.85 18.03 24.16 18.41C24 18.5 22.77 19.18 22.61 19.26C21.77 19.72 21.3 20.57 21.3 21.49C21.3 21.63 21.3 22.74 21.3 22.88C21.3 23.81 22.07 24.58 23 24.58C23.93 24.58 24.7 23.81 24.7 22.88C24.7 22.82 24.7 22.54 24.7 22.03C25.35 21.71 25.71 21.53 25.78 21.49C27.55 20.57 28.63 18.72 28.63 16.72C28.63 16.67 28.63 16.3 28.63 16.26C28.63 12.71 25.78 10.86 23 10.86C20.14 10.86 17.37 12.71 17.37 16.26Z" id="a2S9OJ6JHR"></path><path d="M23 30.82C25.78 30.82 25.78 26.5 23 26.5C20.22 26.5 20.22 30.82 23 30.82Z" id="a2kdYZiIbe"></path></defs><g><g><g><use xlink:href="#d2EFQkneEn" opacity="1" fill="#c3c3c3" fill-opacity="1"></use><g><use xlink:href="#d2EFQkneEn" opacity="1" fill-opacity="0" stroke="#000000" stroke-width="1" stroke-opacity="0"></use></g></g><g><use xlink:href="#a2S9OJ6JHR" opacity="1" fill="#c3c3c3" fill-opacity="1"></use><g><use xlink:href="#a2S9OJ6JHR" opacity="1" fill-opacity="0" stroke="#000000" stroke-width="1" stroke-opacity="0"></use></g></g><g><use xlink:href="#a2kdYZiIbe" opacity="1" fill="#c3c3c3" fill-opacity="1"></use><g><use xlink:href="#a2kdYZiIbe" opacity="1" fill-opacity="0" stroke="#000000" stroke-width="1" stroke-opacity="0"></use></g></g></g></g></svg>