<?xml version="1.0" encoding="UTF-8" standalone="no"?>
<!DOCTYPE svg PUBLIC "-//W3C//DTD SVG 1.1//EN" "http://www.w3.org/Graphics/SVG/1.1/DTD/svg11.dtd">
<svg version="1.1" xmlns="http://www.w3.org/2000/svg" xmlns:xlink="http://www.w3.org/1999/xlink" preserveAspectRatio="xMidYMid meet" viewBox="0 0 23 19" width="23" height="19"><defs><path d="M-39.96 3.96L-35.88 3.96" id="bFqqLJcNw"></path><path d="M-35.9 7.52C-35.9 7.52 -35.9 7.52 -35.9 7.52C-35.9 8.76 -35.9 9.45 -35.9 9.59C-35.9 9.59 -35.9 9.59 -35.9 9.59C-37.16 9.59 -37.85 9.59 -37.99 9.59C-37.99 9.59 -37.99 9.59 -37.99 9.59C-37.99 8.35 -37.99 7.65 -37.99 7.52C-37.99 7.52 -37.99 7.52 -37.99 7.52C-36.74 7.52 -36.04 7.52 -35.9 7.52Z" id="fkO1u4jST"></path><path d="M-36.91 10.56L-34.92 8.59L-34.89 8.62L-36.88 10.59L-36.91 10.56Z" id="a48C5ZkZE9"></path><path d="M19.79 0.11L20.24 0.25L20.67 0.43L21.07 0.65L21.44 0.91L21.78 1.22L22.08 1.56L22.35 1.93L22.57 2.32L22.75 2.75L22.89 3.19L22.97 3.66L23 4.14L23 10.64L22.97 11.12L22.89 11.59L22.75 12.04L22.57 12.47L22.35 12.87L22.08 13.24L21.78 13.58L21.44 13.88L21.07 14.15L20.67 14.38L20.24 14.56L19.79 14.69L19.33 14.77L18.84 14.8L11.83 14.8L9.04 17.64L8.95 17.75L8.84 17.86L8.72 17.98L8.59 18.11L8.44 18.24L8.28 18.36L8.11 18.49L7.92 18.61L7.72 18.71L7.52 18.81L7.29 18.89L7.06 18.95L6.82 18.99L6.56 19L6.55 19L6.39 19L6.23 18.98L6.08 18.96L5.94 18.93L5.81 18.89L5.69 18.85L5.57 18.8L5.46 18.74L5.37 18.68L5.27 18.62L5.19 18.56L5.12 18.5L5.05 18.44L4.98 18.37L4.85 18.22L4.74 18.05L4.64 17.89L4.56 17.72L4.5 17.55L4.45 17.39L4.41 17.23L4.38 17.08L4.37 16.94L4.36 16.82L4.35 16.72L4.35 16.63L4.35 16.57L4.35 16.53L4.35 14.78L4.13 14.77L3.65 14.75L3.18 14.67L2.74 14.53L2.32 14.35L1.92 14.13L1.55 13.86L1.21 13.56L0.91 13.22L0.64 12.85L0.42 12.46L0.24 12.03L0.11 11.59L0.02 11.12L0 10.64L0 4.14L0.02 3.66L0.11 3.19L0.24 2.75L0.42 2.32L0.64 1.93L0.91 1.56L1.21 1.22L1.55 0.91L1.92 0.65L2.32 0.43L2.75 0.25L3.2 0.11L3.67 0.03L4.15 0L18.84 0L19.33 0.03L19.79 0.11ZM3.75 1.87L3.39 2.06L3.07 2.25L2.78 2.45L2.52 2.65L2.3 2.85L2.11 3.06L1.96 3.27L1.84 3.48L1.75 3.7L1.7 3.92L1.68 4.14L1.68 10.64L1.71 10.97L1.77 11.29L1.88 11.59L2.02 11.88L2.2 12.14L2.41 12.37L2.64 12.58L2.9 12.76L3.19 12.9L3.49 13.01L3.81 13.07L4.15 13.1L5.21 13.12L5.32 13.13L5.43 13.15L5.53 13.19L5.63 13.24L5.72 13.3L5.8 13.37L5.87 13.45L5.92 13.54L5.97 13.64L6.01 13.74L6.03 13.85L6.04 13.96L6.04 16.58L6.04 16.62L6.04 16.67L6.04 16.73L6.05 16.79L6.06 16.85L6.07 16.91L6.08 16.97L6.1 17.03L6.12 17.08L6.15 17.13L6.18 17.18L6.21 17.22L6.22 17.23L6.23 17.24L6.24 17.25L6.26 17.26L6.28 17.27L6.3 17.28L6.33 17.29L6.36 17.3L6.4 17.31L6.45 17.32L6.5 17.32L6.55 17.32L6.55 18.16L6.56 17.32L6.68 17.31L6.8 17.29L6.91 17.24L7.03 17.18L7.14 17.11L7.25 17.04L7.35 16.95L7.45 16.86L7.55 16.77L7.64 16.68L7.72 16.59L7.8 16.5L7.96 16.34L10.87 13.37L10.91 13.33L10.95 13.3L11 13.26L11.04 13.23L11.09 13.21L11.14 13.18L11.2 13.17L11.25 13.15L11.3 13.14L11.36 13.13L11.41 13.12L11.47 13.12L18.84 13.12L19.18 13.1L19.5 13.03L19.8 12.92L20.09 12.78L20.35 12.6L20.59 12.39L20.79 12.15L20.97 11.89L21.11 11.6L21.22 11.3L21.29 10.97L21.31 10.64L21.31 4.14L21.29 3.81L21.22 3.49L21.11 3.19L20.97 2.9L20.79 2.64L20.59 2.4L20.35 2.2L20.09 2.02L19.8 1.88L19.5 1.77L19.18 1.71L18.84 1.68L4.15 1.68L3.75 1.87Z" id="b3kK4iMdA"></path><path d="M5.94 6C5.42 6 5 5.77 5 5.5C5 5.22 5.42 5 5.94 5C7.05 5 15.95 5 17.06 5C17.58 5 18 5.22 18 5.5C18 5.77 17.58 6 17.06 6C14.83 6 7.05 6 5.94 6Z" id="g1XfHTxDA0"></path><path d="M5.93 9C5.41 9 5 8.77 5 8.5C5 8.22 5.41 8 5.93 8C6.54 8 11.46 8 12.07 8C12.58 8 13 8.22 13 8.5C13 8.77 12.58 9 12.07 9C10.84 9 6.54 9 5.93 9Z" id="c4o48zsqoO"></path></defs><g><g><g><use xlink:href="#bFqqLJcNw" opacity="1" fill="#000000" fill-opacity="1"></use><g><use xlink:href="#bFqqLJcNw" opacity="1" fill-opacity="0" stroke="#ffffff" stroke-width="1" stroke-opacity="1"></use></g></g><g><use xlink:href="#fkO1u4jST" opacity="1" fill="#000000" fill-opacity="1"></use><g><use xlink:href="#fkO1u4jST" opacity="1" fill-opacity="0" stroke="#000000" stroke-width="1" stroke-opacity="0"></use></g></g><path></path><g><use xlink:href="#a48C5ZkZE9" opacity="1" fill="#000000" fill-opacity="1"></use><g><use xlink:href="#a48C5ZkZE9" opacity="1" fill-opacity="0" stroke="#000000" stroke-width="1" stroke-opacity="0"></use></g></g><g><use xlink:href="#b3kK4iMdA" opacity="1" fill="#ffffff" fill-opacity="1"></use><g><use xlink:href="#b3kK4iMdA" opacity="1" fill-opacity="0" stroke="#000000" stroke-width="1" stroke-opacity="0"></use></g></g><g><use xlink:href="#g1XfHTxDA0" opacity="1" fill="#ffffff" fill-opacity="1"></use><g><use xlink:href="#g1XfHTxDA0" opacity="1" fill-opacity="0" stroke="#000000" stroke-width="1" stroke-opacity="0"></use></g></g><g><use xlink:href="#c4o48zsqoO" opacity="1" fill="#ffffff" fill-opacity="1"></use><g><use xlink:href="#c4o48zsqoO" opacity="1" fill-opacity="0" stroke="#000000" stroke-width="1" stroke-opacity="0"></use></g></g></g></g></svg>