<?xml version="1.0" encoding="UTF-8" standalone="no"?>
<!DOCTYPE svg PUBLIC "-//W3C//DTD SVG 1.1//EN" "http://www.w3.org/Graphics/SVG/1.1/DTD/svg11.dtd">
<svg version="1.1" xmlns="http://www.w3.org/2000/svg" xmlns:xlink="http://www.w3.org/1999/xlink" preserveAspectRatio="xMidYMid meet" viewBox="0 0 20 20" width="20" height="20"><defs><path d="M0 9L12.12 9L12.12 11L0 11L0 9Z" id="c7gIe7kOT"></path><clipPath id="clipb3P87dNzkD"><use xlink:href="#c7gIe7kOT" opacity="1"></use></clipPath><path d="M16.07 9L20 9L20 11L16.07 11L16.07 9Z" id="a4xB0qBdQj"></path><clipPath id="clipb4KEmT9F1S"><use xlink:href="#a4xB0qBdQj" opacity="1"></use></clipPath><path d="M11.12 10C11.12 11.66 12.47 13 14.12 13C15.78 13 17.12 11.66 17.12 10C17.12 8.34 15.78 7 14.12 7C12.47 7 11.12 8.34 11.12 10Z" id="d1bQM2jcgN"></path><clipPath id="cliph1EU03Ywov"><use xlink:href="#d1bQM2jcgN" opacity="1"></use></clipPath><path d="M20 16L7.88 16L7.88 18L20 18L20 16Z" id="b5sJXVbc"></path><clipPath id="clipb3V389QHzZ"><use xlink:href="#b5sJXVbc" opacity="1"></use></clipPath><path d="M3.93 16L0 16L0 18L3.93 18L3.93 16Z" id="bQvDBLKBH"></path><clipPath id="cliphIHv8oBlS"><use xlink:href="#bQvDBLKBH" opacity="1"></use></clipPath><path d="M8.88 17C8.88 18.66 7.53 20 5.88 20C4.22 20 2.88 18.66 2.88 17C2.88 15.35 4.22 14 5.88 14C7.53 14 8.88 15.35 8.88 17Z" id="d9Lynzc2v"></path><clipPath id="clipe5xuxYMPH"><use xlink:href="#d9Lynzc2v" opacity="1"></use></clipPath><path d="M20 2L7.88 2L7.88 4L20 4L20 2Z" id="dfvOakQuB"></path><clipPath id="clipalxvy4nEU"><use xlink:href="#dfvOakQuB" opacity="1"></use></clipPath><path d="M3.93 2L0 2L0 4L3.93 4L3.93 2Z" id="djRkb5wz2"></path><clipPath id="clipa1lSH95Zf9"><use xlink:href="#djRkb5wz2" opacity="1"></use></clipPath><path d="M8.88 3C8.88 4.65 7.53 6 5.88 6C4.22 6 2.88 4.65 2.88 3C2.88 1.34 4.22 0 5.88 0C7.53 0 8.88 1.34 8.88 3Z" id="eMxOll25u"></path><clipPath id="clipb3pbetN4"><use xlink:href="#eMxOll25u" opacity="1"></use></clipPath></defs><g><g><g><g><use xlink:href="#c7gIe7kOT" opacity="1" fill="#ffffff" fill-opacity="0"></use><g clip-path="url(#clipb3P87dNzkD)"><use xlink:href="#c7gIe7kOT" opacity="1" fill-opacity="0" stroke="#ffffff" stroke-width="4" stroke-opacity="1"></use></g></g><g><use xlink:href="#a4xB0qBdQj" opacity="1" fill="#ffffff" fill-opacity="0"></use><g clip-path="url(#clipb4KEmT9F1S)"><use xlink:href="#a4xB0qBdQj" opacity="1" fill-opacity="0" stroke="#ffffff" stroke-width="4" stroke-opacity="1"></use></g></g><g><use xlink:href="#d1bQM2jcgN" opacity="1" fill="#ffffff" fill-opacity="0"></use><g clip-path="url(#cliph1EU03Ywov)"><use xlink:href="#d1bQM2jcgN" opacity="1" fill-opacity="0" stroke="#ffffff" stroke-width="4" stroke-opacity="1"></use></g></g></g><g><g><use xlink:href="#b5sJXVbc" opacity="1" fill="#ffffff" fill-opacity="0"></use><g clip-path="url(#clipb3V389QHzZ)"><use xlink:href="#b5sJXVbc" opacity="1" fill-opacity="0" stroke="#ffffff" stroke-width="4" stroke-opacity="1"></use></g></g><g><use xlink:href="#bQvDBLKBH" opacity="1" fill="#ffffff" fill-opacity="0"></use><g clip-path="url(#cliphIHv8oBlS)"><use xlink:href="#bQvDBLKBH" opacity="1" fill-opacity="0" stroke="#ffffff" stroke-width="4" stroke-opacity="1"></use></g></g><g><use xlink:href="#d9Lynzc2v" opacity="1" fill="#ffffff" fill-opacity="0"></use><g clip-path="url(#clipe5xuxYMPH)"><use xlink:href="#d9Lynzc2v" opacity="1" fill-opacity="0" stroke="#ffffff" stroke-width="4" stroke-opacity="1"></use></g></g></g><g><g><use xlink:href="#dfvOakQuB" opacity="1" fill="#ffffff" fill-opacity="0"></use><g clip-path="url(#clipalxvy4nEU)"><use xlink:href="#dfvOakQuB" opacity="1" fill-opacity="0" stroke="#ffffff" stroke-width="4" stroke-opacity="1"></use></g></g><g><use xlink:href="#djRkb5wz2" opacity="1" fill="#ffffff" fill-opacity="0"></use><g clip-path="url(#clipa1lSH95Zf9)"><use xlink:href="#djRkb5wz2" opacity="1" fill-opacity="0" stroke="#ffffff" stroke-width="4" stroke-opacity="1"></use></g></g><g><use xlink:href="#eMxOll25u" opacity="1" fill="#ffffff" fill-opacity="0"></use><g clip-path="url(#clipb3pbetN4)"><use xlink:href="#eMxOll25u" opacity="1" fill-opacity="0" stroke="#ffffff" stroke-width="4" stroke-opacity="1"></use></g></g></g></g></g></svg>