<?xml version="1.0" encoding="UTF-8" standalone="no"?>
<!DOCTYPE svg PUBLIC "-//W3C//DTD SVG 1.1//EN" "http://www.w3.org/Graphics/SVG/1.1/DTD/svg11.dtd">
<svg version="1.1" xmlns="http://www.w3.org/2000/svg" xmlns:xlink="http://www.w3.org/1999/xlink" preserveAspectRatio="xMidYMid meet" viewBox="0 0 20 20" width="20" height="20"><defs><path d="M0 9L11.97 9L11.97 11L0 11L0 9Z" id="b2f5SfAfB"></path><clipPath id="clipaBVAiFQz"><use xlink:href="#b2f5SfAfB" opacity="1"></use></clipPath><path d="M16.07 9L20 9L20 11L16.07 11L16.07 9Z" id="h3vekoCM1H"></path><clipPath id="clipg5GotjIrLj"><use xlink:href="#h3vekoCM1H" opacity="1"></use></clipPath><path d="M11 10C11 11.66 12.35 13 14 13C15.66 13 17 11.66 17 10C17 8.34 15.66 7 14 7C12.35 7 11 8.34 11 10Z" id="b20ambP6w"></path><clipPath id="clipb3HrwCmld7"><use xlink:href="#b20ambP6w" opacity="1"></use></clipPath><path d="M20 16L7.88 16L7.88 18L20 18L20 16Z" id="b2C2cCrXz2"></path><clipPath id="clipae98i8fVF"><use xlink:href="#b2C2cCrXz2" opacity="1"></use></clipPath><path d="M3.93 16L0 16L0 18L3.93 18L3.93 16Z" id="aK71SJIBs"></path><clipPath id="clipa98TKG21H"><use xlink:href="#aK71SJIBs" opacity="1"></use></clipPath><path d="M8.88 17C8.88 18.66 7.53 20 5.88 20C4.22 20 2.88 18.66 2.88 17C2.88 15.35 4.22 14 5.88 14C7.53 14 8.88 15.35 8.88 17Z" id="kIfNb7XB"></path><clipPath id="clipa8XLjA5E4"><use xlink:href="#kIfNb7XB" opacity="1"></use></clipPath><path d="M20 2L7.88 2L7.88 4L20 4L20 2Z" id="a4RPTv2WIS"></path><clipPath id="clipa1eTVKlrdU"><use xlink:href="#a4RPTv2WIS" opacity="1"></use></clipPath><path d="M3.93 2L0 2L0 4L3.93 4L3.93 2Z" id="c9sRZGrDI"></path><clipPath id="clipe2rgbAU17e"><use xlink:href="#c9sRZGrDI" opacity="1"></use></clipPath><path d="M8.88 3C8.88 4.65 7.53 6 5.88 6C4.22 6 2.88 4.65 2.88 3C2.88 1.34 4.22 0 5.88 0C7.53 0 8.88 1.34 8.88 3Z" id="c2WEBzlBaV"></path><clipPath id="clipavMkgeLc4"><use xlink:href="#c2WEBzlBaV" opacity="1"></use></clipPath></defs><g><g><g><use xlink:href="#b2f5SfAfB" opacity="1" fill="#ffffff" fill-opacity="0"></use><g clip-path="url(#clipaBVAiFQz)"><use xlink:href="#b2f5SfAfB" opacity="1" fill-opacity="0" stroke="#000000" stroke-width="4" stroke-opacity="1"></use></g></g><g><use xlink:href="#h3vekoCM1H" opacity="1" fill="#ffffff" fill-opacity="0"></use><g clip-path="url(#clipg5GotjIrLj)"><use xlink:href="#h3vekoCM1H" opacity="1" fill-opacity="0" stroke="#000000" stroke-width="4" stroke-opacity="1"></use></g></g><g><use xlink:href="#b20ambP6w" opacity="1" fill="#ffffff" fill-opacity="0"></use><g clip-path="url(#clipb3HrwCmld7)"><use xlink:href="#b20ambP6w" opacity="1" fill-opacity="0" stroke="#000000" stroke-width="4" stroke-opacity="1"></use></g></g><g><g><use xlink:href="#b2C2cCrXz2" opacity="1" fill="#ffffff" fill-opacity="0"></use><g clip-path="url(#clipae98i8fVF)"><use xlink:href="#b2C2cCrXz2" opacity="1" fill-opacity="0" stroke="#000000" stroke-width="4" stroke-opacity="1"></use></g></g><g><use xlink:href="#aK71SJIBs" opacity="1" fill="#ffffff" fill-opacity="0"></use><g clip-path="url(#clipa98TKG21H)"><use xlink:href="#aK71SJIBs" opacity="1" fill-opacity="0" stroke="#000000" stroke-width="4" stroke-opacity="1"></use></g></g><g><use xlink:href="#kIfNb7XB" opacity="1" fill="#ffffff" fill-opacity="0"></use><g clip-path="url(#clipa8XLjA5E4)"><use xlink:href="#kIfNb7XB" opacity="1" fill-opacity="0" stroke="#000000" stroke-width="4" stroke-opacity="1"></use></g></g></g><g><g><use xlink:href="#a4RPTv2WIS" opacity="1" fill="#ffffff" fill-opacity="0"></use><g clip-path="url(#clipa1eTVKlrdU)"><use xlink:href="#a4RPTv2WIS" opacity="1" fill-opacity="0" stroke="#000000" stroke-width="4" stroke-opacity="1"></use></g></g><g><use xlink:href="#c9sRZGrDI" opacity="1" fill="#ffffff" fill-opacity="0"></use><g clip-path="url(#clipe2rgbAU17e)"><use xlink:href="#c9sRZGrDI" opacity="1" fill-opacity="0" stroke="#000000" stroke-width="4" stroke-opacity="1"></use></g></g><g><use xlink:href="#c2WEBzlBaV" opacity="1" fill="#ffffff" fill-opacity="0"></use><g clip-path="url(#clipavMkgeLc4)"><use xlink:href="#c2WEBzlBaV" opacity="1" fill-opacity="0" stroke="#000000" stroke-width="4" stroke-opacity="1"></use></g></g></g></g></g></svg>