<?xml version="1.0" encoding="UTF-8" standalone="no"?>
<!DOCTYPE svg PUBLIC "-//W3C//DTD SVG 1.1//EN" "http://www.w3.org/Graphics/SVG/1.1/DTD/svg11.dtd">
<svg version="1.1" xmlns="http://www.w3.org/2000/svg" xmlns:xlink="http://www.w3.org/1999/xlink" preserveAspectRatio="xMidYMid meet" viewBox="0 0 200 200" width="200" height="200"><defs><path d="M145.46 8.68L146.52 8.73L147.57 8.8L148.62 8.9L149.66 9.01L150.7 9.14L151.73 9.3L152.76 9.47L153.78 9.66L154.8 9.87L155.81 10.11L156.81 10.36L157.81 10.63L158.8 10.92L159.78 11.23L160.76 11.56L161.73 11.91L162.69 12.28L163.64 12.66L164.58 13.07L165.52 13.49L166.45 13.93L167.37 14.39L168.27 14.87L169.17 15.37L170.07 15.89L170.95 16.42L171.82 16.98L172.68 17.55L173.53 18.14L174.37 18.74L175.2 19.37L176.01 20.01L176.82 20.67L177.61 21.34L178.4 22.04L179.17 22.75L179.93 23.48L180.67 24.22L182.16 25.87L183.57 27.56L184.91 29.3L186.17 31.07L187.35 32.88L188.46 34.73L189.49 36.61L190.44 38.52L191.32 40.46L192.13 42.43L192.85 44.42L193.51 46.43L194.08 48.46L194.58 50.51L195 52.57L195.35 54.65L195.62 56.73L195.82 58.82L195.94 60.92L195.98 63.02L195.95 65.12L195.84 67.22L195.65 69.32L195.39 71.41L195.06 73.49L194.65 75.56L194.16 77.62L193.59 79.66L192.95 81.69L192.24 83.69L191.45 85.67L190.58 87.63L189.64 89.56L188.62 91.46L187.52 93.33L186.35 95.17L185.1 96.97L183.78 98.73L182.38 100.45L180.91 102.13L100.14 191.36L19.08 102.02L17.61 100.35L16.22 98.63L14.9 96.87L13.65 95.08L12.49 93.25L11.39 91.38L10.38 89.49L9.43 87.56L8.57 85.61L7.78 83.63L7.06 81.64L6.42 79.62L5.86 77.58L5.37 75.53L4.95 73.47L4.62 71.4L4.35 69.32L4.17 67.23L4.06 65.14L4.02 63.05L4.06 60.95L4.17 58.87L4.36 56.78L4.63 54.71L4.97 52.65L5.39 50.6L5.88 48.56L6.45 46.54L7.09 44.54L7.81 42.56L8.61 40.61L9.48 38.68L10.42 36.78L11.44 34.92L12.54 33.08L13.71 31.28L14.96 29.52L16.28 27.8L17.68 26.13L19.15 24.49L19.87 23.74L20.61 23.01L21.36 22.3L22.12 21.6L22.9 20.92L23.69 20.25L24.49 19.61L25.3 18.98L26.13 18.37L26.97 17.78L27.82 17.2L28.69 16.65L29.56 16.11L30.45 15.59L31.35 15.09L32.26 14.61L33.18 14.14L34.11 13.7L35.05 13.27L36 12.86L36.96 12.47L37.93 12.1L38.9 11.75L39.89 11.42L40.89 11.11L41.89 10.82L42.91 10.55L43.93 10.29L44.96 10.06L46 9.84L47.04 9.65L48.09 9.48L49.15 9.32L50.22 9.19L51.29 9.08L52.37 8.98L53.46 8.91L54.55 8.86L55.65 8.83L56.75 8.82L57.78 8.83L58.81 8.85L59.84 8.9L60.86 8.96L61.88 9.05L62.89 9.15L63.9 9.26L64.9 9.4L65.89 9.55L66.88 9.73L67.87 9.91L68.84 10.12L69.81 10.35L70.77 10.59L71.73 10.85L72.67 11.12L73.61 11.41L74.54 11.72L75.47 12.05L76.38 12.4L77.29 12.76L78.19 13.13L79.07 13.53L79.95 13.94L80.82 14.36L81.68 14.81L82.53 15.27L83.37 15.74L84.2 16.23L85.02 16.74L85.83 17.26L86.63 17.8L87.41 18.36L88.19 18.93L88.95 19.52L89.7 20.12L90.44 20.73L91.17 21.37L91.88 22.01L92.58 22.68L99.96 29.76L107.43 22.85L108.19 22.16L108.96 21.49L109.74 20.84L110.52 20.2L111.32 19.57L112.12 18.97L112.94 18.38L113.76 17.8L114.58 17.25L115.42 16.71L116.26 16.19L117.11 15.68L117.97 15.19L118.83 14.72L119.7 14.27L120.58 13.83L121.46 13.41L122.35 13.01L123.25 12.63L124.15 12.26L125.06 11.91L125.98 11.58L126.9 11.26L127.82 10.96L128.76 10.68L129.7 10.42L130.64 10.18L131.59 9.95L132.54 9.74L133.5 9.55L134.46 9.38L135.43 9.22L136.41 9.09L137.38 8.97L138.37 8.87L139.35 8.79L140.34 8.72L141.34 8.68L142.34 8.65L143.34 8.64L144.4 8.65L145.46 8.68ZM141.97 25.58L141.28 25.61L140.61 25.65L139.93 25.71L139.26 25.77L138.6 25.85L137.94 25.94L137.28 26.05L136.62 26.17L135.97 26.29L135.33 26.44L134.68 26.59L134.04 26.75L133.41 26.93L132.78 27.12L132.15 27.32L131.53 27.54L130.91 27.76L130.29 28L129.68 28.25L129.08 28.51L128.47 28.79L127.88 29.08L127.28 29.37L126.69 29.69L126.1 30.01L125.52 30.34L124.94 30.69L124.37 31.05L123.8 31.42L123.24 31.8L122.68 32.2L122.12 32.61L121.57 33.03L121.02 33.46L120.48 33.9L119.94 34.36L119.4 34.82L118.87 35.3L111.43 42.18L99.72 53.01L88.24 41.95L80.86 34.86L80.4 34.43L79.93 34L79.45 33.58L78.96 33.17L78.46 32.78L77.95 32.39L77.44 32.01L76.92 31.65L76.38 31.29L75.85 30.95L75.3 30.61L74.74 30.29L74.18 29.98L73.61 29.67L73.04 29.38L72.45 29.1L71.86 28.83L71.27 28.57L70.67 28.32L70.06 28.09L69.44 27.86L68.82 27.64L68.19 27.44L67.56 27.25L66.92 27.07L66.27 26.89L65.62 26.74L64.97 26.59L64.31 26.45L63.64 26.33L62.97 26.21L62.3 26.11L61.62 26.02L60.94 25.95L60.25 25.88L59.56 25.83L58.86 25.78L58.16 25.75L57.46 25.74L56.76 25.73L56.01 25.74L55.26 25.76L54.52 25.79L53.78 25.84L53.05 25.9L52.32 25.98L51.6 26.06L50.88 26.17L50.17 26.28L49.46 26.41L48.76 26.55L48.06 26.7L47.37 26.87L46.69 27.05L46.01 27.25L45.34 27.45L44.67 27.67L44.01 27.9L43.36 28.15L42.71 28.4L42.07 28.67L41.44 28.96L40.82 29.25L40.2 29.56L39.59 29.87L38.99 30.21L38.4 30.55L37.81 30.9L37.23 31.27L36.66 31.65L36.1 32.04L35.55 32.45L35.01 32.86L34.48 33.29L33.95 33.73L33.44 34.17L32.93 34.64L32.43 35.11L31.95 35.59L31.47 36.09L30.44 37.23L29.46 38.41L28.53 39.62L27.66 40.85L26.84 42.11L26.07 43.4L25.36 44.71L24.69 46.05L24.09 47.4L23.53 48.77L23.03 50.16L22.58 51.57L22.19 52.98L21.84 54.42L21.55 55.86L21.32 57.31L21.13 58.77L21 60.23L20.93 61.7L20.9 63.17L20.93 64.64L21.02 66.11L21.15 67.58L21.34 69.05L21.58 70.51L21.88 71.96L22.22 73.4L22.63 74.84L23.08 76.26L23.59 77.66L24.15 79.05L24.76 80.43L25.43 81.79L26.15 83.12L26.92 84.44L27.75 85.73L28.63 86.99L29.56 88.23L30.54 89.44L31.58 90.62L100.13 166.18L168.37 90.78L169.41 89.59L170.4 88.37L171.34 87.13L172.23 85.85L173.06 84.55L173.83 83.23L174.56 81.88L175.22 80.52L175.84 79.13L176.4 77.73L176.91 76.31L177.36 74.88L177.77 73.44L178.11 71.99L178.41 70.52L178.65 69.05L178.83 67.58L178.97 66.1L179.05 64.61L179.07 63.13L179.04 61.65L178.96 60.17L178.83 58.69L178.64 57.22L178.4 55.76L178.1 54.31L177.75 52.86L177.35 51.43L176.89 50.01L176.38 48.61L175.82 47.23L175.2 45.86L174.53 44.52L173.81 43.19L173.03 41.9L172.2 40.62L171.32 39.37L170.38 38.15L169.39 36.97L168.34 35.81L167.86 35.33L167.36 34.85L166.86 34.39L166.35 33.94L165.83 33.5L165.3 33.07L164.76 32.65L164.21 32.24L163.65 31.84L163.09 31.46L162.52 31.08L161.94 30.72L161.35 30.37L160.76 30.03L160.16 29.7L159.55 29.38L158.94 29.08L158.32 28.78L157.69 28.5L157.06 28.24L156.42 27.98L155.77 27.74L155.12 27.5L154.46 27.28L153.8 27.08L153.13 26.88L152.46 26.7L151.78 26.54L151.1 26.38L150.41 26.24L149.72 26.11L149.03 25.99L148.33 25.89L147.62 25.8L146.92 25.73L146.21 25.66L145.5 25.61L144.78 25.58L144.06 25.56L143.34 25.55L142.65 25.56L141.97 25.58Z" id="bBhF4f1Sg"></path></defs><g><g><g><use xlink:href="#bBhF4f1Sg" opacity="1" fill="#bbbbbb" fill-opacity="1"></use><g><use xlink:href="#bBhF4f1Sg" opacity="1" fill-opacity="0" stroke="#bbbbbb" stroke-width="3" stroke-opacity="1"></use></g></g></g></g></svg>