<?xml version="1.0" encoding="UTF-8" standalone="no"?>
<!DOCTYPE svg PUBLIC "-//W3C//DTD SVG 1.1//EN" "http://www.w3.org/Graphics/SVG/1.1/DTD/svg11.dtd">
<svg version="1.1" xmlns="http://www.w3.org/2000/svg" xmlns:xlink="http://www.w3.org/1999/xlink" preserveAspectRatio="xMidYMid meet" viewBox="0 0 12 12" width="12" height="12"><defs><path d="M8.89 1.02L9.08 1.06L9.28 1.1L9.47 1.16L9.65 1.22L9.83 1.3L10 1.39L10.17 1.49L10.33 1.6L10.48 1.72L10.63 1.86L10.89 2.16L11.11 2.49L11.28 2.85L11.41 3.22L11.48 3.59L11.5 3.98L11.48 4.36L11.41 4.74L11.29 5.11L11.12 5.46L10.91 5.8L10.64 6.12L6.01 11L1.37 6.11L1.1 5.79L0.89 5.46L0.72 5.11L0.6 4.73L0.53 4.36L0.5 3.98L0.53 3.59L0.6 3.22L0.72 2.86L0.89 2.51L1.11 2.17L1.37 1.87L1.51 1.73L1.66 1.61L1.82 1.5L1.98 1.4L2.16 1.31L2.34 1.23L2.52 1.17L2.72 1.11L2.91 1.07L3.11 1.03L3.32 1.02L3.52 1.01L3.72 1.02L3.91 1.03L4.11 1.06L4.29 1.1L4.48 1.14L4.65 1.21L4.82 1.27L4.99 1.36L5.15 1.44L5.3 1.54L5.44 1.65L5.58 1.77L6 2.16L6.43 1.78L6.58 1.66L6.73 1.54L6.89 1.44L7.05 1.35L7.22 1.27L7.39 1.2L7.56 1.14L7.74 1.09L7.92 1.05L8.11 1.02L8.3 1.01L8.49 1L8.69 1.01L8.89 1.02ZM8.14 1.95L7.98 1.98L7.82 2.03L7.67 2.09L7.51 2.16L7.36 2.25L7.23 2.35L7.09 2.46L6.66 2.83L5.99 3.43L5.33 2.82L4.91 2.43L4.78 2.33L4.66 2.24L4.51 2.16L4.37 2.09L4.21 2.04L4.05 1.99L3.88 1.96L3.71 1.94L3.52 1.93L3.34 1.94L3.16 1.97L2.97 2L2.8 2.05L2.64 2.12L2.48 2.19L2.34 2.28L2.2 2.39L2.08 2.5L1.84 2.79L1.66 3.11L1.54 3.46L1.48 3.81L1.48 4.16L1.54 4.52L1.66 4.86L1.84 5.19L2.08 5.49L6.01 9.62L9.92 5.49L10.16 5.19L10.34 4.87L10.47 4.52L10.53 4.16L10.53 3.8L10.47 3.44L10.34 3.11L10.16 2.78L9.92 2.49L9.79 2.37L9.66 2.27L9.51 2.18L9.35 2.11L9.19 2.04L9.02 1.99L8.85 1.96L8.67 1.93L8.49 1.93L8.31 1.93L8.14 1.95Z" id="h2s301HVaC"></path></defs><g><g><g><use xlink:href="#h2s301HVaC" opacity="1" fill="#000000" fill-opacity="1"></use><g><use xlink:href="#h2s301HVaC" opacity="1" fill-opacity="0" stroke="#000000" stroke-width="0.3" stroke-opacity="1"></use></g></g></g></g></svg>