<?xml version="1.0" encoding="UTF-8" standalone="no"?>
<!DOCTYPE svg PUBLIC "-//W3C//DTD SVG 1.1//EN" "http://www.w3.org/Graphics/SVG/1.1/DTD/svg11.dtd">
<svg version="1.1" xmlns="http://www.w3.org/2000/svg" xmlns:xlink="http://www.w3.org/1999/xlink" preserveAspectRatio="xMidYMid meet" viewBox="0 0 13 11" width="13" height="11"><defs><path d="M4.5 0.08L4.9 0.19L5.28 0.34L5.65 0.54L6 0.77L6.33 1.05L6.5 1.22L6.67 1.05L7.35 0.54L8.1 0.19L8.89 0.02L9.71 0.02L10.5 0.19L11.26 0.54L11.93 1.05L12.46 1.71L12.82 2.44L13 3.23L13 4.04L12.82 4.82L12.46 5.56L11.93 6.22L7.2 10.79L7.02 10.92L6.82 11.01L6.61 11.06L6.4 11.06L6.19 11.01L5.99 10.92L5.81 10.79L5.13 10.13L4.45 9.48L3.78 8.83L3.1 8.17L2.42 7.52L1.75 6.87L1.07 6.22L0.53 5.56L0.18 4.83L0 4.04L0 3.23L0.18 2.44L0.53 1.71L1.07 1.05L1.39 0.77L1.74 0.54L2.11 0.34L2.49 0.19L2.89 0.08L3.29 0.02L3.69 0L4.1 0.02L4.5 0.08ZM8.78 2.08L8.52 2.18L8.29 2.32L8.07 2.5L7.19 3.34L6.93 3.52L6.64 3.61L6.35 3.61L6.06 3.52L5.8 3.34L4.93 2.51L4.48 2.19L3.96 2.03L3.43 2.03L2.92 2.19L2.47 2.51L2.14 2.93L1.98 3.4L1.98 3.88L2.14 4.35L2.47 4.77L3.27 5.55L4.08 6.33L4.89 7.11L5.69 7.88L6.5 8.66L10.53 4.77L10.86 4.35L11.02 3.88L11.02 3.39L10.86 2.92L10.53 2.5L10.31 2.32L10.08 2.18L9.83 2.08L9.57 2.02L9.3 2L9.04 2.02L8.78 2.08Z" id="ekiPEME5o"></path></defs><g><g><g><use xlink:href="#ekiPEME5o" opacity="1" fill="#000000" fill-opacity="1"></use><g><use xlink:href="#ekiPEME5o" opacity="1" fill-opacity="0" stroke="#000000" stroke-width="1" stroke-opacity="0"></use></g></g></g></g></svg>