<?xml version="1.0" encoding="UTF-8" standalone="no"?>
<!DOCTYPE svg PUBLIC "-//W3C//DTD SVG 1.1//EN" "http://www.w3.org/Graphics/SVG/1.1/DTD/svg11.dtd">
<svg version="1.1" xmlns="http://www.w3.org/2000/svg" xmlns:xlink="http://www.w3.org/1999/xlink" preserveAspectRatio="xMidYMid meet" viewBox="0 0 13 13" width="13" height="13"><defs><path d="M0 0L3 0L3 3L0 3L0 0Z" id="adSqS56Ap"></path><path d="M0 5L3 5L3 8L0 8L0 5Z" id="a1sA5laPXV"></path><path d="M0 10L3 10L3 13L0 13L0 10Z" id="b3kjZuaewY"></path><path d="M5 0L13 0L13 3L5 3L5 0Z" id="d5hcJODzZK"></path><path d="M5 5L13 5L13 8L5 8L5 5Z" id="c1W8PVFDqt"></path><path d="M5 10L13 10L13 13L5 13L5 10Z" id="a5oB2fYvVl"></path></defs><g><g><g><use xlink:href="#adSqS56Ap" opacity="1" fill="#000000" fill-opacity="1"></use></g><g><use xlink:href="#a1sA5laPXV" opacity="1" fill="#000000" fill-opacity="1"></use></g><g><use xlink:href="#b3kjZuaewY" opacity="1" fill="#000000" fill-opacity="1"></use></g><g><use xlink:href="#d5hcJODzZK" opacity="1" fill="#000000" fill-opacity="1"></use></g><g><use xlink:href="#c1W8PVFDqt" opacity="1" fill="#000000" fill-opacity="1"></use></g><g><use xlink:href="#a5oB2fYvVl" opacity="1" fill="#000000" fill-opacity="1"></use></g></g></g></svg>