<?xml version="1.0" encoding="UTF-8" standalone="no"?>
<!DOCTYPE svg PUBLIC "-//W3C//DTD SVG 1.1//EN" "http://www.w3.org/Graphics/SVG/1.1/DTD/svg11.dtd">
<svg version="1.1" xmlns="http://www.w3.org/2000/svg" xmlns:xlink="http://www.w3.org/1999/xlink" preserveAspectRatio="xMidYMid meet" viewBox="0 0 16 12" width="16" height="12"><defs><path d="M14.32 0.03L14.63 0.1L14.92 0.22L15.18 0.39L15.41 0.59L15.61 0.82L15.78 1.08L15.9 1.37L15.97 1.68L16 2L16 10L15.97 10.32L15.9 10.63L15.78 10.92L15.61 11.18L15.41 11.41L15.18 11.61L14.92 11.78L14.63 11.9L14.32 11.97L14 12L2 12L1.68 11.97L1.37 11.9L1.08 11.78L0.82 11.61L0.59 11.41L0.39 11.18L0.22 10.92L0.1 10.63L0.03 10.32L0 10L0 2L0.03 1.68L0.1 1.37L0.22 1.08L0.39 0.82L0.59 0.59L0.82 0.39L1.08 0.22L1.37 0.1L1.68 0.03L2 0L14 0L14.32 0.03ZM8.12 7.18L8.08 7.19L8.04 7.2L8 7.2L7.96 7.2L7.92 7.19L7.88 7.18L7.84 7.17L0.8 4.2L0.8 10L0.82 10.24L0.89 10.47L1 10.67L1.15 10.85L1.33 11L1.53 11.11L1.76 11.18L2 11.2L14 11.2L14.24 11.18L14.47 11.11L14.67 11L14.85 10.85L15 10.67L15.11 10.47L15.18 10.24L15.2 10L15.2 4.2L8.16 7.17L8.12 7.18ZM1.68 0.84L1.39 0.96L1.15 1.15L0.96 1.39L0.84 1.68L0.8 2L0.8 3.26L8 6.29L15.2 3.26L15.2 2L15.16 1.68L15.04 1.39L14.85 1.15L14.61 0.96L14.32 0.84L14 0.8L2 0.8L1.68 0.84Z" id="b1MByjlY8I"></path></defs><g><g><g><use xlink:href="#b1MByjlY8I" opacity="1" fill="#ffffff" fill-opacity="1"></use><g><use xlink:href="#b1MByjlY8I" opacity="1" fill-opacity="0" stroke="#000000" stroke-width="1" stroke-opacity="0"></use></g></g></g></g></svg>