<?xml version="1.0" encoding="UTF-8" standalone="no"?>
<!DOCTYPE svg PUBLIC "-//W3C//DTD SVG 1.1//EN" "http://www.w3.org/Graphics/SVG/1.1/DTD/svg11.dtd">
<svg version="1.1" xmlns="http://www.w3.org/2000/svg" xmlns:xlink="http://www.w3.org/1999/xlink" preserveAspectRatio="xMidYMid meet" viewBox="0 0 20 25" width="20" height="25"><defs><path d="M12.46 0.3L13.61 0.66L14.7 1.14L15.71 1.74L16.64 2.46L17.47 3.27L18.21 4.17L18.83 5.16L19.33 6.21L19.69 7.33L19.92 8.5L20 9.72L19.85 11.55L19.41 13.32L18.75 15.02L17.92 16.63L16.95 18.14L15.9 19.54L14.82 20.81L13.76 21.93L12.76 22.89L11.88 23.68L11.17 24.28L10.67 24.68L10.43 24.86L10.4 24.88L10.37 24.9L10.34 24.92L10.31 24.93L10.27 24.95L10.24 24.96L10.21 24.97L10.17 24.98L10.14 24.99L10.1 24.99L10.07 25L10.03 25L10 25L9.97 25L9.93 25L9.9 24.99L9.86 24.99L9.83 24.98L9.79 24.97L9.76 24.96L9.73 24.95L9.69 24.93L9.66 24.92L9.63 24.9L9.6 24.88L9.57 24.86L9.33 24.68L8.83 24.28L8.12 23.68L7.24 22.89L6.24 21.93L5.18 20.81L4.1 19.54L3.05 18.14L2.08 16.63L1.25 15.02L0.59 13.32L0.15 11.55L0 9.72L0.08 8.5L0.31 7.33L0.67 6.21L1.17 5.16L1.79 4.17L2.53 3.27L3.36 2.46L4.29 1.74L5.3 1.14L6.39 0.66L7.54 0.3L8.75 0.08L10 0L11.25 0.08L12.46 0.3ZM7.53 1.74L6.39 2.16L5.34 2.73L4.38 3.44L3.53 4.26L2.81 5.19L2.23 6.21L1.79 7.32L1.52 8.49L1.43 9.72L1.59 11.45L2.03 13.13L2.7 14.75L3.55 16.29L4.52 17.74L5.57 19.07L6.63 20.28L7.66 21.33L8.6 22.21L9.4 22.92L10 23.42L10.6 22.92L11.4 22.21L12.34 21.33L13.37 20.28L14.43 19.07L15.48 17.74L16.45 16.29L17.3 14.75L17.97 13.13L18.41 11.45L18.57 9.72L18.48 8.49L18.21 7.32L17.77 6.21L17.19 5.19L16.47 4.26L15.62 3.44L14.66 2.73L13.61 2.16L12.47 1.74L11.26 1.48L10 1.39L8.74 1.48L7.53 1.74Z" id="cXMivDawt"></path><path d="M12.51 4.73L13.57 5.39L14.46 6.25L15.13 7.28L15.56 8.45L15.71 9.72L15.56 10.99L15.13 12.16L14.46 13.19L13.57 14.06L12.51 14.71L11.31 15.13L10 15.28L8.69 15.13L7.49 14.71L6.43 14.06L5.54 13.19L4.87 12.16L4.44 10.99L4.29 9.72L4.44 8.45L4.87 7.28L5.54 6.25L6.43 5.39L7.49 4.73L8.69 4.31L10 4.17L11.31 4.31L12.51 4.73ZM7.47 6.36L6.54 7.26L5.93 8.41L5.71 9.72L5.93 11.04L6.54 12.18L7.47 13.08L8.65 13.68L10 13.89L11.35 13.68L12.53 13.08L13.46 12.18L14.07 11.04L14.29 9.72L14.07 8.41L13.46 7.26L12.53 6.36L11.35 5.77L10 5.56L8.65 5.77L7.47 6.36Z" id="cc2j5Cv9f"></path></defs><g><g><g><use xlink:href="#cXMivDawt" opacity="1" fill="#000000" fill-opacity="1"></use><g><use xlink:href="#cXMivDawt" opacity="1" fill-opacity="0" stroke="#000000" stroke-width="1" stroke-opacity="0"></use></g></g><g><use xlink:href="#cc2j5Cv9f" opacity="1" fill="#000000" fill-opacity="1"></use><g><use xlink:href="#cc2j5Cv9f" opacity="1" fill-opacity="0" stroke="#000000" stroke-width="1" stroke-opacity="0"></use></g></g></g></g></svg>