<?xml version="1.0" encoding="UTF-8" standalone="no"?>
<!DOCTYPE svg PUBLIC "-//W3C//DTD SVG 1.1//EN" "http://www.w3.org/Graphics/SVG/1.1/DTD/svg11.dtd">
<svg version="1.1" xmlns="http://www.w3.org/2000/svg" xmlns:xlink="http://www.w3.org/1999/xlink" preserveAspectRatio="xMidYMid meet" viewBox="0 0 20 25" width="20" height="25"><defs><path d="M12.46 0.29L13.61 0.64L14.7 1.12L15.71 1.71L16.64 2.41L17.47 3.2L18.21 4.09L18.83 5.05L19.33 6.09L19.69 7.18L19.92 8.33L20 9.52L19.88 10.69L19.54 12.04L19.02 13.51L18.33 15.07L17.52 16.65L16.6 18.23L15.62 19.75L14.61 21.16L13.58 22.42L12.58 23.48L11.63 24.29L10.76 24.82L10 25L9.24 24.82L8.37 24.29L7.42 23.48L6.42 22.42L5.39 21.16L4.38 19.75L3.4 18.23L2.48 16.65L1.67 15.07L0.98 13.51L0.46 12.04L0.12 10.69L0 9.52L0.08 8.33L0.31 7.18L0.67 6.09L1.17 5.05L1.79 4.09L2.53 3.2L3.36 2.41L4.29 1.71L5.3 1.12L6.39 0.64L7.54 0.29L8.75 0.07L10 0L11.25 0.07L12.46 0.29ZM7.63 2.75L6.56 3.18L5.57 3.76L4.7 4.48L3.95 5.31L3.34 6.24L2.88 7.27L2.6 8.37L2.5 9.52L2.66 10.84L3.11 12.32L3.79 13.92L4.63 15.55L5.59 17.16L6.6 18.68L7.6 20.05L8.55 21.2L9.36 22.05L10 22.56L10.64 22.05L11.45 21.2L12.4 20.05L13.4 18.68L14.41 17.16L15.37 15.55L16.21 13.92L16.89 12.32L17.34 10.84L17.5 9.52L17.4 8.37L17.12 7.27L16.66 6.24L16.05 5.31L15.3 4.48L14.43 3.76L13.44 3.18L12.37 2.75L11.21 2.47L10 2.38L8.79 2.47L7.63 2.75Z" id="cdcOIOte6"></path><path d="M10 7.14C8.96 7.14 8.13 7.94 8.13 8.93C8.13 9.91 8.96 10.71 10 10.71C11.04 10.71 11.88 9.91 11.88 8.93C11.88 7.94 11.04 7.14 10 7.14Z" id="b5JlzMQm9M"></path></defs><g><g><g><use xlink:href="#cdcOIOte6" opacity="1" fill="#ffffff" fill-opacity="1"></use><g><use xlink:href="#cdcOIOte6" opacity="1" fill-opacity="0" stroke="#000000" stroke-width="1" stroke-opacity="0"></use></g></g><g><use xlink:href="#b5JlzMQm9M" opacity="1" fill="#ffffff" fill-opacity="1"></use><g><use xlink:href="#b5JlzMQm9M" opacity="1" fill-opacity="0" stroke="#000000" stroke-width="1" stroke-opacity="0"></use></g></g></g></g></svg>