<?xml version="1.0" encoding="UTF-8" standalone="no"?>
<!DOCTYPE svg PUBLIC "-//W3C//DTD SVG 1.1//EN" "http://www.w3.org/Graphics/SVG/1.1/DTD/svg11.dtd">
<svg version="1.1" xmlns="http://www.w3.org/2000/svg" xmlns:xlink="http://www.w3.org/1999/xlink" preserveAspectRatio="xMidYMid meet" viewBox="0 0 55 13" width="55" height="13"><defs><path d="M9.03 0.51L10.13 1.11L11.1 1.9L11.89 2.86L12.49 3.97L12.87 5.19L13 6.5L12.87 7.81L12.49 9.03L11.89 10.13L11.1 11.09L10.13 11.89L9.03 12.49L7.81 12.86L6.5 13L5.19 12.86L3.97 12.49L2.87 11.89L1.9 11.09L1.11 10.13L0.51 9.03L0.13 7.81L0 6.5L0.13 5.19L0.51 3.97L1.11 2.86L1.9 1.9L2.87 1.11L3.97 0.51L5.19 0.13L6.5 0L7.81 0.13L9.03 0.51Z" id="a1tBno3NWz"></path><path d="M30.03 0.51L31.13 1.11L32.09 1.9L32.89 2.87L33.49 3.97L33.86 5.19L34 6.5L33.86 7.81L33.49 9.03L32.89 10.13L32.09 11.1L31.13 11.89L30.03 12.49L28.81 12.87L27.5 13L26.19 12.87L24.97 12.49L23.86 11.89L22.9 11.1L22.11 10.13L21.51 9.03L21.13 7.81L21 6.5L21.13 5.19L21.51 3.97L22.11 2.87L22.9 1.9L23.86 1.11L24.97 0.51L26.19 0.13L27.5 0L28.81 0.13L30.03 0.51Z" id="b9tCasRx9"></path><path d="M51.03 0.51L52.13 1.11L53.1 1.9L53.89 2.86L54.49 3.97L54.87 5.19L55 6.5L54.87 7.81L54.49 9.03L53.89 10.13L53.1 11.09L52.13 11.89L51.03 12.49L49.81 12.86L48.5 13L47.19 12.86L45.97 12.49L44.87 11.89L43.9 11.09L43.11 10.13L42.51 9.03L42.13 7.81L42 6.5L42.13 5.19L42.51 3.97L43.11 2.86L43.9 1.9L44.87 1.11L45.97 0.51L47.19 0.13L48.5 0L49.81 0.13L51.03 0.51Z" id="bjUW7w0Tq"></path></defs><g><g><g><use xlink:href="#a1tBno3NWz" opacity="1" fill="#ffffff" fill-opacity="1"></use><g><use xlink:href="#a1tBno3NWz" opacity="1" fill-opacity="0" stroke="#000000" stroke-width="1" stroke-opacity="0"></use></g></g><g><use xlink:href="#b9tCasRx9" opacity="1" fill="#ffffff" fill-opacity="1"></use><g><use xlink:href="#b9tCasRx9" opacity="1" fill-opacity="0" stroke="#000000" stroke-width="1" stroke-opacity="0"></use></g></g><g><use xlink:href="#bjUW7w0Tq" opacity="1" fill="#ffffff" fill-opacity="1"></use><g><use xlink:href="#bjUW7w0Tq" opacity="1" fill-opacity="0" stroke="#000000" stroke-width="1" stroke-opacity="0"></use></g></g></g></g></svg>