<?xml version="1.0" encoding="UTF-8" standalone="no"?>
<!DOCTYPE svg PUBLIC "-//W3C//DTD SVG 1.1//EN" "http://www.w3.org/Graphics/SVG/1.1/DTD/svg11.dtd">
<svg version="1.1" xmlns="http://www.w3.org/2000/svg" xmlns:xlink="http://www.w3.org/1999/xlink" preserveAspectRatio="xMidYMid meet" viewBox="0 0 16 16" width="16" height="16"><defs><path d="M13.55 0L13.57 0.01L13.6 0.01L13.62 0.02L13.65 0.03L13.67 0.04L13.69 0.05L13.72 0.07L13.74 0.08L13.79 0.13L13.83 0.18L13.86 0.23L13.88 0.29L13.89 0.35L13.9 0.41L13.89 0.47L13.88 0.54L13.85 0.59L13.82 0.65L10.46 5.03L13.59 5.03L13.64 5.03L13.69 5.04L13.73 5.05L13.78 5.07L13.82 5.09L13.86 5.12L13.89 5.16L13.92 5.19L13.95 5.23L13.97 5.28L13.98 5.32L13.99 5.37L14 5.42L14 5.46L13.99 5.51L13.98 5.56L13.96 5.6L13.94 5.64L13.91 5.68L13.88 5.72L3.69 15.88L3.65 15.92L3.61 15.94L3.57 15.96L3.53 15.98L3.48 15.99L3.43 16L3.39 16L3.34 16L3.29 15.98L3.25 15.97L3.19 15.94L3.14 15.9L3.09 15.85L3.06 15.8L3.03 15.75L3.01 15.69L3 15.63L3 15.56L3.01 15.5L3.03 15.44L5.97 8.56L4.33 8.56L4.32 8.55L4.3 8.55L4.29 8.55L4.27 8.55L4.25 8.55L4.24 8.54L4.22 8.54L4.21 8.53L4.19 8.53L4.18 8.52L4.12 8.49L4.07 8.46L4.02 8.41L3.99 8.36L3.96 8.3L3.94 8.25L3.93 8.18L3.93 8.12L3.94 8.06L3.96 7.99L7.21 0.25L7.23 0.21L7.26 0.17L7.29 0.13L7.32 0.1L7.36 0.07L7.4 0.04L7.45 0.03L7.49 0.01L7.54 0L7.59 0L13.49 0L13.52 0L13.55 0ZM4.94 7.74L6.59 7.74L6.61 7.74L6.63 7.74L6.65 7.74L6.67 7.75L6.69 7.75L6.71 7.76L6.73 7.76L6.75 7.77L6.82 7.81L6.88 7.86L6.93 7.92L6.97 7.99L6.99 8.07L7 8.14L6.99 8.22L6.96 8.3L4.6 13.82L12.61 5.83L9.63 5.83L9.6 5.83L9.57 5.83L9.54 5.82L9.5 5.81L9.47 5.8L9.44 5.79L9.42 5.77L9.39 5.75L9.33 5.7L9.28 5.63L9.25 5.56L9.23 5.48L9.23 5.41L9.24 5.33L9.27 5.25L9.31 5.18L12.67 0.81L7.86 0.81L4.94 7.74Z" id="c23u9kLLm"></path></defs><g><g><g><use xlink:href="#c23u9kLLm" opacity="1" fill="#5f5be4" fill-opacity="1"></use><g><use xlink:href="#c23u9kLLm" opacity="1" fill-opacity="0" stroke="#000000" stroke-width="1" stroke-opacity="0"></use></g></g></g></g></svg>