<?xml version="1.0" encoding="UTF-8" standalone="no"?>
<!DOCTYPE svg PUBLIC "-//W3C//DTD SVG 1.1//EN" "http://www.w3.org/Graphics/SVG/1.1/DTD/svg11.dtd">
<svg version="1.1" xmlns="http://www.w3.org/2000/svg" xmlns:xlink="http://www.w3.org/1999/xlink" preserveAspectRatio="xMidYMid meet" viewBox="0 0 16 16" width="16" height="16"><defs><path d="M4.35 0.11L4.6 0.23L4.83 0.41L5.02 0.65L6.52 3.08L6.64 3.31L6.74 3.55L6.81 3.79L6.86 4.04L6.88 4.28L6.86 4.52L6.8 4.76L6.71 4.98L6.57 5.19L6.39 5.39L5.64 6.2L6.15 6.78L6.63 7.33L7.09 7.84L7.53 8.31L7.95 8.75L8.35 9.15L8.73 9.51L9.1 9.84L9.44 10.13L9.76 10.38L10.57 9.57L10.77 9.41L10.98 9.28L11.2 9.19L11.44 9.13L11.68 9.11L11.92 9.12L12.17 9.16L12.41 9.23L12.65 9.33L12.88 9.45L15.31 11.01L15.56 11.2L15.75 11.42L15.89 11.68L15.97 11.95L16 12.24L15.98 12.53L15.92 12.82L15.8 13.09L15.64 13.34L15.44 13.57L15.27 13.74L15.09 13.91L14.92 14.09L14.74 14.27L14.56 14.45L14.38 14.63L14.21 14.82L14.03 15L13.86 15.19L13.69 15.38L12.9 15.87L11.98 16L10.97 15.84L9.91 15.44L8.83 14.86L7.78 14.17L6.79 13.42L5.9 12.67L5.15 12L4.58 11.44L4.02 10.87L3.32 10.12L2.57 9.22L1.82 8.23L1.12 7.17L0.55 6.09L0.15 5.02L0 4.02L0.14 3.11L0.65 2.33L0.82 2.15L1 1.96L1.17 1.77L1.35 1.59L1.53 1.4L1.71 1.22L1.88 1.04L2.06 0.87L2.23 0.69L2.4 0.52L2.64 0.34L2.91 0.19L3.19 0.08L3.48 0.02L3.78 0L4.07 0.03L4.35 0.11ZM3.46 0.85L3.3 0.91L3.16 0.99L3.02 1.08L2.82 1.29L2.62 1.5L2.42 1.71L2.22 1.91L2.02 2.11L1.82 2.31L1.62 2.51L1.42 2.71L1.22 2.89L0.83 4.1L1.32 5.78L2.5 7.76L4.17 9.83L6.14 11.8L8.21 13.47L10.18 14.65L11.86 15.14L13.07 14.75L13.27 14.56L13.47 14.37L13.67 14.17L13.87 13.97L14.07 13.77L14.27 13.56L14.47 13.36L14.67 13.15L14.87 12.94L14.99 12.83L15.08 12.69L15.14 12.54L15.17 12.38L15.18 12.21L15.15 12.06L15.09 11.92L15 11.79L14.87 11.69L12.44 10.2L12.29 10.1L12.14 10.03L11.99 9.97L11.84 9.94L11.69 9.94L11.54 9.96L11.4 10.01L11.26 10.09L11.13 10.2L9.88 11.44L9.19 10.95L8.53 10.43L7.88 9.89L7.27 9.32L6.68 8.73L6.11 8.11L5.56 7.47L5.03 6.82L4.52 6.14L5.83 4.83L5.92 4.7L5.99 4.56L6.02 4.42L6.04 4.27L6.04 4.12L6.01 3.97L5.97 3.82L5.91 3.67L5.83 3.52L4.27 1.08L4.18 0.96L4.06 0.87L3.92 0.82L3.77 0.8L3.62 0.81L3.46 0.85Z" id="cotfKl01r"></path></defs><g><g><g><use xlink:href="#cotfKl01r" opacity="1" fill="#ffffff" fill-opacity="1"></use><g><use xlink:href="#cotfKl01r" opacity="1" fill-opacity="0" stroke="#000000" stroke-width="1" stroke-opacity="0"></use></g></g></g></g></svg>