<?xml version="1.0" encoding="UTF-8" standalone="no"?>
<!DOCTYPE svg PUBLIC "-//W3C//DTD SVG 1.1//EN" "http://www.w3.org/Graphics/SVG/1.1/DTD/svg11.dtd">
<svg version="1.1" xmlns="http://www.w3.org/2000/svg" xmlns:xlink="http://www.w3.org/1999/xlink" preserveAspectRatio="xMidYMid meet" viewBox="0 0 50 50" width="50" height="50"><defs><path d="M15.69 34.32C11.76 30.39 9.66 26.08 11.02 24.72C11.45 24.29 13.61 22.13 17.49 18.25L6.74 7.51C3.53 10.72 1.74 12.51 1.38 12.87C-2.57 16.81 2.23 28.03 12.12 37.89C22 47.77 33.2 52.57 37.15 48.61C37.5 48.25 39.29 46.47 42.51 43.25L31.77 32.53L25.3 39C21.53 38.51 18.32 36.95 15.69 34.32Z" id="b4luv8tK0W"></path><path d="M25 5C36.03 5 45 13.97 45 25C45.5 25 49.5 25 50 25C50 11.19 38.8 0 25 0C25 1 25 4.5 25 5Z" id="a1XSMar6UN"></path><path d="M40 25C40 16.73 33.26 10 25 10C25 10.5 25 14.5 25 15C30.52 15 35 19.48 35 25C36 25 39.5 25 40 25Z" id="a4qtqe6Xt"></path></defs><g><g><g><use xlink:href="#b4luv8tK0W" opacity="1" fill="#000000" fill-opacity="1"></use><g><use xlink:href="#b4luv8tK0W" opacity="1" fill-opacity="0" stroke="#000000" stroke-width="1" stroke-opacity="0"></use></g></g><g><use xlink:href="#a1XSMar6UN" opacity="1" fill="#000000" fill-opacity="1"></use><g><use xlink:href="#a1XSMar6UN" opacity="1" fill-opacity="0" stroke="#000000" stroke-width="1" stroke-opacity="0"></use></g></g><g><use xlink:href="#a4qtqe6Xt" opacity="1" fill="#000000" fill-opacity="1"></use><g><use xlink:href="#a4qtqe6Xt" opacity="1" fill-opacity="0" stroke="#000000" stroke-width="1" stroke-opacity="0"></use></g></g></g></g></svg>