<?xml version="1.0" encoding="UTF-8" standalone="no"?>
<!DOCTYPE svg PUBLIC "-//W3C//DTD SVG 1.1//EN" "http://www.w3.org/Graphics/SVG/1.1/DTD/svg11.dtd">
<svg version="1.1" xmlns="http://www.w3.org/2000/svg" xmlns:xlink="http://www.w3.org/1999/xlink" preserveAspectRatio="xMidYMid meet" viewBox="0 0 22 26" width="22" height="26"><defs><path d="M2.34 0.23C1.87 -0.06 1.28 -0.08 0.79 0.19C0.31 0.46 0 0.97 0 1.51C0 3.81 0 22.19 0 24.49C0 25.03 0.31 25.54 0.79 25.81C1.02 25.94 1.28 26 1.53 26C1.81 26 2.09 25.92 2.33 25.77C4.19 24.62 19.05 15.44 20.91 14.29C21.36 14.01 21.63 13.53 21.63 13C21.62 12.47 21.36 12 20.9 11.72C17.19 9.42 4.2 1.38 2.34 0.23Z" id="b4gavpjWd9"></path></defs><g><g><g><use xlink:href="#b4gavpjWd9" opacity="1" fill="#ffffff" fill-opacity="1"></use><g><use xlink:href="#b4gavpjWd9" opacity="1" fill-opacity="0" stroke="#000000" stroke-width="1" stroke-opacity="0"></use></g></g></g></g></svg>