<?xml version="1.0" encoding="UTF-8" standalone="no"?>
<!DOCTYPE svg PUBLIC "-//W3C//DTD SVG 1.1//EN" "http://www.w3.org/Graphics/SVG/1.1/DTD/svg11.dtd">
<svg version="1.1" xmlns="http://www.w3.org/2000/svg" xmlns:xlink="http://www.w3.org/1999/xlink" preserveAspectRatio="xMidYMid meet" viewBox="0 0 19 19" width="19" height="19"><defs><path d="M9.58 0.01L9.63 0.02L9.69 0.03L9.74 0.05L9.78 0.07L9.83 0.1L9.87 0.13L9.91 0.17L9.95 0.21L9.98 0.25L10.01 0.3L10.04 0.35L10.06 0.4L10.07 0.45L11.74 6.74L18.41 6.74L18.46 6.74L18.52 6.75L18.57 6.77L18.62 6.78L18.67 6.8L18.72 6.83L18.76 6.86L18.8 6.89L18.84 6.93L18.87 6.97L18.9 7.02L18.93 7.07L18.96 7.12L18.97 7.17L18.99 7.22L19 7.28L19 7.34L19 7.39L19 7.45L18.99 7.5L18.97 7.55L18.95 7.6L18.93 7.65L18.9 7.7L18.87 7.74L18.83 7.78L18.79 7.82L18.75 7.86L13.47 11.7L15.99 18.16L16.01 18.21L16.02 18.27L16.03 18.32L16.03 18.38L16.03 18.43L16.03 18.49L16.01 18.54L16 18.6L15.98 18.65L15.95 18.7L15.92 18.74L15.89 18.79L15.85 18.83L15.81 18.87L15.76 18.9L15.72 18.93L15.67 18.95L15.62 18.97L15.56 18.99L15.51 19L15.46 19L15.4 19L15.35 18.99L15.3 18.98L15.25 18.97L15.2 18.95L15.15 18.92L15.1 18.89L9.5 14.85L3.9 18.89L3.88 18.91L3.86 18.92L3.84 18.93L3.81 18.94L3.79 18.95L3.76 18.96L3.74 18.97L3.72 18.98L3.69 18.99L3.67 18.99L3.64 19L3.62 19L3.59 19L3.56 19L3.54 19L3.51 19L3.48 18.99L3.45 18.99L3.42 18.98L3.4 18.98L3.37 18.97L3.34 18.96L3.32 18.95L3.29 18.93L3.27 18.92L3.24 18.9L3.22 18.89L3.19 18.87L3.15 18.83L3.11 18.79L3.08 18.74L3.05 18.7L3.03 18.65L3.01 18.6L2.99 18.54L2.98 18.49L2.97 18.43L2.97 18.38L2.97 18.32L2.98 18.27L3 18.21L3.01 18.16L5.54 11.7L0.25 7.86L0.21 7.82L0.17 7.78L0.13 7.74L0.1 7.7L0.08 7.65L0.05 7.6L0.03 7.55L0.02 7.5L0.01 7.45L0 7.39L0 7.34L0.01 7.28L0.02 7.22L0.03 7.17L0.05 7.12L0.07 7.07L0.1 7.02L0.13 6.97L0.17 6.93L0.2 6.89L0.24 6.86L0.29 6.83L0.33 6.8L0.38 6.78L0.43 6.77L0.49 6.75L0.54 6.74L0.6 6.74L6.74 6.74L8.94 0.41L8.96 0.35L8.99 0.3L9.02 0.26L9.05 0.21L9.09 0.17L9.12 0.14L9.17 0.1L9.21 0.07L9.26 0.05L9.31 0.03L9.36 0.02L9.41 0.01L9.47 0L9.53 0L9.58 0.01ZM7.69 7.63L7.65 7.69L7.62 7.74L7.57 7.79L7.52 7.84L7.47 7.87L7.41 7.91L7.35 7.93L7.29 7.95L7.22 7.96L7.15 7.97L2.47 7.97L6.61 10.98L6.66 11.03L6.71 11.08L6.76 11.14L6.79 11.2L6.82 11.27L6.84 11.34L6.85 11.41L6.86 11.49L6.85 11.56L6.84 11.63L6.81 11.71L4.86 16.7L9.16 13.59L9.22 13.56L9.28 13.53L9.34 13.51L9.4 13.49L9.47 13.49L9.53 13.49L9.6 13.49L9.66 13.51L9.72 13.53L9.78 13.56L9.84 13.59L14.14 16.7L12.19 11.71L12.17 11.63L12.15 11.56L12.15 11.49L12.15 11.41L12.16 11.34L12.18 11.27L12.21 11.2L12.25 11.14L12.29 11.08L12.34 11.03L12.4 10.98L16.54 7.97L11.28 7.97L11.21 7.96L11.14 7.95L11.07 7.93L11.01 7.9L10.95 7.86L10.9 7.82L10.85 7.77L10.8 7.71L10.76 7.65L10.73 7.59L10.71 7.52L9.42 2.65L7.71 7.56L7.69 7.63Z" id="a3wHOc79w"></path></defs><g><g><g><use xlink:href="#a3wHOc79w" opacity="1" fill="#ffa400" fill-opacity="1"></use><g><use xlink:href="#a3wHOc79w" opacity="1" fill-opacity="0" stroke="#000000" stroke-width="1" stroke-opacity="0"></use></g></g></g></g></svg>