<?xml version="1.0" encoding="UTF-8" standalone="no"?>
<!DOCTYPE svg PUBLIC "-//W3C//DTD SVG 1.1//EN" "http://www.w3.org/Graphics/SVG/1.1/DTD/svg11.dtd">
<svg version="1.1" xmlns="http://www.w3.org/2000/svg" xmlns:xlink="http://www.w3.org/1999/xlink" preserveAspectRatio="xMidYMid meet" viewBox="0 0 51 36" width="51" height="36"><defs><path d="M41.27 0.15L42.13 0.32L42.96 0.56L43.77 0.86L44.55 1.23L45.29 1.65L46.01 2.12L46.68 2.65L47.32 3.22L47.91 3.84L48.47 4.51L48.97 5.21L49.42 5.96L49.83 6.74L50.17 7.55L50.46 8.39L50.69 9.26L50.86 10.15L50.97 11.07L51 12L50.93 13.88L50.73 15.72L50.39 17.51L49.93 19.25L49.36 20.93L48.66 22.56L47.86 24.12L46.95 25.61L45.95 27.02L44.85 28.34L43.66 29.58L42.39 30.73L41.04 31.78L39.61 32.73L38.12 33.56L36.56 34.29L34.94 34.89L33.28 35.37L31.56 35.72L29.8 35.93L28 36L28.05 35.98L28.2 35.92L28.43 35.81L28.74 35.66L29.13 35.46L29.58 35.21L30.1 34.91L30.66 34.55L31.27 34.13L31.92 33.66L32.6 33.13L33.3 32.53L34.01 31.87L34.74 31.14L35.46 30.34L36.18 29.48L36.89 28.54L37.58 27.52L38.24 26.43L38.86 25.26L39.44 24L38.55 23.97L37.67 23.86L36.82 23.68L35.99 23.44L35.18 23.14L34.41 22.78L33.66 22.36L32.96 21.88L32.28 21.36L31.65 20.78L31.06 20.16L30.51 19.5L30.01 18.79L29.56 18.05L29.16 17.27L28.82 16.46L28.53 15.61L28.3 14.75L28.14 13.85L28.03 12.94L28 12L28.03 11.07L28.14 10.15L28.31 9.26L28.54 8.39L28.83 7.55L29.17 6.74L29.58 5.96L30.03 5.21L30.53 4.51L31.09 3.84L31.68 3.22L32.32 2.65L32.99 2.12L33.71 1.65L34.45 1.23L35.23 0.86L36.04 0.56L36.87 0.32L37.73 0.15L38.6 0.04L39.5 0L40.4 0.04L41.27 0.15Z" id="a1S9GM7nVd"></path><path d="M13.27 0.15L14.12 0.32L14.96 0.56L15.76 0.86L16.54 1.23L17.29 1.65L18 2.12L18.68 2.65L19.31 3.22L19.91 3.84L20.46 4.51L20.96 5.21L21.42 5.96L21.82 6.74L22.17 7.55L22.46 8.39L22.69 9.26L22.86 10.15L22.96 11.07L23 12L22.93 13.88L22.72 15.72L22.39 17.51L21.93 19.25L21.35 20.93L20.66 22.56L19.86 24.12L18.95 25.61L17.94 27.02L16.84 28.34L15.66 29.58L14.38 30.73L13.03 31.78L11.61 32.73L10.11 33.56L8.56 34.29L6.94 34.89L5.27 35.37L3.55 35.72L1.79 35.93L0 36L0.05 35.98L0.19 35.92L0.42 35.81L0.74 35.66L1.13 35.46L1.58 35.21L2.09 34.91L2.66 34.55L3.27 34.13L3.92 33.66L4.59 33.13L5.29 32.53L6.01 31.87L6.73 31.14L7.46 30.34L8.18 29.48L8.89 28.54L9.57 27.52L10.23 26.43L10.86 25.26L11.44 24L10.54 23.97L9.67 23.86L8.81 23.68L7.98 23.44L7.18 23.14L6.4 22.78L5.66 22.36L4.95 21.88L4.28 21.36L3.65 20.78L3.05 20.16L2.51 19.5L2.01 18.79L1.56 18.05L1.16 17.27L0.81 16.46L0.53 15.61L0.3 14.75L0.13 13.85L0.03 12.94L0 12L0.03 11.07L0.13 10.15L0.3 9.26L0.53 8.39L0.82 7.55L1.17 6.74L1.57 5.96L2.03 5.21L2.53 4.51L3.08 3.84L3.68 3.22L4.31 2.65L4.99 2.12L5.7 1.65L6.45 1.23L7.23 0.86L8.03 0.56L8.87 0.32L9.72 0.15L10.6 0.04L11.5 0L12.39 0.04L13.27 0.15Z" id="d25mQcG320"></path></defs><g><g><g><use xlink:href="#a1S9GM7nVd" opacity="1" fill="#ffffff" fill-opacity="1"></use><g><use xlink:href="#a1S9GM7nVd" opacity="1" fill-opacity="0" stroke="#000000" stroke-width="1" stroke-opacity="0"></use></g></g><g><use xlink:href="#d25mQcG320" opacity="1" fill="#ffffff" fill-opacity="1"></use><g><use xlink:href="#d25mQcG320" opacity="1" fill-opacity="0" stroke="#000000" stroke-width="1" stroke-opacity="0"></use></g></g></g></g></svg>