<?xml version="1.0" encoding="UTF-8" standalone="no"?>
<!DOCTYPE svg PUBLIC "-//W3C//DTD SVG 1.1//EN" "http://www.w3.org/Graphics/SVG/1.1/DTD/svg11.dtd">
<svg version="1.1" xmlns="http://www.w3.org/2000/svg" xmlns:xlink="http://www.w3.org/1999/xlink" preserveAspectRatio="xMidYMid meet" viewBox="0 0 30 28" width="30" height="28"><defs><path d="M26.67 18.13C26.01 18.13 20.69 18.13 20.03 18.13C19.61 18.13 19.33 18.46 19.33 18.83C19.33 19.46 19.33 24.48 19.33 25.1C19.33 27.94 16.38 28.08 14.95 27.99C14.53 27.94 14.26 27.61 14.3 27.2C14.72 19.06 10.66 16.46 8.54 15.67C7.8 15.39 7.34 14.69 7.34 13.9C7.34 12.88 7.34 4.74 7.34 3.72C7.34 0 11.03 0 11.03 0C12.32 0 22.66 0 23.95 0C25.79 0 27.64 1.4 27.32 2.7C27.22 3.07 27.32 3.44 27.45 3.77C27.51 3.87 27.95 4.69 28.01 4.79C28.24 5.26 28.28 5.77 28.01 6.23C27.78 6.7 27.78 7.26 28.05 7.72C28.13 7.84 28.72 8.81 28.79 8.93C29.02 9.25 29.07 9.67 28.98 10.04C28.95 10.17 28.73 11.17 28.7 11.3C28.56 11.81 28.75 12.32 29.07 12.69C29.12 12.74 29.48 13.11 29.53 13.16C29.76 13.39 29.9 13.72 29.95 14.04C30.45 17.48 27.22 18.04 26.76 18.13C26.72 18.13 26.72 18.13 26.67 18.13Z" id="c1hJJpfYtI"></path><path d="M1.61 16.27C0.69 16.27 0 15.53 0 14.65C0 13.35 0 2.98 0 1.68C0 0.75 0.74 0.05 1.61 0.05C1.93 0.05 4.48 0.05 4.8 0.05C5.72 0.05 6.41 0.8 6.41 1.68C6.41 2.98 6.41 13.35 6.41 14.65C6.41 15.53 5.68 16.27 4.8 16.27C4.16 16.27 1.93 16.27 1.61 16.27Z" id="a1pY9JQqO"></path></defs><g><g><g><use xlink:href="#c1hJJpfYtI" opacity="1" fill="#727272" fill-opacity="1"></use><g><use xlink:href="#c1hJJpfYtI" opacity="1" fill-opacity="0" stroke="#000000" stroke-width="1" stroke-opacity="0"></use></g></g><g><use xlink:href="#a1pY9JQqO" opacity="1" fill="#727272" fill-opacity="1"></use><g><use xlink:href="#a1pY9JQqO" opacity="1" fill-opacity="0" stroke="#000000" stroke-width="1" stroke-opacity="0"></use></g></g></g></g></svg>