<?xml version="1.0" encoding="UTF-8" standalone="no"?>
<!DOCTYPE svg PUBLIC "-//W3C//DTD SVG 1.1//EN" "http://www.w3.org/Graphics/SVG/1.1/DTD/svg11.dtd">
<svg version="1.1" xmlns="http://www.w3.org/2000/svg" xmlns:xlink="http://www.w3.org/1999/xlink" preserveAspectRatio="xMidYMid meet" viewBox="0 0 30 28" width="15" height="14"><defs><path d="M26.67 9.88C26.01 9.88 20.69 9.88 20.03 9.88C19.61 9.88 19.33 9.55 19.33 9.18C19.33 8.55 19.33 3.53 19.33 2.91C19.33 0.07 16.38 -0.07 14.95 0.02C14.53 0.07 14.26 0.4 14.3 0.81C14.72 8.95 10.66 11.55 8.54 12.34C7.8 12.62 7.34 13.32 7.34 14.11C7.34 15.13 7.34 23.27 7.34 24.29C7.34 28 11.03 28 11.03 28C12.32 28 22.66 28 23.95 28C25.79 28 27.64 26.61 27.32 25.31C27.22 24.94 27.32 24.57 27.45 24.24C27.51 24.14 27.95 23.32 28.01 23.22C28.24 22.75 28.28 22.24 28.01 21.78C27.78 21.31 27.78 20.75 28.05 20.29C28.13 20.17 28.72 19.2 28.79 19.08C29.02 18.76 29.07 18.34 28.98 17.97C28.95 17.84 28.73 16.84 28.7 16.71C28.56 16.2 28.75 15.69 29.07 15.32C29.12 15.27 29.48 14.9 29.53 14.85C29.76 14.62 29.9 14.29 29.95 13.97C30.45 10.53 27.22 9.97 26.76 9.88C26.72 9.88 26.72 9.88 26.67 9.88Z" id="au5LfWVrf"></path><path d="M1.61 11.74C0.69 11.74 0 12.48 0 13.36C0 14.66 0 25.03 0 26.33C0 27.26 0.74 27.96 1.61 27.96C1.93 27.96 4.48 27.96 4.8 27.96C5.72 27.96 6.41 27.21 6.41 26.33C6.41 25.03 6.41 14.66 6.41 13.36C6.41 12.48 5.68 11.74 4.8 11.74C4.16 11.74 1.93 11.74 1.61 11.74Z" id="dWG7mapJ5"></path></defs><g><g><g><use xlink:href="#au5LfWVrf" opacity="1" fill="#727272" fill-opacity="1"></use><g><use xlink:href="#au5LfWVrf" opacity="1" fill-opacity="0" stroke="#000000" stroke-width="1" stroke-opacity="0"></use></g></g><g><use xlink:href="#dWG7mapJ5" opacity="1" fill="#727272" fill-opacity="1"></use><g><use xlink:href="#dWG7mapJ5" opacity="1" fill-opacity="0" stroke="#000000" stroke-width="1" stroke-opacity="0"></use></g></g></g></g></svg>