<?xml version="1.0" encoding="UTF-8" standalone="no"?>
<!DOCTYPE svg PUBLIC "-//W3C//DTD SVG 1.1//EN" "http://www.w3.org/Graphics/SVG/1.1/DTD/svg11.dtd">
<svg version="1.1" xmlns="http://www.w3.org/2000/svg" xmlns:xlink="http://www.w3.org/1999/xlink" preserveAspectRatio="xMidYMid meet" viewBox="0 0 20 25" width="20" height="25"><defs><path d="M18.06 24.52C17.64 23.87 14.28 18.71 13.86 18.06C13.55 17.55 13.71 16.89 14.21 16.58C14.69 16.29 15.3 16.42 15.62 16.87C16.04 17.52 19.4 22.68 19.82 23.33C20.15 23.82 20.02 24.49 19.53 24.82C19.36 24.94 19.15 25 18.94 25C18.59 25 18.26 24.82 18.06 24.52Z" id="aovtfOsBt"></path><path d="M11.84 0.19L13.13 0.55L14.34 1.08L15.44 1.75L16.45 2.55L17.33 3.47L18.09 4.49L18.72 5.61L19.2 6.8L19.54 8.05L19.71 9.35L19.71 10.69L19.52 12.04L19.23 13.18L18.81 14.25L18.28 15.26L17.64 16.19L16.91 17.04L16.1 17.8L15.2 18.46L14.24 19.02L13.22 19.46L12.14 19.79L11.02 19.99L9.86 20.06L9.69 20.06L9.53 20.06L9.36 20.05L9.19 20.04L9.03 20.03L8.86 20.01L8.7 19.99L8.53 19.97L8.36 19.95L8.2 19.92L8.03 19.89L7.87 19.86L6.58 19.49L5.37 18.97L4.26 18.3L3.26 17.5L2.37 16.58L1.61 15.55L0.99 14.44L0.5 13.25L0.17 11.99L0 10.69L0 9.36L0.18 8.01L0.54 6.69L1.06 5.46L1.71 4.34L2.5 3.32L3.41 2.42L4.42 1.64L5.51 1L6.68 0.51L7.92 0.18L9.19 0L10.51 0L11.84 0.19ZM7.09 2.53L5.88 3.12L4.78 3.91L3.84 4.87L3.07 5.98L2.5 7.22L2.14 8.57L2.01 10L2.14 11.43L2.51 12.78L3.09 14.02L3.87 15.13L4.81 16.09L5.91 16.87L7.13 17.45L8.45 17.82L9.86 17.95L11.27 17.81L12.59 17.44L13.81 16.85L14.9 16.06L15.84 15.1L16.61 13.99L17.19 12.74L17.55 11.4L17.67 9.97L17.57 8.73L17.3 7.55L16.85 6.44L16.25 5.42L15.52 4.5L14.65 3.7L13.67 3.04L12.58 2.53L11.41 2.18L11.24 2.15L11.06 2.12L10.89 2.09L10.71 2.07L10.53 2.05L10.36 2.04L10.18 2.03L10 2.03L9.82 2.02L8.42 2.16L7.09 2.53Z" id="g17TND1EPN"></path></defs><g><g><g><use xlink:href="#aovtfOsBt" opacity="1" fill="#ffffff" fill-opacity="1"></use><g><use xlink:href="#aovtfOsBt" opacity="1" fill-opacity="0" stroke="#000000" stroke-width="1" stroke-opacity="0"></use></g></g><g><use xlink:href="#g17TND1EPN" opacity="1" fill="#ffffff" fill-opacity="1"></use><g><use xlink:href="#g17TND1EPN" opacity="1" fill-opacity="0" stroke="#000000" stroke-width="1" stroke-opacity="0"></use></g></g></g></g></svg>