<?xml version="1.0" encoding="UTF-8" standalone="no"?>
<!DOCTYPE svg PUBLIC "-//W3C//DTD SVG 1.1//EN" "http://www.w3.org/Graphics/SVG/1.1/DTD/svg11.dtd">
<svg version="1.1" xmlns="http://www.w3.org/2000/svg" xmlns:xlink="http://www.w3.org/1999/xlink" preserveAspectRatio="xMidYMid meet" viewBox="0 0 200 200" width="200" height="200"><defs><path d="M146.51 0.12L148.02 0.28L149.51 0.49L150.99 0.76L152.44 1.09L153.87 1.48L155.28 1.91L156.67 2.41L158.02 2.95L159.36 3.55L160.66 4.19L161.93 4.88L163.18 5.63L164.39 6.41L165.57 7.24L166.72 8.12L167.83 9.04L168.91 10L169.94 10.99L170.94 12.03L171.9 13.11L172.82 14.22L173.7 15.37L174.53 16.55L175.31 17.76L176.05 19L176.75 20.28L177.39 21.58L177.99 22.92L178.53 24.27L179.02 25.66L179.46 27.07L179.85 28.5L180.18 29.95L180.45 31.42L180.66 32.92L180.81 34.43L180.91 35.96L180.94 37.5L180.91 39.04L180.81 40.57L180.66 42.08L180.45 43.58L180.18 45.05L179.85 46.5L179.46 47.93L179.02 49.34L178.53 50.73L177.99 52.08L177.39 53.42L176.75 54.72L176.05 56L175.31 57.24L174.53 58.45L173.7 59.63L172.82 60.78L171.9 61.89L170.94 62.97L169.94 64.01L168.91 65L167.83 65.96L166.72 66.88L165.57 67.76L164.39 68.59L163.18 69.37L161.93 70.12L160.66 70.81L159.36 71.45L158.02 72.05L156.67 72.59L155.28 73.09L153.87 73.52L152.44 73.91L150.99 74.24L149.51 74.51L148.02 74.72L146.51 74.88L144.98 74.97L143.44 75L142.66 74.99L141.88 74.97L141.1 74.93L140.33 74.87L139.56 74.8L138.79 74.71L138.03 74.61L137.27 74.49L136.52 74.36L135.77 74.21L135.02 74.05L134.28 73.87L133.54 73.68L132.81 73.47L132.09 73.25L131.37 73.01L130.65 72.76L129.94 72.49L129.24 72.21L128.54 71.91L127.85 71.6L127.16 71.28L126.49 70.94L125.81 70.59L125.15 70.23L124.49 69.85L123.84 69.46L123.2 69.05L122.57 68.63L121.94 68.2L121.32 67.76L120.71 67.3L120.11 66.83L119.52 66.34L118.93 65.85L118.36 65.34L117.79 64.82L117.24 64.28L116.69 63.73L116.15 63.17L83.84 84.7L83.85 84.72L83.86 84.74L83.87 84.76L83.88 84.78L83.89 84.8L83.9 84.82L83.9 84.84L83.91 84.86L83.92 84.88L83.93 84.9L83.94 84.91L83.95 84.93L83.96 84.95L83.97 84.97L83.98 84.99L83.99 85.01L84.02 85.05L84.05 85.1L84.07 85.14L84.08 85.16L84.09 85.18L84.1 85.2L84.11 85.22L84.12 85.23L84.13 85.25L84.14 85.27L84.15 85.29L84.15 85.31L84.16 85.33L84.17 85.35L84.18 85.37L84.19 85.39L84.2 85.41L84.21 85.43L84.22 85.45L84.23 85.47L84.53 86.22L84.82 86.97L85.09 87.72L85.34 88.48L85.58 89.23L85.8 89.99L86 90.75L86.19 91.51L86.36 92.27L86.52 93.03L86.66 93.79L86.78 94.56L86.89 95.32L86.98 96.08L87.05 96.85L87.11 97.61L87.15 98.37L87.18 99.13L87.19 99.89L87.19 100.65L87.17 101.41L87.13 102.17L87.08 102.92L87.01 103.68L86.93 104.43L86.84 105.17L86.72 105.92L86.59 106.66L86.45 107.41L86.29 108.14L86.12 108.88L85.93 109.61L85.73 110.34L85.51 111.06L85.28 111.78L85.03 112.5L84.77 113.21L84.49 113.91L84.2 114.62L83.89 115.31L116.21 136.79L116.73 136.26L117.26 135.73L117.79 135.21L118.34 134.7L118.9 134.21L119.47 133.72L120.05 133.25L120.64 132.79L121.24 132.33L121.84 131.9L122.46 131.47L123.08 131.05L123.71 130.65L124.35 130.26L125 129.88L125.66 129.51L126.33 129.16L127 128.82L127.68 128.49L128.37 128.18L129.06 127.88L129.77 127.59L130.48 127.32L131.19 127.07L131.91 126.82L132.64 126.59L133.38 126.38L134.12 126.18L134.87 125.99L135.62 125.82L136.38 125.67L137.15 125.53L137.92 125.41L138.69 125.3L139.47 125.21L140.26 125.13L141.04 125.08L141.84 125.03L142.64 125.01L143.44 125L144.98 125.03L146.51 125.12L148.02 125.28L149.51 125.49L150.99 125.76L152.44 126.09L153.87 126.48L155.28 126.91L156.66 127.41L158.02 127.95L159.35 128.55L160.66 129.19L161.93 129.88L163.18 130.63L164.39 131.41L165.57 132.24L166.72 133.12L167.83 134.04L168.9 135L169.94 135.99L170.94 137.03L171.9 138.11L172.82 139.22L173.69 140.37L174.53 141.55L175.31 142.76L176.05 144L176.75 145.28L177.39 146.58L177.99 147.92L178.53 149.27L179.02 150.66L179.46 152.07L179.85 153.5L180.18 154.95L180.45 156.42L180.66 157.92L180.81 159.43L180.91 160.96L180.94 162.5L180.91 164.04L180.81 165.57L180.66 167.08L180.45 168.58L180.18 170.05L179.85 171.5L179.46 172.93L179.02 174.34L178.53 175.73L177.99 177.08L177.39 178.42L176.75 179.72L176.05 181L175.31 182.24L174.53 183.45L173.7 184.63L172.82 185.78L171.9 186.89L170.94 187.97L169.94 189.01L168.91 190L167.83 190.96L166.72 191.88L165.57 192.76L164.39 193.59L163.18 194.37L161.93 195.12L160.66 195.81L159.36 196.45L158.02 197.05L156.67 197.59L155.28 198.09L153.87 198.52L152.44 198.91L150.99 199.24L149.51 199.51L148.02 199.72L146.51 199.88L144.98 199.97L143.44 200L141.9 199.97L140.37 199.88L138.86 199.72L137.36 199.51L135.89 199.24L134.44 198.91L133.01 198.52L131.6 198.09L130.21 197.59L128.86 197.05L127.52 196.45L126.22 195.81L124.94 195.12L123.7 194.37L122.49 193.59L121.31 192.76L120.16 191.88L119.05 190.96L117.97 190L116.93 189.01L115.94 187.97L114.98 186.89L114.06 185.78L113.18 184.63L112.35 183.45L111.56 182.24L110.82 181L110.13 179.72L109.49 178.42L108.89 177.08L108.35 175.73L107.85 174.34L107.42 172.93L107.03 171.5L106.7 170.05L106.43 168.58L106.22 167.08L106.06 165.57L105.97 164.04L105.94 162.5L105.94 162.09L105.95 161.68L105.96 161.28L105.98 160.87L106 160.47L106.02 160.06L106.05 159.66L106.08 159.26L106.12 158.86L106.16 158.46L106.21 158.06L106.26 157.67L106.31 157.27L106.37 156.88L106.43 156.49L106.5 156.1L106.57 155.71L106.64 155.32L106.72 154.93L106.8 154.55L106.89 154.16L106.98 153.78L107.07 153.4L107.17 153.02L107.27 152.64L107.38 152.27L107.49 151.89L107.6 151.52L107.72 151.15L107.84 150.78L107.96 150.41L108.09 150.04L108.22 149.68L108.36 149.32L108.49 148.96L108.64 148.6L108.78 148.24L108.93 147.88L109.08 147.53L109.24 147.17L76.95 125.71L76.93 125.73L76.91 125.75L76.89 125.77L76.87 125.79L76.86 125.81L76.84 125.83L76.82 125.85L76.8 125.87L76.79 125.89L76.77 125.91L76.75 125.93L76.74 125.95L76.72 125.97L76.7 125.99L76.69 126.02L76.67 126.04L76.64 126.08L76.6 126.12L76.59 126.14L76.57 126.16L76.55 126.18L76.54 126.2L76.52 126.22L76.5 126.24L76.49 126.26L76.47 126.28L76.45 126.3L76.44 126.32L76.42 126.34L76.4 126.36L76.38 126.38L76.37 126.4L76.35 126.42L76.33 126.44L76.31 126.46L76.3 126.48L76.28 126.5L76.26 126.52L75.72 127.05L75.17 127.56L74.61 128.06L74.04 128.55L73.47 129.03L72.88 129.49L72.29 129.95L71.7 130.39L71.09 130.81L70.48 131.23L69.86 131.63L69.24 132.02L68.61 132.4L67.97 132.76L67.33 133.11L66.68 133.45L66.02 133.78L65.36 134.09L64.7 134.39L64.02 134.67L63.35 134.94L62.66 135.2L61.98 135.45L61.28 135.68L60.59 135.9L59.89 136.1L59.18 136.29L58.47 136.47L57.76 136.63L57.04 136.78L56.32 136.92L55.59 137.04L54.87 137.15L54.13 137.24L53.4 137.32L52.66 137.38L51.92 137.43L51.18 137.47L50.44 137.49L49.69 137.5L48.15 137.47L46.62 137.38L45.11 137.22L43.61 137.01L42.14 136.74L40.69 136.41L39.26 136.02L37.85 135.59L36.46 135.09L35.11 134.55L33.77 133.95L32.47 133.31L31.19 132.62L29.95 131.87L28.74 131.09L27.56 130.26L26.41 129.38L25.3 128.46L24.22 127.5L23.18 126.51L22.19 125.47L21.23 124.39L20.31 123.28L19.43 122.13L18.6 120.95L17.81 119.74L17.07 118.5L16.38 117.22L15.74 115.92L15.14 114.58L14.6 113.23L14.1 111.84L13.67 110.43L13.28 109L12.95 107.55L12.68 106.08L12.47 104.58L12.31 103.07L12.22 101.54L12.19 100L12.22 98.46L12.31 96.93L12.47 95.42L12.68 93.92L12.95 92.45L13.28 91L13.67 89.57L14.1 88.16L14.6 86.77L15.14 85.42L15.74 84.08L16.38 82.78L17.08 81.5L17.82 80.26L18.6 79.05L19.44 77.87L20.31 76.72L21.23 75.61L22.19 74.53L23.19 73.49L24.22 72.5L25.3 71.54L26.41 70.62L27.56 69.74L28.74 68.91L29.95 68.13L31.2 67.38L32.47 66.69L33.78 66.05L35.11 65.45L36.47 64.91L37.85 64.41L39.26 63.98L40.69 63.59L42.14 63.26L43.62 62.99L45.11 62.78L46.62 62.62L48.15 62.53L49.69 62.5L50.49 62.51L51.29 62.53L52.09 62.57L52.88 62.63L53.66 62.7L54.44 62.79L55.22 62.89L55.99 63.01L56.75 63.15L57.51 63.3L58.27 63.46L59.01 63.64L59.76 63.84L60.49 64.05L61.22 64.27L61.94 64.51L62.66 64.76L63.37 65.03L64.07 65.31L64.77 65.61L65.45 65.92L66.14 66.24L66.81 66.58L67.47 66.93L68.13 67.29L68.78 67.67L69.42 68.06L70.06 68.46L70.68 68.88L71.3 69.31L71.9 69.75L72.5 70.2L73.09 70.67L73.67 71.15L74.24 71.64L74.81 72.14L75.36 72.66L75.9 73.19L76.43 73.72L76.95 74.27L109.3 52.72L109.14 52.37L108.99 52.01L108.84 51.64L108.69 51.28L108.54 50.92L108.4 50.55L108.27 50.19L108.13 49.82L108 49.45L107.87 49.08L107.75 48.71L107.63 48.34L107.52 47.97L107.41 47.59L107.3 47.22L107.19 46.84L107.1 46.46L107 46.08L106.91 45.7L106.82 45.32L106.74 44.94L106.66 44.56L106.58 44.17L106.51 43.79L106.44 43.4L106.38 43.02L106.32 42.63L106.26 42.24L106.21 41.85L106.16 41.46L106.12 41.07L106.08 40.67L106.05 40.28L106.02 39.89L106 39.49L105.98 39.09L105.96 38.7L105.95 38.3L105.94 37.9L105.94 37.5L105.97 35.96L106.06 34.43L106.22 32.92L106.43 31.42L106.7 29.95L107.03 28.5L107.42 27.07L107.85 25.66L108.35 24.27L108.89 22.92L109.49 21.58L110.13 20.28L110.82 19L111.56 17.76L112.35 16.55L113.18 15.37L114.06 14.22L114.98 13.11L115.94 12.03L116.93 10.99L117.97 10L119.05 9.04L120.16 8.12L121.31 7.24L122.49 6.41L123.7 5.63L124.94 4.88L126.22 4.19L127.52 3.55L128.86 2.95L130.21 2.41L131.6 1.91L133.01 1.48L134.44 1.09L135.89 0.76L137.36 0.49L138.86 0.28L140.37 0.12L141.9 0.03L143.44 0L144.98 0.03L146.51 0.12ZM140.81 137.64L139.52 137.81L138.25 138.04L137.01 138.34L135.79 138.7L134.59 139.12L133.43 139.59L132.29 140.12L131.19 140.71L130.12 141.35L129.09 142.04L128.09 142.78L127.13 143.56L126.21 144.4L125.34 145.27L124.5 146.19L123.72 147.15L122.98 148.15L122.29 149.18L121.65 150.25L121.06 151.35L120.53 152.49L120.06 153.65L119.64 154.85L119.28 156.07L118.98 157.31L118.75 158.58L118.58 159.87L118.47 161.17L118.44 162.5L118.47 163.83L118.58 165.13L118.75 166.42L118.98 167.69L119.28 168.93L119.64 170.15L120.06 171.34L120.53 172.51L121.06 173.64L121.65 174.75L122.29 175.82L122.98 176.85L123.72 177.85L124.5 178.81L125.34 179.72L126.21 180.6L127.13 181.43L128.09 182.22L129.09 182.96L130.12 183.65L131.19 184.29L132.29 184.88L133.43 185.41L134.59 185.88L135.79 186.3L137.01 186.66L138.25 186.96L139.52 187.19L140.81 187.36L142.11 187.47L143.44 187.5L144.77 187.47L146.07 187.36L147.36 187.19L148.63 186.96L149.87 186.66L151.09 186.3L152.29 185.88L153.45 185.41L154.59 184.88L155.69 184.29L156.76 183.65L157.79 182.96L158.79 182.22L159.75 181.43L160.67 180.6L161.54 179.72L162.37 178.81L163.16 177.85L163.9 176.85L164.59 175.82L165.23 174.75L165.82 173.64L166.35 172.51L166.82 171.34L167.24 170.15L167.6 168.93L167.9 167.69L168.13 166.42L168.3 165.13L168.4 163.83L168.44 162.5L168.4 161.17L168.3 159.87L168.13 158.58L167.9 157.31L167.6 156.07L167.24 154.85L166.82 153.65L166.35 152.49L165.82 151.35L165.23 150.25L164.59 149.18L163.9 148.15L163.16 147.15L162.37 146.19L161.54 145.27L160.67 144.4L159.75 143.56L158.79 142.78L157.79 142.04L156.76 141.35L155.69 140.71L154.59 140.12L153.45 139.59L152.29 139.12L151.09 138.7L149.87 138.34L148.63 138.04L147.36 137.81L146.07 137.64L144.77 137.53L143.44 137.5L142.11 137.53L140.81 137.64ZM47.06 75.14L45.77 75.31L44.5 75.54L43.26 75.84L42.04 76.2L40.84 76.62L39.68 77.09L38.54 77.62L37.44 78.21L36.37 78.85L35.34 79.54L34.34 80.28L33.38 81.06L32.46 81.9L31.59 82.77L30.75 83.69L29.97 84.65L29.23 85.65L28.54 86.68L27.9 87.75L27.31 88.85L26.78 89.99L26.31 91.15L25.89 92.35L25.53 93.57L25.23 94.81L25 96.08L24.83 97.37L24.72 98.67L24.69 100L24.72 101.33L24.83 102.63L25 103.92L25.23 105.19L25.53 106.43L25.89 107.65L26.31 108.84L26.78 110.01L27.31 111.14L27.9 112.25L28.54 113.32L29.23 114.35L29.97 115.35L30.75 116.31L31.59 117.22L32.46 118.1L33.38 118.93L34.34 119.72L35.34 120.46L36.37 121.15L37.44 121.79L38.54 122.38L39.68 122.91L40.84 123.38L42.04 123.8L43.26 124.16L44.5 124.46L45.77 124.69L47.06 124.86L48.36 124.97L49.69 125L52.82 124.85L55.74 124.4L58.44 123.69L60.93 122.72L63.21 121.52L65.27 120.11L67.13 118.5L68.77 116.73L70.21 114.8L71.43 112.75L72.45 110.58L73.26 108.32L73.86 106L74.25 103.62L74.44 101.21L74.41 98.79L74.19 96.38L73.76 94L73.12 91.68L72.28 89.42L71.23 87.25L69.98 85.2L68.53 83.27L66.88 81.5L65.02 79.89L62.97 78.48L60.71 77.28L58.26 76.31L55.6 75.6L52.74 75.15L49.69 75L48.36 75.03L47.06 75.14ZM140.8 12.64L139.52 12.81L138.25 13.04L137 13.34L135.78 13.7L134.59 14.12L133.43 14.59L132.29 15.12L131.19 15.71L130.12 16.35L129.08 17.04L128.09 17.78L127.13 18.56L126.21 19.4L125.33 20.27L124.5 21.19L123.72 22.15L122.98 23.15L122.29 24.18L121.65 25.25L121.06 26.35L120.53 27.49L120.05 28.65L119.64 29.85L119.28 31.07L118.98 32.31L118.75 33.58L118.58 34.87L118.47 36.17L118.44 37.5L118.45 38.04L118.46 38.58L118.49 39.12L118.53 39.66L118.58 40.19L118.64 40.72L118.72 41.25L118.8 41.78L118.9 42.3L119.01 42.82L119.12 43.34L119.25 43.86L119.39 44.37L119.54 44.88L119.71 45.38L119.88 45.89L120.06 46.38L120.26 46.88L120.46 47.37L120.68 47.86L120.9 48.34L121.14 48.82L121.39 49.29L121.65 49.76L121.92 50.23L122.2 50.69L122.49 51.14L122.79 51.6L123.1 52.04L123.42 52.48L123.75 52.92L124.22 53.5L124.71 54.06L125.2 54.61L125.72 55.14L126.24 55.65L126.78 56.15L127.33 56.63L127.9 57.09L128.47 57.54L129.06 57.96L129.66 58.37L130.27 58.76L130.89 59.14L131.52 59.49L132.17 59.83L132.82 60.14L133.47 60.44L134.14 60.72L134.82 60.98L135.5 61.22L136.19 61.44L136.89 61.64L137.6 61.82L138.31 61.97L139.03 62.11L139.75 62.23L140.48 62.33L141.21 62.4L141.95 62.46L142.69 62.49L143.44 62.5L144.77 62.47L146.07 62.36L147.36 62.19L148.63 61.96L149.87 61.66L151.09 61.3L152.29 60.88L153.45 60.41L154.59 59.88L155.69 59.29L156.76 58.65L157.79 57.96L158.79 57.22L159.75 56.43L160.67 55.6L161.54 54.72L162.37 53.81L163.16 52.85L163.9 51.85L164.59 50.82L165.23 49.75L165.82 48.64L166.35 47.51L166.82 46.34L167.24 45.15L167.6 43.93L167.9 42.69L168.13 41.42L168.3 40.13L168.4 38.83L168.44 37.5L168.4 36.17L168.3 34.87L168.13 33.58L167.9 32.31L167.6 31.07L167.24 29.85L166.82 28.65L166.35 27.49L165.82 26.35L165.23 25.25L164.59 24.18L163.9 23.15L163.16 22.15L162.37 21.19L161.54 20.27L160.67 19.4L159.75 18.56L158.79 17.78L157.79 17.04L156.76 16.35L155.69 15.71L154.59 15.12L153.45 14.59L152.29 14.12L151.09 13.7L149.87 13.34L148.63 13.04L147.36 12.81L146.07 12.64L144.77 12.53L143.44 12.5L142.11 12.53L140.8 12.64Z" id="aiCdxjlI5"></path></defs><g><g><g><use xlink:href="#aiCdxjlI5" opacity="1" fill="#ffffff" fill-opacity="1"></use><g><use xlink:href="#aiCdxjlI5" opacity="1" fill-opacity="0" stroke="#000000" stroke-width="1" stroke-opacity="0"></use></g></g></g></g></svg>