<?xml version="1.0" encoding="UTF-8" standalone="no"?>
<!DOCTYPE svg PUBLIC "-//W3C//DTD SVG 1.1//EN" "http://www.w3.org/Graphics/SVG/1.1/DTD/svg11.dtd">
<svg version="1.1" xmlns="http://www.w3.org/2000/svg" xmlns:xlink="http://www.w3.org/1999/xlink" preserveAspectRatio="xMidYMid meet" viewBox="0 0 20 10" width="55" height="27.5"><defs><path d="M0 9.33C0 9.14 0.08 8.97 0.22 8.85C0.22 8.85 0.22 8.85 0.22 8.85C5.78 3.66 8.88 0.77 9.49 0.2C9.62 0.07 9.8 0 10 0C10.2 0 10.37 0.07 10.5 0.2C11.43 1.06 18.85 7.99 19.78 8.85C19.92 8.97 20 9.14 20 9.33C20 9.7 19.68 10 19.29 10C19.08 10 18.9 9.92 18.77 9.8C18.19 9.25 15.26 6.52 10 1.61C4.73 6.52 1.81 9.25 1.22 9.8C1.09 9.92 0.91 10 0.71 10C0.71 10 0.71 10 0.71 10C0.24 9.8 0 9.58 0 9.33Z" id="aFwCGP6dP"></path></defs><g><g><g><use xlink:href="#aFwCGP6dP" opacity="1" fill="#000000" fill-opacity="1"></use><g><use xlink:href="#aFwCGP6dP" opacity="1" fill-opacity="0" stroke="#000000" stroke-width="1" stroke-opacity="0"></use></g></g></g></g></svg>