<?xml version="1.0" encoding="UTF-8" standalone="no"?>
<!DOCTYPE svg PUBLIC "-//W3C//DTD SVG 1.1//EN" "http://www.w3.org/Graphics/SVG/1.1/DTD/svg11.dtd">
<svg version="1.1" xmlns="http://www.w3.org/2000/svg" xmlns:xlink="http://www.w3.org/1999/xlink" preserveAspectRatio="xMidYMid meet" viewBox="0 0 20 10" width="555" height="277.5"><defs><path d="M0 0.67C0 0.86 0.08 1.03 0.22 1.15C0.22 1.15 0.22 1.15 0.22 1.15C5.78 6.34 8.88 9.23 9.49 9.8C9.62 9.93 9.8 10 10 10C10.2 10 10.37 9.93 10.5 9.8C11.43 8.94 18.85 2.01 19.78 1.15C19.92 1.03 20 0.86 20 0.67C20 0.3 19.68 0 19.29 0C19.08 0 18.9 0.08 18.77 0.2C18.19 0.75 15.26 3.48 10 8.39C4.73 3.48 1.81 0.75 1.22 0.2C1.09 0.08 0.91 0 0.71 0C0.71 0 0.71 0 0.71 0C0.24 0.2 0 0.42 0 0.67Z" id="a322kNtGnY"></path></defs><g><g><g><use xlink:href="#a322kNtGnY" opacity="1" fill="#000000" fill-opacity="1"></use><g><use xlink:href="#a322kNtGnY" opacity="1" fill-opacity="0" stroke="#000000" stroke-width="1" stroke-opacity="0"></use></g></g></g></g></svg>