<?xml version="1.0" encoding="UTF-8" standalone="no"?>
<!DOCTYPE svg PUBLIC "-//W3C//DTD SVG 1.1//EN" "http://www.w3.org/Graphics/SVG/1.1/DTD/svg11.dtd">
<svg version="1.1" xmlns="http://www.w3.org/2000/svg" xmlns:xlink="http://www.w3.org/1999/xlink" preserveAspectRatio="xMidYMid meet" viewBox="0 0 10 20" width="25" height="50"><defs><path d="M0.67 0C0.86 0 1.03 0.08 1.15 0.22C1.15 0.22 1.15 0.22 1.15 0.22C6.34 5.78 9.23 8.88 9.8 9.49C9.93 9.62 10 9.8 10 10C10 10.2 9.93 10.37 9.8 10.5C8.94 11.43 2.01 18.85 1.15 19.78C1.03 19.92 0.86 20 0.67 20C0.3 20 0 19.68 0 19.29C0 19.08 0.08 18.9 0.2 18.77C0.75 18.19 3.48 15.26 8.39 10C3.48 4.73 0.75 1.81 0.2 1.22C0.08 1.09 0 0.91 0 0.71C0 0.71 0 0.71 0 0.71C0.2 0.24 0.42 0 0.67 0Z" id="b14eCVVWAu"></path></defs><g><g><g><use xlink:href="#b14eCVVWAu" opacity="1" fill="#ffffff" fill-opacity="1"></use><g><use xlink:href="#b14eCVVWAu" opacity="1" fill-opacity="0" stroke="#000000" stroke-width="1" stroke-opacity="0"></use></g></g></g></g></svg>