<?xml version="1.0" encoding="UTF-8" standalone="no"?>
<!DOCTYPE svg PUBLIC "-//W3C//DTD SVG 1.1//EN" "http://www.w3.org/Graphics/SVG/1.1/DTD/svg11.dtd">
<svg version="1.1" xmlns="http://www.w3.org/2000/svg" xmlns:xlink="http://www.w3.org/1999/xlink" preserveAspectRatio="xMidYMid meet" viewBox="0 0 10 20" width="10" height="20"><defs><path d="M9.33 0C9.14 0 8.97 0.08 8.85 0.22C8.85 0.22 8.85 0.22 8.85 0.22C3.66 5.78 0.77 8.88 0.2 9.49C0.07 9.62 0 9.8 0 10C0 10.2 0.07 10.37 0.2 10.5C1.06 11.43 7.99 18.85 8.85 19.78C8.97 19.92 9.14 20 9.33 20C9.7 20 10 19.68 10 19.29C10 19.08 9.92 18.9 9.8 18.77C9.25 18.19 6.52 15.26 1.61 10C6.52 4.73 9.25 1.81 9.8 1.22C9.92 1.09 10 0.91 10 0.71C10 0.71 10 0.71 10 0.71C9.8 0.24 9.58 0 9.33 0Z" id="q1KXuZvRrm"></path></defs><g><g><g><use xlink:href="#q1KXuZvRrm" opacity="1" fill="#000000" fill-opacity="1"></use><g><use xlink:href="#q1KXuZvRrm" opacity="1" fill-opacity="0" stroke="#000000" stroke-width="1" stroke-opacity="0"></use></g></g></g></g></svg>