<?xml version="1.0" encoding="UTF-8" standalone="no"?>
<!DOCTYPE svg PUBLIC "-//W3C//DTD SVG 1.1//EN" "http://www.w3.org/Graphics/SVG/1.1/DTD/svg11.dtd">
<svg version="1.1" xmlns="http://www.w3.org/2000/svg" xmlns:xlink="http://www.w3.org/1999/xlink" preserveAspectRatio="xMidYMid meet" viewBox="0 0 28 8" width="28" height="8"><defs><path d="M24.67 6.72C24.44 6.49 24.44 6.13 24.67 5.9C24.8 5.78 25.44 5.15 26.59 4.01C25.44 2.88 24.8 2.25 24.67 2.13C24.44 1.9 24.44 1.54 24.67 1.32C24.9 1.09 25.27 1.09 25.5 1.32C25.73 1.55 27.6 3.38 27.83 3.61C28.06 3.83 28.06 4.2 27.83 4.42C27.6 4.65 25.73 6.49 25.5 6.72C25.38 6.83 25.23 6.88 25.08 6.88C24.93 6.88 24.78 6.83 24.67 6.72Z" id="a8x86dXZ1H"></path><path d="M21.58 4.59C21.26 4.59 21 4.33 21 4.01C21 3.7 21.26 3.44 21.58 3.44C22.17 3.44 26.83 3.44 27.42 3.44C27.74 3.44 28 3.7 28 4.01C28 4.33 27.74 4.59 27.42 4.59C26.25 4.59 22.17 4.59 21.58 4.59Z" id="e3pUcvYHZJ"></path><path d="M16.36 0.77L17.23 1.64L17.8 2.74L18 4L17.8 5.26L17.23 6.36L16.36 7.23L15.26 7.8L14 8L12.74 7.8L11.64 7.23L10.77 6.36L10.2 5.26L10 4L10.2 2.74L10.77 1.64L11.64 0.77L12.74 0.2L14 0L15.26 0.2L16.36 0.77ZM11.98 1.98L11.37 2.89L11.14 4L11.37 5.11L11.98 6.02L12.89 6.63L14 6.86L15.11 6.63L16.02 6.02L16.63 5.11L16.86 4L16.63 2.89L16.02 1.98L15.11 1.37L14 1.14L12.89 1.37L11.98 1.98Z" id="dMXANLrK3"></path><path d="M3.33 6.71C3.56 6.49 3.56 6.13 3.33 5.9C3.2 5.78 2.56 5.15 1.41 4.01C2.56 2.88 3.2 2.25 3.33 2.13C3.56 1.9 3.56 1.54 3.33 1.32C3.1 1.09 2.73 1.09 2.5 1.32C2.27 1.54 0.4 3.38 0.17 3.61C-0.06 3.83 -0.06 4.2 0.17 4.42C0.4 4.65 2.27 6.49 2.5 6.71C2.62 6.83 2.77 6.88 2.92 6.88C3.07 6.88 3.22 6.83 3.33 6.71Z" id="a66ocu416"></path><path d="M6.42 4.59C6.74 4.59 7 4.33 7 4.01C7 3.7 6.74 3.44 6.42 3.44C5.83 3.44 1.17 3.44 0.58 3.44C0.26 3.44 0 3.7 0 4.01C0 4.33 0.26 4.59 0.58 4.59C1.75 4.59 5.83 4.59 6.42 4.59Z" id="dJcZjAAQr"></path></defs><g><g><g><use xlink:href="#a8x86dXZ1H" opacity="1" fill="#ffffff" fill-opacity="1"></use><g><use xlink:href="#a8x86dXZ1H" opacity="1" fill-opacity="0" stroke="#000000" stroke-width="1" stroke-opacity="0"></use></g></g><g><use xlink:href="#e3pUcvYHZJ" opacity="1" fill="#ffffff" fill-opacity="1"></use><g><use xlink:href="#e3pUcvYHZJ" opacity="1" fill-opacity="0" stroke="#000000" stroke-width="1" stroke-opacity="0"></use></g></g><g><use xlink:href="#dMXANLrK3" opacity="1" fill="#ffffff" fill-opacity="1"></use><g><use xlink:href="#dMXANLrK3" opacity="1" fill-opacity="0" stroke="#000000" stroke-width="1" stroke-opacity="0"></use></g></g><g><use xlink:href="#a66ocu416" opacity="1" fill="#ffffff" fill-opacity="1"></use><g><use xlink:href="#a66ocu416" opacity="1" fill-opacity="0" stroke="#000000" stroke-width="1" stroke-opacity="0"></use></g></g><g><use xlink:href="#dJcZjAAQr" opacity="1" fill="#ffffff" fill-opacity="1"></use><g><use xlink:href="#dJcZjAAQr" opacity="1" fill-opacity="0" stroke="#000000" stroke-width="1" stroke-opacity="0"></use></g></g></g></g></svg>