<?xml version="1.0" encoding="UTF-8" standalone="no"?>
<!DOCTYPE svg PUBLIC "-//W3C//DTD SVG 1.1//EN" "http://www.w3.org/Graphics/SVG/1.1/DTD/svg11.dtd">
<svg version="1.1" xmlns="http://www.w3.org/2000/svg" xmlns:xlink="http://www.w3.org/1999/xlink" preserveAspectRatio="xMidYMid meet" viewBox="0 0 17 19" width="17" height="19"><defs><path d="M11.08 0.61L12.16 1.31L13.07 2.23L13.76 3.33L14.2 4.58L14.35 5.94L14.2 7.3L13.76 8.55L13.07 9.65L12.16 10.57L11.08 11.27L9.84 11.72L8.5 11.88L7.16 11.72L5.92 11.27L4.84 10.57L3.93 9.65L3.24 8.55L2.8 7.3L2.65 5.94L2.8 4.58L3.24 3.33L3.93 2.23L4.84 1.31L5.92 0.61L7.16 0.16L8.5 0L9.84 0.16L11.08 0.61ZM6.09 2.59L5.2 3.49L4.62 4.63L4.41 5.94L4.62 7.25L5.2 8.39L6.09 9.29L7.21 9.88L8.5 10.09L9.79 9.88L10.91 9.29L11.8 8.39L12.38 7.25L12.59 5.94L12.38 4.63L11.8 3.49L10.91 2.59L9.79 2L8.5 1.79L7.21 2L6.09 2.59Z" id="d164mfMkcl"></path><path d="M0 19C0.15 19 1.35 19 1.5 19C1.52 15.07 4.65 11.9 8.5 11.9C12.35 11.9 15.48 15.07 15.48 18.98C15.63 18.98 16.85 18.98 17 18.98C17 14.22 13.18 10.37 8.5 10.37C3.82 10.37 0 14.22 0 19Z" id="b1o6ooNvzf"></path></defs><g><g><g><use xlink:href="#d164mfMkcl" opacity="1" fill="#000000" fill-opacity="1"></use><g><use xlink:href="#d164mfMkcl" opacity="1" fill-opacity="0" stroke="#000000" stroke-width="1" stroke-opacity="0"></use></g></g><g><use xlink:href="#b1o6ooNvzf" opacity="1" fill="#000000" fill-opacity="1"></use><g><use xlink:href="#b1o6ooNvzf" opacity="1" fill-opacity="0" stroke="#000000" stroke-width="1" stroke-opacity="0"></use></g></g></g></g></svg>