<?xml version="1.0" encoding="UTF-8" standalone="no"?>
<!DOCTYPE svg PUBLIC "-//W3C//DTD SVG 1.1//EN" "http://www.w3.org/Graphics/SVG/1.1/DTD/svg11.dtd">
<svg version="1.1" xmlns="http://www.w3.org/2000/svg" xmlns:xlink="http://www.w3.org/1999/xlink" preserveAspectRatio="xMidYMid meet" viewBox="0 0 22 16" width="22" height="16"><defs><path d="M1.22 2C0.55 2 0 1.55 0 1C0 0.45 0.55 0 1.22 0C3.18 0 18.82 0 20.78 0C21.45 0 22 0.45 22 1C22 1.55 21.45 2 20.78 2C16.87 2 3.18 2 1.22 2Z" id="bbzHhcsof"></path><path d="M1.22 9C0.55 9 0 8.55 0 8C0 7.45 0.55 7 1.22 7C3.18 7 18.82 7 20.78 7C21.45 7 22 7.45 22 8C22 8.55 21.45 9 20.78 9C16.87 9 3.18 9 1.22 9Z" id="d1gY24MRWd"></path><path d="M1.32 16C0.59 16 0 15.55 0 15C0 14.45 0.59 14 1.32 14C2.38 14 10.82 14 11.88 14C12.61 14 13.2 14.45 13.2 15C13.2 15.55 12.61 16 11.88 16C9.77 16 2.38 16 1.32 16Z" id="f80BxiyMWF"></path></defs><g><g><path></path><g><use xlink:href="#bbzHhcsof" opacity="1" fill="#000000" fill-opacity="1"></use><g><use xlink:href="#bbzHhcsof" opacity="1" fill-opacity="0" stroke="#000000" stroke-width="1" stroke-opacity="0"></use></g></g><g><use xlink:href="#d1gY24MRWd" opacity="1" fill="#000000" fill-opacity="1"></use><g><use xlink:href="#d1gY24MRWd" opacity="1" fill-opacity="0" stroke="#000000" stroke-width="1" stroke-opacity="0"></use></g></g><g><use xlink:href="#f80BxiyMWF" opacity="1" fill="#000000" fill-opacity="1"></use><g><use xlink:href="#f80BxiyMWF" opacity="1" fill-opacity="0" stroke="#000000" stroke-width="1" stroke-opacity="0"></use></g></g></g></g></svg>