<?xml version="1.0" encoding="UTF-8" standalone="no"?>
<!DOCTYPE svg PUBLIC "-//W3C//DTD SVG 1.1//EN" "http://www.w3.org/Graphics/SVG/1.1/DTD/svg11.dtd">
<svg version="1.1" xmlns="http://www.w3.org/2000/svg" xmlns:xlink="http://www.w3.org/1999/xlink" preserveAspectRatio="xMidYMid meet" viewBox="0 0 30 25" width="30" height="25"><defs><path d="M22.17 0.01L22.25 0.03L22.32 0.05L22.39 0.08L22.46 0.11L22.53 0.15L22.6 0.19L22.66 0.24L22.71 0.29L22.76 0.35L22.81 0.41L22.86 0.47L22.89 0.54L22.93 0.61L22.95 0.68L22.98 0.76L22.99 0.84L23 0.92L23.01 1L23.01 9.47L24.62 8.34L24.83 8.21L25.04 8.09L25.26 7.99L25.49 7.9L25.71 7.84L25.95 7.78L26.18 7.75L26.41 7.73L26.65 7.73L26.88 7.74L27.11 7.77L27.34 7.81L27.57 7.87L27.79 7.95L28.01 8.04L28.23 8.15L28.43 8.27L28.63 8.41L28.82 8.56L29 8.73L29.1 8.83L29.19 8.93L29.27 9.04L29.35 9.15L29.43 9.26L29.5 9.37L29.57 9.48L29.63 9.6L29.69 9.72L29.75 9.84L29.79 9.97L29.84 10.09L29.88 10.22L29.91 10.35L29.94 10.48L29.96 10.61L29.98 10.74L29.99 10.88L30 11.01L30 11.15L30 11.27L30 11.39L29.99 11.5L29.97 11.62L29.95 11.74L29.93 11.85L29.9 11.97L29.87 12.08L29.84 12.2L29.8 12.31L29.76 12.42L29.71 12.53L29.66 12.63L29.61 12.74L29.55 12.84L29.49 12.95L29.43 13.05L29.36 13.15L29.29 13.24L29.22 13.33L21.82 22.2L21.68 22.37L21.52 22.53L21.37 22.68L21.2 22.83L21.03 22.97L20.85 23.09L20.67 23.22L20.49 23.33L20.3 23.43L20.1 23.53L19.91 23.62L19.7 23.7L19.5 23.77L19.29 23.83L19.08 23.88L18.86 23.92L18.65 23.96L18.43 23.98L18.21 24L17.98 24L6 24L6 24.08L5.99 24.16L5.98 24.24L5.95 24.32L5.93 24.39L5.89 24.46L5.86 24.53L5.81 24.59L5.76 24.65L5.71 24.71L5.66 24.76L5.6 24.81L5.53 24.85L5.46 24.89L5.39 24.92L5.32 24.95L5.25 24.97L5.17 24.99L5.09 25L5 25L1 25L0.92 25L0.84 24.99L0.76 24.97L0.69 24.95L0.62 24.92L0.55 24.89L0.48 24.85L0.41 24.81L0.35 24.76L0.3 24.71L0.25 24.65L0.2 24.59L0.15 24.53L0.12 24.46L0.08 24.39L0.06 24.32L0.03 24.24L0.02 24.16L0.01 24.08L0 24L0 12L0.01 11.92L0.02 11.84L0.03 11.76L0.06 11.68L0.08 11.61L0.12 11.54L0.15 11.47L0.2 11.41L0.25 11.35L0.3 11.29L0.35 11.24L0.41 11.19L0.48 11.15L0.55 11.11L0.62 11.08L0.69 11.05L0.76 11.03L0.84 11.01L0.92 11L1 11L5 11L5.09 11L5.17 11.01L5.25 11.03L5.32 11.05L5.39 11.08L5.46 11.11L5.53 11.15L5.6 11.19L5.66 11.24L5.71 11.29L5.76 11.35L5.81 11.41L5.86 11.47L5.89 11.54L5.93 11.61L5.95 11.68L5.98 11.76L5.99 11.84L6 11.92L6 12L7 12L7 1L7.01 0.92L7.02 0.84L7.03 0.76L7.06 0.68L7.08 0.61L7.12 0.54L7.15 0.47L7.2 0.41L7.25 0.35L7.3 0.29L7.35 0.24L7.41 0.19L7.48 0.15L7.55 0.11L7.62 0.08L7.69 0.05L7.76 0.03L7.84 0.01L7.92 0L8 0L22 0L22.09 0L22.17 0.01ZM2 23L4 23L4 13L2 13L2 23ZM26.25 9.76L26.13 9.8L26 9.85L25.88 9.91L25.77 9.98L19.63 14.27L19.66 14.35L19.69 14.43L19.71 14.51L19.74 14.59L19.76 14.67L19.77 14.75L19.79 14.83L19.81 14.91L19.82 15L19.83 15.08L19.84 15.16L19.85 15.25L19.85 15.33L19.85 15.42L19.86 15.5L19.85 15.68L19.84 15.87L19.81 16.05L19.78 16.23L19.73 16.41L19.68 16.58L19.62 16.76L19.55 16.93L19.47 17.09L19.39 17.25L19.29 17.41L19.19 17.56L19.08 17.7L18.96 17.84L18.83 17.98L18.7 18.1L18.56 18.22L18.41 18.34L18.26 18.44L18.1 18.54L17.95 18.62L17.78 18.7L17.61 18.77L17.44 18.83L17.27 18.88L17.09 18.92L16.91 18.96L16.73 18.98L16.54 19L16.36 19L11.86 19L11.75 18.99L11.64 18.98L11.54 18.95L11.44 18.91L11.35 18.86L11.26 18.81L11.19 18.74L11.11 18.67L11.05 18.59L10.99 18.5L10.94 18.41L10.91 18.32L10.88 18.21L10.86 18.11L10.86 18L10.86 17.89L10.88 17.79L10.91 17.68L10.94 17.59L10.99 17.5L11.05 17.41L11.11 17.33L11.19 17.26L11.26 17.19L11.35 17.14L11.44 17.09L11.54 17.05L11.64 17.02L11.75 17.01L11.86 17L16.36 17L16.43 17L16.51 16.99L16.59 16.98L16.67 16.97L16.75 16.95L16.82 16.93L16.89 16.9L16.97 16.87L17.04 16.84L17.11 16.8L17.17 16.76L17.24 16.71L17.3 16.67L17.36 16.62L17.42 16.56L17.47 16.51L17.52 16.45L17.57 16.38L17.61 16.32L17.65 16.25L17.69 16.18L17.73 16.11L17.76 16.04L17.78 15.97L17.8 15.89L17.82 15.81L17.84 15.74L17.85 15.66L17.85 15.58L17.86 15.5L17.85 15.43L17.85 15.37L17.84 15.3L17.83 15.24L17.82 15.17L17.8 15.11L17.78 15.05L17.76 14.99L17.74 14.93L17.71 14.87L17.68 14.81L17.65 14.75L17.62 14.7L17.58 14.64L17.54 14.59L17.53 14.58L17.53 14.58L17.47 14.51L17.41 14.44L17.35 14.38L17.28 14.32L17.2 14.27L17.13 14.22L17.05 14.17L16.97 14.13L16.89 14.1L16.8 14.07L16.72 14.04L16.63 14.03L16.54 14.01L16.45 14L16.36 14L6 14L6 22L17.98 22L18.16 21.99L18.34 21.98L18.51 21.95L18.68 21.92L18.85 21.87L19.01 21.82L19.18 21.75L19.33 21.68L19.49 21.6L19.63 21.51L19.78 21.41L19.91 21.3L20.04 21.18L20.17 21.05L20.29 20.92L27.68 12.06L27.72 12.01L27.76 11.95L27.79 11.9L27.82 11.84L27.86 11.78L27.88 11.72L27.91 11.66L27.93 11.6L27.95 11.54L27.97 11.48L27.98 11.41L27.99 11.35L28 11.28L28 11.22L28 11.15L28 11.08L28 11L27.99 10.93L27.97 10.85L27.96 10.78L27.94 10.71L27.91 10.64L27.88 10.57L27.85 10.51L27.82 10.44L27.78 10.38L27.73 10.32L27.69 10.26L27.64 10.2L27.59 10.15L27.49 10.06L27.38 9.97L27.26 9.9L27.15 9.85L27.02 9.8L26.9 9.76L26.77 9.74L26.64 9.73L26.51 9.73L26.38 9.74L26.25 9.76ZM9 12L16.36 12L16.58 12.01L16.8 12.03L17.02 12.06L17.24 12.11L17.45 12.18L17.66 12.25L17.86 12.34L18.05 12.44L18.24 12.56L18.42 12.68L21 10.87L21 2L16 2L16 6L15.99 6.16L15.95 6.32L15.89 6.46L15.81 6.59L15.71 6.71L15.6 6.81L15.46 6.89L15.32 6.95L15.17 6.99L15.01 7L14.84 6.99L14.69 6.95L14.55 6.89L14.41 6.81L14.3 6.71L14.2 6.59L14.12 6.46L14.06 6.32L14.02 6.16L14.01 6L14.01 2L9 2L9 12Z" id="cESIFOomC"></path></defs><g><g><g><use xlink:href="#cESIFOomC" opacity="1" fill="#ffffff" fill-opacity="1"></use><g><use xlink:href="#cESIFOomC" opacity="1" fill-opacity="0" stroke="#000000" stroke-width="1" stroke-opacity="0"></use></g></g></g></g></svg>