<?xml version="1.0" encoding="UTF-8" standalone="no"?>
<!DOCTYPE svg PUBLIC "-//W3C//DTD SVG 1.1//EN" "http://www.w3.org/Graphics/SVG/1.1/DTD/svg11.dtd">
<svg version="1.1" xmlns="http://www.w3.org/2000/svg" xmlns:xlink="http://www.w3.org/1999/xlink" preserveAspectRatio="xMidYMid meet" viewBox="0 0 30 25" width="30" height="25"><defs><path d="M22.16 0.01L22.24 0.03L22.32 0.05L22.39 0.08L22.46 0.11L22.53 0.15L22.59 0.19L22.65 0.24L22.71 0.29L22.76 0.35L22.81 0.41L22.85 0.47L22.89 0.54L22.92 0.61L22.95 0.68L22.97 0.76L22.99 0.83L23 0.92L23 1L23 9.47L24.62 8.34L24.82 8.2L25.04 8.09L25.26 7.99L25.48 7.9L25.71 7.83L25.94 7.78L26.17 7.75L26.41 7.73L26.64 7.72L26.88 7.74L27.11 7.77L27.34 7.81L27.57 7.87L27.79 7.95L28.01 8.04L28.22 8.15L28.43 8.27L28.63 8.41L28.82 8.56L29 8.73L29.09 8.83L29.18 8.93L29.27 9.04L29.35 9.14L29.43 9.25L29.5 9.37L29.57 9.48L29.63 9.6L29.69 9.72L29.74 9.84L29.79 9.96L29.83 10.09L29.87 10.22L29.91 10.35L29.93 10.48L29.96 10.61L29.98 10.74L29.99 10.88L30 11.01L30 11.15L30 11.27L29.99 11.38L29.98 11.5L29.97 11.62L29.95 11.74L29.93 11.85L29.9 11.97L29.87 12.08L29.84 12.19L29.8 12.31L29.76 12.42L29.71 12.52L29.66 12.63L29.61 12.74L29.55 12.84L29.49 12.94L29.43 13.04L29.36 13.14L29.29 13.24L29.21 13.33L21.82 22.2L21.67 22.37L21.52 22.53L21.36 22.68L21.2 22.83L21.03 22.96L20.85 23.09L20.67 23.21L20.48 23.33L20.29 23.43L20.1 23.53L19.9 23.61L19.7 23.69L19.49 23.76L19.28 23.82L19.07 23.88L18.86 23.92L18.64 23.95L18.42 23.98L18.2 23.99L17.98 24L6 24L6 24.08L5.99 24.16L5.97 24.24L5.95 24.31L5.92 24.39L5.89 24.46L5.85 24.52L5.81 24.59L5.76 24.65L5.71 24.7L5.65 24.76L5.59 24.8L5.53 24.85L5.46 24.89L5.39 24.92L5.32 24.95L5.24 24.97L5.16 24.98L5.08 24.99L5 25L1 25L0.92 24.99L0.84 24.98L0.76 24.97L0.68 24.95L0.61 24.92L0.54 24.89L0.47 24.85L0.41 24.8L0.35 24.76L0.29 24.7L0.24 24.65L0.19 24.59L0.15 24.52L0.11 24.46L0.08 24.39L0.05 24.31L0.03 24.24L0.01 24.16L0 24.08L0 24L0 12L0 11.92L0.01 11.83L0.03 11.76L0.05 11.68L0.08 11.61L0.11 11.54L0.15 11.47L0.19 11.41L0.24 11.35L0.29 11.29L0.35 11.24L0.41 11.19L0.47 11.15L0.54 11.11L0.61 11.08L0.68 11.05L0.76 11.03L0.84 11.01L0.92 11L1 11L5 11L5.08 11L5.16 11.01L5.24 11.03L5.32 11.05L5.39 11.08L5.46 11.11L5.53 11.15L5.59 11.19L5.65 11.24L5.71 11.29L5.76 11.35L5.81 11.41L5.85 11.47L5.89 11.54L5.92 11.61L5.95 11.68L5.97 11.76L5.99 11.83L6 11.92L6 12L7 12L7 1L7 0.92L7.01 0.83L7.03 0.76L7.05 0.68L7.08 0.61L7.11 0.54L7.15 0.47L7.19 0.41L7.24 0.35L7.29 0.29L7.35 0.24L7.41 0.19L7.47 0.15L7.54 0.11L7.61 0.08L7.68 0.05L7.76 0.03L7.84 0.01L7.92 0L8 0L22 0L22.08 0L22.16 0.01ZM2 23L4 23L4 13L2 13L2 23ZM26.25 9.76L26.12 9.8L26 9.84L25.88 9.9L25.76 9.98L19.63 14.27L19.66 14.35L19.68 14.43L19.71 14.51L19.73 14.59L19.75 14.67L19.77 14.75L19.79 14.83L19.8 14.91L19.81 14.99L19.83 15.08L19.83 15.16L19.84 15.24L19.85 15.33L19.85 15.41L19.85 15.5L19.85 15.68L19.83 15.87L19.81 16.05L19.77 16.23L19.73 16.41L19.68 16.58L19.62 16.75L19.55 16.92L19.47 17.09L19.38 17.25L19.29 17.4L19.18 17.56L19.07 17.7L18.95 17.84L18.83 17.97L18.69 18.1L18.55 18.22L18.41 18.33L18.26 18.44L18.1 18.53L17.94 18.62L17.78 18.7L17.61 18.77L17.44 18.83L17.26 18.88L17.09 18.92L16.9 18.95L16.72 18.98L16.54 18.99L16.35 19L11.85 19L11.74 18.99L11.64 18.97L11.53 18.95L11.44 18.91L11.35 18.86L11.26 18.8L11.18 18.74L11.11 18.67L11.04 18.59L10.99 18.5L10.94 18.41L10.9 18.31L10.87 18.21L10.86 18.11L10.85 18L10.86 17.89L10.87 17.78L10.9 17.68L10.94 17.58L10.99 17.49L11.04 17.41L11.11 17.33L11.18 17.25L11.26 17.19L11.35 17.13L11.44 17.09L11.53 17.05L11.64 17.02L11.74 17L11.85 17L16.35 17L16.43 17L16.51 16.99L16.59 16.98L16.66 16.96L16.74 16.95L16.82 16.92L16.89 16.9L16.96 16.87L17.03 16.83L17.1 16.8L17.17 16.76L17.23 16.71L17.3 16.66L17.36 16.61L17.41 16.56L17.47 16.5L17.52 16.44L17.57 16.38L17.61 16.32L17.65 16.25L17.69 16.18L17.72 16.11L17.75 16.04L17.78 15.96L17.8 15.89L17.82 15.81L17.83 15.73L17.84 15.66L17.85 15.58L17.85 15.5L17.85 15.43L17.84 15.37L17.84 15.3L17.83 15.24L17.81 15.17L17.8 15.11L17.78 15.05L17.76 14.98L17.74 14.92L17.71 14.86L17.68 14.81L17.65 14.75L17.61 14.69L17.57 14.64L17.53 14.59L17.53 14.58L17.52 14.57L17.47 14.5L17.41 14.44L17.34 14.37L17.27 14.32L17.2 14.26L17.12 14.21L17.05 14.17L16.97 14.13L16.88 14.1L16.8 14.07L16.71 14.04L16.62 14.02L16.53 14.01L16.44 14L16.35 14L6 14L6 22L17.98 22L18.16 21.99L18.33 21.98L18.51 21.95L18.68 21.92L18.85 21.87L19.01 21.81L19.17 21.75L19.33 21.68L19.48 21.59L19.63 21.5L19.77 21.4L19.91 21.29L20.04 21.18L20.16 21.05L20.28 20.92L27.67 12.06L27.71 12L27.75 11.95L27.79 11.9L27.82 11.84L27.85 11.78L27.88 11.72L27.9 11.66L27.93 11.6L27.95 11.54L27.96 11.47L27.98 11.41L27.99 11.34L27.99 11.28L28 11.21L28 11.15L28 11.07L27.99 11L27.98 10.92L27.97 10.85L27.95 10.78L27.93 10.71L27.91 10.64L27.88 10.57L27.85 10.5L27.81 10.44L27.77 10.38L27.73 10.32L27.68 10.26L27.64 10.2L27.58 10.14L27.48 10.05L27.37 9.97L27.26 9.9L27.14 9.84L27.02 9.8L26.89 9.76L26.77 9.74L26.64 9.72L26.51 9.72L26.38 9.74L26.25 9.76ZM9 12L16.35 12L16.57 12L16.8 12.03L17.02 12.06L17.23 12.11L17.44 12.17L17.65 12.25L17.85 12.34L18.05 12.44L18.24 12.55L18.42 12.68L21 10.87L21 2L16 2L16 6L15.99 6.16L15.95 6.31L15.89 6.46L15.81 6.59L15.71 6.7L15.59 6.8L15.46 6.89L15.32 6.95L15.16 6.98L15 7L14.84 6.98L14.68 6.95L14.54 6.89L14.41 6.8L14.29 6.7L14.19 6.59L14.11 6.46L14.05 6.31L14.01 6.16L14 6L14 2L9 2L9 12Z" id="f1K6M0Gvwf"></path></defs><g><g><g><use xlink:href="#f1K6M0Gvwf" opacity="1" fill="#000000" fill-opacity="1"></use><g><use xlink:href="#f1K6M0Gvwf" opacity="1" fill-opacity="0" stroke="#000000" stroke-width="1" stroke-opacity="0"></use></g></g></g></g></svg>