<?xml version="1.0" encoding="UTF-8" standalone="no"?>
<!DOCTYPE svg PUBLIC "-//W3C//DTD SVG 1.1//EN" "http://www.w3.org/Graphics/SVG/1.1/DTD/svg11.dtd">
<svg version="1.1" xmlns="http://www.w3.org/2000/svg" xmlns:xlink="http://www.w3.org/1999/xlink" preserveAspectRatio="xMidYMid meet" viewBox="0 0 16 20" width="16" height="20"><defs><path d="M10.31 0.32L11.37 0.7L12.36 1.21L13.25 1.84L14.04 2.58L14.71 3.42L15.26 4.34L15.66 5.33L15.91 6.39L16 7.5L15.83 9.24L15.36 10.92L14.67 12.52L13.8 14.01L12.83 15.38L11.82 16.61L10.84 17.67L9.94 18.55L9.2 19.22L8.67 19.66L8.42 19.86L8.39 19.88L8.35 19.9L8.32 19.92L8.28 19.94L8.24 19.96L8.2 19.97L8.16 19.98L8.12 19.99L8.08 19.99L8.04 20L8 20L7.96 20L7.91 19.99L7.87 19.99L7.82 19.98L7.78 19.96L7.74 19.95L7.7 19.93L7.66 19.91L7.62 19.89L7.59 19.86L7.55 19.84L7.31 19.62L6.78 19.14L6.04 18.42L5.14 17.49L4.16 16.37L3.16 15.11L2.19 13.72L1.33 12.23L0.63 10.68L0.17 9.1L0 7.5L0.09 6.39L0.34 5.33L0.74 4.34L1.29 3.42L1.96 2.58L2.75 1.84L3.64 1.21L4.63 0.7L5.69 0.32L6.82 0.08L8 0L9.18 0.08L10.31 0.32ZM5.67 1.64L4.64 2.1L3.7 2.72L2.9 3.47L2.24 4.35L1.75 5.32L1.44 6.38L1.33 7.5L1.51 9.02L2 10.55L2.72 12.05L3.61 13.49L4.59 14.83L5.6 16.04L6.55 17.08L7.37 17.92L8 18.53L8.64 17.97L9.48 17.18L10.43 16.19L11.43 15.03L12.4 13.72L13.29 12.29L14.01 10.76L14.49 9.15L14.67 7.5L14.56 6.38L14.25 5.32L13.76 4.35L13.1 3.47L12.3 2.72L11.36 2.1L10.33 1.64L9.2 1.35L8 1.25L6.8 1.35L5.67 1.64Z" id="b1pxy41GAq"></path><path d="M10.64 4.78L11.39 5.89L11.67 7.25L11.39 8.61L10.64 9.72L9.53 10.47L8.17 10.75L6.8 10.47L5.69 9.72L4.94 8.61L4.67 7.25L4.94 5.89L5.69 4.78L6.8 4.03L8.17 3.75L9.53 4.03L10.64 4.78ZM6.68 5.77L6.23 6.43L6.07 7.25L6.23 8.07L6.68 8.73L7.35 9.18L8.17 9.35L8.98 9.18L9.65 8.73L10.1 8.07L10.27 7.25L10.1 6.43L9.65 5.77L8.98 5.32L8.17 5.15L7.35 5.32L6.68 5.77Z" id="b6HvB9sYc"></path></defs><g><g><g><use xlink:href="#b1pxy41GAq" opacity="1" fill="#000000" fill-opacity="1"></use><g><use xlink:href="#b1pxy41GAq" opacity="1" fill-opacity="0" stroke="#000000" stroke-width="1" stroke-opacity="0"></use></g></g><g><use xlink:href="#b6HvB9sYc" opacity="1" fill="#000000" fill-opacity="1"></use><g><use xlink:href="#b6HvB9sYc" opacity="1" fill-opacity="0" stroke="#000000" stroke-width="1" stroke-opacity="0"></use></g></g></g></g></svg>