<?xml version="1.0" encoding="UTF-8" standalone="no"?>
<!DOCTYPE svg PUBLIC "-//W3C//DTD SVG 1.1//EN" "http://www.w3.org/Graphics/SVG/1.1/DTD/svg11.dtd">
<svg version="1.1" xmlns="http://www.w3.org/2000/svg" xmlns:xlink="http://www.w3.org/1999/xlink" preserveAspectRatio="xMidYMid meet" viewBox="0 0 14 14" width="28" height="28"><defs><path d="M8.37 0.02L8.44 0.05L8.51 0.09L8.57 0.15L9.42 1L12 1L12.16 1.01L12.32 1.05L12.46 1.11L12.59 1.19L12.71 1.29L12.81 1.41L12.89 1.54L12.95 1.68L12.99 1.84L13 2L13 5L13.08 5L13.16 5.01L13.23 5.03L13.31 5.05L13.38 5.08L13.45 5.11L13.52 5.15L13.59 5.19L13.65 5.24L13.71 5.29L13.76 5.35L13.81 5.41L13.85 5.48L13.89 5.55L13.92 5.62L13.95 5.69L13.97 5.77L13.99 5.84L14 5.92L14 6L14 13L14 13.08L13.99 13.16L13.97 13.23L13.95 13.31L13.92 13.38L13.89 13.45L13.85 13.52L13.81 13.59L13.76 13.65L13.71 13.71L13.65 13.76L13.59 13.81L13.52 13.85L13.45 13.89L13.38 13.92L13.31 13.95L13.23 13.97L13.16 13.99L13.08 14L13 14L2.5 14L2.3 13.99L2.11 13.97L1.91 13.93L1.73 13.88L1.54 13.81L1.37 13.73L1.2 13.63L1.03 13.52L0.88 13.4L0.73 13.27L0.6 13.12L0.48 12.97L0.37 12.8L0.27 12.63L0.19 12.46L0.12 12.27L0.07 12.09L0.03 11.89L0.01 11.7L0 11.5L0 3.5L0.01 3.3L0.03 3.11L0.07 2.91L0.12 2.73L0.19 2.54L0.27 2.37L0.37 2.2L0.48 2.03L0.6 1.88L0.73 1.73L0.88 1.6L1.03 1.48L1.2 1.37L1.37 1.27L1.54 1.19L1.73 1.12L1.91 1.07L2.11 1.03L2.3 1.01L2.5 1L7.01 1L7.86 0.15L7.92 0.09L7.99 0.05L8.06 0.02L8.14 0.01L8.21 0L8.29 0.01L8.37 0.02ZM1.02 11.76L1.09 12.02L1.21 12.25L1.36 12.46L1.54 12.64L1.75 12.79L1.98 12.91L2.24 12.98L2.51 13L13 13L13 11L9.5 11L9.23 10.98L8.98 10.91L8.74 10.8L8.53 10.65L8.35 10.47L8.2 10.26L8.09 10.02L8.02 9.77L8 9.5L8.02 9.23L8.09 8.98L8.2 8.74L8.35 8.53L8.53 8.35L8.74 8.2L8.98 8.09L9.23 8.02L9.5 8L13 8L13 6L2.5 6L2.32 5.99L2.14 5.97L1.96 5.94L1.79 5.9L1.62 5.84L1.46 5.77L1.3 5.69L1.15 5.6L1 5.5L1 11.49L1.02 11.76ZM9.31 9.04L9.15 9.15L9.04 9.31L9 9.5L9.04 9.69L9.15 9.85L9.31 9.96L9.5 10L13 10L13 9L9.5 9L9.31 9.04ZM10.42 2L11.42 3L12 3L12 2L10.42 2ZM6.42 3L10.01 3L8.21 1.21L6.42 3ZM2.26 2.02L2.03 2.08L1.81 2.17L1.61 2.29L1.44 2.44L1.29 2.61L1.17 2.81L1.08 3.03L1.02 3.26L1 3.5L1.02 3.74L1.08 3.97L1.17 4.19L1.29 4.39L1.44 4.56L1.61 4.71L1.81 4.83L2.03 4.92L2.26 4.98L2.5 5L12 5L12 4L2.5 4L2.42 3.99L2.34 3.97L2.27 3.94L2.2 3.9L2.15 3.85L2.1 3.79L2.06 3.73L2.03 3.66L2.01 3.58L2 3.5L2.01 3.42L2.03 3.34L2.06 3.27L2.1 3.2L2.15 3.15L2.2 3.1L2.27 3.06L2.34 3.03L2.42 3.01L2.5 3L5.01 3L6.01 2L2.5 2L2.26 2.02Z" id="eewuW6UTm"></path></defs><g><g><g><use xlink:href="#eewuW6UTm" opacity="1" fill="#ffffff" fill-opacity="1"></use></g></g></g></svg>