<?xml version="1.0" encoding="UTF-8" standalone="no"?>
<!DOCTYPE svg PUBLIC "-//W3C//DTD SVG 1.1//EN" "http://www.w3.org/Graphics/SVG/1.1/DTD/svg11.dtd">
<svg version="1.1" xmlns="http://www.w3.org/2000/svg" xmlns:xlink="http://www.w3.org/1999/xlink" preserveAspectRatio="xMidYMid meet" viewBox="0 0 20 24" width="20" height="24"><defs><path d="M7.71 24C7.39 23.68 0 16.13 0 9.08C0 4.07 4.02 0 8.99 0C13.95 0 17.98 4.07 17.98 9.08C17.83 9.08 16.63 9.08 16.48 9.08C16.48 4.9 13.13 1.51 8.99 1.51C4.85 1.51 1.5 4.9 1.5 9.08C1.5 15.5 8.7 22.86 8.77 22.93C8.56 23.14 7.92 23.79 7.71 24Z" id="b2Rg6ayaJp"></path><path d="M11.64 5.65L12.44 6.85L12.73 8.33L12.44 9.8L11.64 11L10.45 11.81L8.99 12.11L7.53 11.81L6.34 11L5.54 9.8L5.24 8.33L5.54 6.85L6.34 5.65L7.53 4.84L8.99 4.54L10.45 4.84L11.64 5.65ZM7.4 6.72L6.92 7.44L6.74 8.33L6.92 9.21L7.4 9.93L8.11 10.42L8.99 10.6L9.86 10.42L10.58 9.93L11.06 9.21L11.24 8.33L11.06 7.44L10.58 6.72L9.86 6.23L8.99 6.05L8.11 6.23L7.4 6.72Z" id="c189fUy2Vb"></path><path d="M12.95 19.46C12.8 19.31 12.05 18.55 10.7 17.19L11.76 16.12L13.48 17.85L18.94 12.34L20 13.4C16.4 17.04 14.41 19.06 14.01 19.46C13.87 19.6 13.68 19.68 13.48 19.68C13.28 19.68 13.09 19.6 12.95 19.46Z" id="b5sS6D4jR1"></path></defs><g><g><g><use xlink:href="#b2Rg6ayaJp" opacity="1" fill="#ffffff" fill-opacity="1"></use><g><use xlink:href="#b2Rg6ayaJp" opacity="1" fill-opacity="0" stroke="#000000" stroke-width="1" stroke-opacity="0"></use></g></g><g><use xlink:href="#c189fUy2Vb" opacity="1" fill="#ffffff" fill-opacity="1"></use><g><use xlink:href="#c189fUy2Vb" opacity="1" fill-opacity="0" stroke="#000000" stroke-width="1" stroke-opacity="0"></use></g></g><g><use xlink:href="#b5sS6D4jR1" opacity="1" fill="#ffffff" fill-opacity="1"></use><g><use xlink:href="#b5sS6D4jR1" opacity="1" fill-opacity="0" stroke="#000000" stroke-width="1" stroke-opacity="0"></use></g></g></g></g></svg>