<svg width="22" height="63" viewBox="0 0 22 63" fill="none" xmlns="http://www.w3.org/2000/svg">
<g opacity="0.8">
<path d="M19.8665 0.200708C20.1341 -0.0669024 20.568 -0.0669029 20.8356 0.200708C21.1032 0.468318 21.1032 0.902201 20.8356 1.16981L1.4535 20.5519C1.18589 20.8195 0.75201 20.8195 0.484399 20.5519C0.216789 20.2843 0.216789 19.8504 0.484399 19.5828L19.8665 0.200708Z" fill="black"/>
<path d="M0.48463 1.16985C0.217019 0.902244 0.217019 0.468361 0.484629 0.200751C0.75224 -0.0668602 1.18612 -0.0668601 1.45373 0.200751L20.8358 19.5828C21.1034 19.8504 21.1034 20.2843 20.8358 20.5519C20.5682 20.8195 20.1343 20.8195 19.8667 20.5519L0.48463 1.16985Z" fill="black"/>
</g>
<path d="M19.8665 21.2007C20.1341 20.9331 20.568 20.9331 20.8356 21.2007C21.1032 21.4683 21.1032 21.9022 20.8356 22.1698L1.4535 41.5519C1.18589 41.8195 0.75201 41.8195 0.484399 41.5519C0.216789 41.2843 0.216789 40.8504 0.484399 40.5828L19.8665 21.2007Z" fill="black"/>
<path d="M0.48463 22.1699C0.217019 21.9022 0.217019 21.4684 0.484629 21.2008C0.75224 20.9331 1.18612 20.9331 1.45373 21.2008L20.8358 40.5828C21.1034 40.8504 21.1034 41.2843 20.8358 41.5519C20.5682 41.8195 20.1343 41.8195 19.8667 41.5519L0.48463 22.1699Z" fill="black"/>
<path d="M18.9288 42.8999C19.1738 42.6549 19.571 42.6549 19.816 42.8999C20.061 43.145 20.061 43.5422 19.816 43.7872L2.07101 61.5324C1.826 61.7774 1.42876 61.7774 1.18376 61.5324C0.938748 61.2874 0.938748 60.8901 1.18376 60.6451L18.9288 42.8999Z" fill="black"/>
<path d="M1.18397 43.7872C0.938959 43.5422 0.938958 43.145 1.18397 42.9C1.42897 42.655 1.82621 42.655 2.07122 42.9L19.8162 60.6452C20.0613 60.8902 20.0613 61.2874 19.8162 61.5324C19.5712 61.7774 19.174 61.7774 18.929 61.5324L1.18397 43.7872Z" fill="black"/>
</svg>
