<svg width="25" height="25" viewBox="0 0 25 25" fill="none" xmlns="http://www.w3.org/2000/svg">
<rect x="0.5" y="0.5" width="24" height="24" rx="12" stroke="#888888" stroke-opacity="0.3"/>
<path d="M9.66289 11.9375H11.9375V9.66289C11.9375 9.36582 12.1889 9.125 12.5 9.125C12.8111 9.125 13.0625 9.36582 13.0625 9.66289V11.9375H15.3371C15.6342 11.9375 15.875 12.1889 15.875 12.5C15.875 12.8111 15.6342 13.0625 15.3371 13.0625H13.0625V15.3371C13.0625 15.6342 12.8111 15.875 12.5 15.875C12.1889 15.875 11.9375 15.6342 11.9375 15.3371V13.0625H9.66289C9.36582 13.0625 9.125 12.8111 9.125 12.5C9.125 12.1889 9.36582 11.9375 9.66289 11.9375Z" fill="#888888"/>
</svg>
