<svg width="18" height="18" viewBox="0 0 18 18" fill="none" xmlns="http://www.w3.org/2000/svg">
<path d="M8.99993 0.0670166C7.23315 0.0670166 5.50604 0.59093 4.03701 1.5725C2.56798 2.55408 1.42301 3.94923 0.746885 5.58153C0.0707651 7.21383 -0.106139 9.00996 0.238544 10.7428C0.583228 12.4756 1.43402 14.0674 2.68332 15.3167C3.93263 16.566 5.52435 17.4168 7.25719 17.7614C8.99003 18.1061 10.7862 17.9292 12.4185 17.2531C14.0508 16.577 15.4459 15.432 16.4275 13.963C17.4091 12.4939 17.933 10.7668 17.933 9.00005C17.933 6.63086 16.9918 4.35871 15.3165 2.68344C13.6413 1.00817 11.3691 0.0670166 8.99993 0.0670166ZM8.99993 16.3795C7.54041 16.3795 6.11367 15.9467 4.90012 15.1359C3.68658 14.325 2.74073 13.1725 2.1822 11.8241C1.62366 10.4756 1.47753 8.99187 1.76226 7.56039C2.047 6.12891 2.74983 4.81402 3.78187 3.78198C4.8139 2.74995 6.1288 2.04712 7.56027 1.76238C8.99175 1.47764 10.4755 1.62378 11.8239 2.18232C13.1724 2.74085 14.3249 3.6867 15.1357 4.90024C15.9466 6.11379 16.3794 7.54053 16.3794 9.00005C16.3794 10.9572 15.6019 12.8342 14.218 14.2181C12.8341 15.602 10.9571 16.3795 8.99993 16.3795V16.3795Z" fill="white"/>
<path d="M8.99981 12.6899C8.80794 12.6906 8.62059 12.7482 8.46143 12.8554C8.30226 12.9625 8.17841 13.1144 8.10552 13.2919C8.03262 13.4694 8.01395 13.6645 8.05185 13.8526C8.08975 14.0407 8.18253 14.2134 8.31848 14.3488C8.45443 14.4842 8.62745 14.5763 8.81569 14.6134C9.00394 14.6506 9.19897 14.6311 9.37617 14.5575C9.55337 14.4839 9.70478 14.3595 9.81131 14.1999C9.91783 14.0403 9.97468 13.8527 9.97468 13.6608C9.9752 13.5328 9.95031 13.406 9.90145 13.2877C9.85259 13.1694 9.78074 13.062 9.69006 12.9717C9.59939 12.8814 9.49168 12.81 9.37319 12.7616C9.25471 12.7132 9.12779 12.6888 8.99981 12.6899Z" fill="white"/>
<path d="M8.99972 3.5625C8.17565 3.5625 7.38534 3.88986 6.80264 4.47256C6.21994 5.05526 5.89258 5.84558 5.89258 6.66964C5.89258 6.87566 5.97442 7.07324 6.12009 7.21891C6.26577 7.36459 6.46335 7.44643 6.66936 7.44643C6.87538 7.44643 7.07296 7.36459 7.21863 7.21891C7.36431 7.07324 7.44615 6.87566 7.44615 6.66964C7.44615 6.25761 7.60983 5.86245 7.90118 5.5711C8.19253 5.27975 8.58769 5.11607 8.99972 5.11607C9.41175 5.11607 9.80691 5.27975 10.0983 5.5711C10.3896 5.86245 10.5533 6.25761 10.5533 6.66964C10.5537 6.94274 10.4821 7.21112 10.3457 7.44773C10.2094 7.68434 10.013 7.88082 9.77651 8.01737C9.30406 8.29013 8.91175 8.68248 8.63904 9.15496C8.36632 9.62744 8.22281 10.1634 8.22293 10.7089V10.942C8.22293 11.148 8.30477 11.3456 8.45045 11.4912C8.59613 11.6369 8.7937 11.7188 8.99972 11.7188C9.20574 11.7188 9.40332 11.6369 9.54899 11.4912C9.69467 11.3456 9.77651 11.148 9.77651 10.942V10.7089C9.7761 10.4358 9.8477 10.1675 9.98407 9.93084C10.1204 9.69423 10.3168 9.49775 10.5533 9.36121C11.146 9.01937 11.6093 8.49145 11.8713 7.85938C12.1333 7.22732 12.1793 6.52645 12.0022 5.86555C11.8252 5.20464 11.4349 4.62067 10.892 4.20424C10.3491 3.78782 9.68393 3.56223 8.99972 3.5625V3.5625Z" fill="white"/>
</svg>
