<svg width="18" height="18" viewBox="0 0 18 18" fill="none" xmlns="http://www.w3.org/2000/svg">
<path d="M15 2.25H3C1.75744 2.25 0.75 3.25744 0.75 4.5V13.5C0.75 14.7426 1.75744 15.75 3 15.75H15C16.2426 15.75 17.25 14.7426 17.25 13.5V4.5C17.25 3.25744 16.2426 2.25 15 2.25ZM15 3.75C15.0861 3.75 15.1674 3.76744 15.2443 3.79406L9 8.78944L2.75569 3.79406C2.83275 3.76744 2.91394 3.75 3 3.75H15ZM15 14.25H3C2.58562 14.25 2.25 13.9144 2.25 13.5V5.31056L8.53144 10.3356C8.66831 10.4453 8.83425 10.5 9 10.5C9.16575 10.5 9.33169 10.4453 9.46856 10.3356L15.75 5.31056V13.5C15.75 13.9144 15.4144 14.25 15 14.25Z" fill="white"/>
</svg>
