<?xml version="1.0" encoding="UTF-8" standalone="no"?>
<!DOCTYPE svg PUBLIC "-//W3C//DTD SVG 1.1//EN" "http://www.w3.org/Graphics/SVG/1.1/DTD/svg11.dtd">
<svg version="1.1" xmlns="http://www.w3.org/2000/svg" xmlns:xlink="http://www.w3.org/1999/xlink" preserveAspectRatio="xMidYMid meet" viewBox="0 0 320 320" width="320" height="320"><defs><path d="M7.33 312.67C2.6 307.93 0 301.65 0 294.98C0.01 269.98 0.03 70.01 0.03 45.01C0.03 31.22 11.25 20 25.04 20C38.94 20 150.13 20 164.02 20C169.54 20 174.02 24.48 174.02 30C174.02 35.52 169.54 40 164.02 40C150.13 40 38.94 40 25.04 40C22.32 40 20.03 42.29 20.03 45.01C20.03 70.01 20.01 269.99 20 294.99C20 296.78 20.92 297.97 21.47 298.53C22.03 299.07 23.22 300 25 300C50 300 249.99 299.97 274.99 299.97C277.7 299.97 280 297.68 280 294.96C280 281.06 280 169.88 280 155.98C280 150.46 284.47 145.98 290 145.98C295.53 145.98 300 150.46 300 155.98C300 169.88 300 281.06 300 294.96C300 308.75 288.78 319.97 274.99 319.97C258.33 319.97 175 319.98 25 320C16.38 318.26 10.49 315.82 7.33 312.67Z" id="b4suwioO4Q"></path><path d="M255.93 0.01L256.15 0.02L256.38 0.04L256.6 0.07L259.1 0.4L261.56 0.81L264 1.3L266.4 1.88L268.77 2.53L271.1 3.25L273.4 4.05L275.66 4.93L277.88 5.88L280.07 6.89L282.21 7.98L284.3 9.13L286.36 10.35L288.36 11.64L290.32 12.99L292.23 14.4L294.09 15.88L295.9 17.41L297.66 19L299.37 20.65L301.01 22.35L302.6 24.11L304.14 25.92L305.61 27.78L307.02 29.69L308.37 31.65L309.66 33.66L310.88 35.71L312.03 37.81L313.12 39.95L314.13 42.13L315.08 44.35L315.95 46.61L316.75 48.91L317.48 51.25L318.13 53.62L318.7 56.02L319.19 58.45L319.6 60.92L319.93 63.41L319.96 63.64L319.98 63.86L319.99 64.09L320 64.32L320 64.54L320 64.77L319.99 64.99L319.98 65.22L319.96 65.44L319.94 65.67L319.91 65.89L319.88 66.11L319.84 66.33L319.8 66.55L319.75 66.77L319.7 66.99L319.64 67.2L319.58 67.42L319.52 67.63L319.45 67.84L319.37 68.05L319.29 68.26L319.2 68.46L319.11 68.67L319.02 68.87L318.92 69.07L318.82 69.27L318.71 69.46L318.6 69.66L318.48 69.85L318.36 70.04L318.23 70.23L318.1 70.41L317.97 70.59L317.83 70.77L317.69 70.95L317.54 71.12L317.39 71.29L317.23 71.45L317.07 71.62L148.47 240.22L148.21 240.48L147.94 240.73L147.67 240.99L147.4 241.23L147.12 241.48L146.84 241.72L146.56 241.95L146.27 242.18L145.98 242.4L145.69 242.63L145.4 242.84L145.1 243.05L144.8 243.26L144.49 243.46L144.18 243.66L143.87 243.86L143.56 244.05L143.25 244.23L142.93 244.41L142.61 244.58L142.28 244.75L141.96 244.92L141.63 245.08L141.3 245.24L140.97 245.39L140.63 245.54L140.29 245.68L139.95 245.81L139.61 245.95L139.27 246.07L138.92 246.19L138.57 246.31L138.22 246.42L137.87 246.53L137.51 246.63L137.16 246.73L136.8 246.82L136.44 246.91L136.08 246.99L135.71 247.07L71.96 259.81L71.92 259.82L71.87 259.83L71.82 259.84L71.77 259.85L71.72 259.85L71.67 259.86L71.62 259.87L71.57 259.88L71.52 259.89L71.47 259.89L71.43 259.9L71.38 259.91L71.33 259.92L71.28 259.92L71.23 259.93L71.18 259.93L71.13 259.94L71.08 259.95L71.03 259.95L70.98 259.96L70.93 259.96L70.89 259.97L70.84 259.97L70.79 259.98L70.74 259.98L70.69 259.98L70.64 259.99L70.59 259.99L70.54 259.99L70.49 260L70.44 260L70.39 260L70.35 260L70.3 260L70.25 260L70.2 260.01L70.15 260.01L70.1 260.01L70.05 260.01L70 260.01L69.81 260.01L69.61 260L69.41 259.99L69.22 259.98L69.02 259.96L68.83 259.94L68.63 259.91L68.44 259.88L68.25 259.85L68.06 259.82L67.86 259.78L67.67 259.73L67.48 259.69L67.3 259.63L67.11 259.58L66.92 259.52L66.74 259.46L66.55 259.39L66.37 259.32L66.19 259.25L66.01 259.18L65.83 259.1L65.66 259.01L65.48 258.93L65.31 258.84L65.14 258.74L64.97 258.65L64.8 258.54L64.63 258.44L64.47 258.33L64.3 258.22L64.14 258.11L63.98 257.99L63.83 257.87L63.67 257.75L63.52 257.62L63.37 257.49L63.22 257.36L63.08 257.22L62.93 257.08L62.76 256.9L62.59 256.72L62.43 256.53L62.27 256.34L62.11 256.15L61.96 255.95L61.82 255.75L61.68 255.55L61.55 255.34L61.42 255.13L61.3 254.92L61.18 254.71L61.07 254.49L60.96 254.27L60.86 254.05L60.76 253.82L60.67 253.6L60.59 253.37L60.51 253.14L60.44 252.91L60.37 252.67L60.31 252.44L60.25 252.2L60.2 251.96L60.16 251.72L60.12 251.48L60.08 251.24L60.06 251L60.04 250.76L60.02 250.51L60.01 250.27L60.01 250.02L60.01 249.77L60.02 249.53L60.03 249.28L60.06 249.03L60.08 248.79L60.12 248.54L60.16 248.29L60.2 248.05L72.94 184.33L73.02 183.97L73.1 183.61L73.19 183.25L73.28 182.89L73.37 182.53L73.47 182.18L73.58 181.83L73.69 181.48L73.81 181.13L73.93 180.78L74.05 180.44L74.19 180.1L74.32 179.76L74.46 179.42L74.61 179.08L74.76 178.75L74.91 178.42L75.07 178.09L75.24 177.76L75.41 177.44L75.58 177.12L75.76 176.8L75.95 176.48L76.14 176.17L76.33 175.86L76.53 175.55L76.73 175.25L76.94 174.95L77.15 174.65L77.37 174.35L77.59 174.06L77.81 173.77L78.04 173.48L78.28 173.19L78.52 172.91L78.76 172.64L79.01 172.36L79.26 172.09L79.51 171.82L79.77 171.56L248.39 2.94L248.56 2.78L248.72 2.62L248.89 2.47L249.07 2.33L249.24 2.18L249.42 2.04L249.6 1.91L249.79 1.78L249.98 1.65L250.17 1.53L250.36 1.41L250.55 1.3L250.75 1.19L250.95 1.09L251.15 0.99L251.35 0.9L251.56 0.81L251.76 0.72L251.97 0.64L252.18 0.56L252.4 0.49L252.61 0.42L252.82 0.36L253.04 0.3L253.26 0.25L253.48 0.2L253.7 0.16L253.92 0.12L254.14 0.09L254.36 0.06L254.58 0.04L254.81 0.02L255.03 0.01L255.25 0L255.48 0L255.7 0L255.93 0.01ZM93.88 185.73L93.83 185.78L93.78 185.84L93.73 185.89L93.68 185.95L93.63 186.01L93.59 186.06L93.54 186.12L93.5 186.18L93.45 186.24L93.41 186.3L93.37 186.36L93.32 186.42L93.28 186.48L93.24 186.54L93.2 186.6L93.17 186.67L93.13 186.73L93.09 186.79L93.06 186.86L93.02 186.92L92.99 186.99L92.96 187.05L92.93 187.12L92.9 187.19L92.87 187.25L92.84 187.32L92.81 187.39L92.78 187.46L92.76 187.53L92.74 187.6L92.71 187.67L92.69 187.74L92.67 187.81L92.65 187.88L92.63 187.95L92.61 188.02L92.59 188.09L92.58 188.17L92.56 188.24L82.76 237.26L131.77 227.46L131.85 227.44L131.92 227.43L131.99 227.41L132.06 227.39L132.13 227.37L132.2 227.35L132.28 227.33L132.35 227.31L132.42 227.28L132.48 227.26L132.55 227.23L132.62 227.21L132.69 227.18L132.76 227.15L132.82 227.12L132.89 227.09L132.96 227.06L133.02 227.03L133.09 226.99L133.15 226.96L133.22 226.93L133.28 226.89L133.34 226.85L133.41 226.82L133.47 226.78L133.53 226.74L133.59 226.7L133.65 226.66L133.71 226.61L133.77 226.57L133.83 226.53L133.89 226.48L133.94 226.43L134 226.39L134.06 226.34L134.11 226.29L134.17 226.24L134.22 226.19L134.27 226.14L134.32 226.09L299.33 61.08L299 59.56L298.62 58.05L298.2 56.57L297.73 55.11L297.23 53.66L296.69 52.24L296.1 50.83L295.48 49.45L294.82 48.09L294.12 46.75L293.39 45.44L292.61 44.15L291.81 42.89L290.96 41.65L290.09 40.44L289.18 39.26L288.23 38.1L287.26 36.97L286.25 35.87L285.21 34.8L284.14 33.76L283.04 32.76L281.91 31.78L280.76 30.84L279.57 29.93L278.36 29.05L277.12 28.21L275.86 27.4L274.57 26.63L273.26 25.89L271.92 25.19L270.56 24.53L269.18 23.91L267.78 23.32L266.35 22.78L264.91 22.28L263.44 21.81L261.96 21.39L260.45 21.01L258.93 20.68L93.93 185.68L93.88 185.73Z" id="c4SSeie8Ad"></path></defs><g><g><g><use xlink:href="#b4suwioO4Q" opacity="1" fill="#000000" fill-opacity="1"></use><g><use xlink:href="#b4suwioO4Q" opacity="1" fill-opacity="0" stroke="#000000" stroke-width="1" stroke-opacity="0"></use></g></g><g><use xlink:href="#c4SSeie8Ad" opacity="1" fill="#000000" fill-opacity="1"></use><g><use xlink:href="#c4SSeie8Ad" opacity="1" fill-opacity="0" stroke="#000000" stroke-width="1" stroke-opacity="0"></use></g></g></g></g></svg>