<?xml version="1.0" encoding="UTF-8" standalone="no"?>
<!DOCTYPE svg PUBLIC "-//W3C//DTD SVG 1.1//EN" "http://www.w3.org/Graphics/SVG/1.1/DTD/svg11.dtd">
<svg version="1.1" xmlns="http://www.w3.org/2000/svg" xmlns:xlink="http://www.w3.org/1999/xlink" preserveAspectRatio="xMidYMid meet" viewBox="0 0 400 400" width="400" height="400"><defs><path d="M371.34 0.1L372.6 0.23L373.84 0.41L375.07 0.64L376.28 0.91L377.47 1.23L378.64 1.59L379.8 2L380.93 2.46L382.03 2.95L383.12 3.49L384.18 4.07L385.22 4.68L386.23 5.34L387.21 6.03L388.16 6.76L389.09 7.52L389.98 8.32L390.85 9.15L391.68 10.02L392.48 10.91L393.24 11.84L393.97 12.79L394.66 13.77L395.32 14.78L395.93 15.82L396.51 16.88L397.05 17.97L397.54 19.07L398 20.2L398.41 21.36L398.77 22.53L399.09 23.72L399.36 24.93L399.59 26.16L399.77 27.4L399.9 28.66L399.97 29.93L400 31.21L400 93.79L399.97 95.07L399.9 96.34L399.77 97.6L399.59 98.84L399.36 100.07L399.09 101.28L398.77 102.47L398.41 103.64L398 104.8L397.54 105.93L397.05 107.03L396.51 108.12L395.93 109.18L395.32 110.22L394.66 111.23L393.97 112.21L393.24 113.16L392.48 114.09L391.68 114.98L390.85 115.85L389.98 116.68L389.09 117.48L388.16 118.24L387.21 118.97L386.23 119.66L385.22 120.32L384.18 120.93L383.12 121.51L382.03 122.05L380.93 122.54L379.8 123L378.64 123.41L377.47 123.77L376.28 124.09L375.07 124.36L375 124.38L375 368.69L374.97 369.98L374.9 371.25L374.77 372.51L374.59 373.76L374.36 374.99L374.09 376.2L373.77 377.4L373.4 378.57L372.99 379.73L372.53 380.86L372.04 381.97L371.5 383.06L370.92 384.13L370.3 385.17L369.64 386.18L368.95 387.17L368.22 388.12L367.45 389.05L366.65 389.95L365.82 390.82L364.95 391.65L364.05 392.45L363.12 393.22L362.17 393.95L361.18 394.64L360.17 395.3L359.13 395.92L358.06 396.5L356.97 397.04L355.86 397.53L354.73 397.99L353.57 398.4L352.4 398.77L351.2 399.09L349.99 399.36L348.76 399.59L347.51 399.77L346.25 399.9L344.98 399.97L343.69 400L56.31 400L55.02 399.97L53.75 399.9L52.49 399.77L51.24 399.59L50.01 399.36L48.8 399.09L47.6 398.77L46.43 398.4L45.27 397.99L44.14 397.53L43.03 397.04L41.94 396.5L40.87 395.92L39.83 395.3L38.82 394.64L37.83 393.95L36.88 393.22L35.95 392.45L35.05 391.65L34.18 390.82L33.35 389.95L32.55 389.05L31.78 388.12L31.05 387.17L30.36 386.18L29.7 385.17L29.08 384.13L28.5 383.06L27.96 381.97L27.47 380.86L27.01 379.73L26.6 378.57L26.23 377.4L25.91 376.2L25.64 374.99L25.41 373.76L25.23 372.51L25.1 371.25L25.03 369.98L25 368.69L25 124.38L24.93 124.36L23.72 124.09L22.53 123.77L21.36 123.41L20.2 123L19.07 122.54L17.97 122.05L16.88 121.51L15.82 120.93L14.78 120.32L13.77 119.66L12.79 118.97L11.84 118.24L10.91 117.48L10.02 116.68L9.15 115.85L8.32 114.98L7.52 114.09L6.76 113.16L6.03 112.21L5.34 111.23L4.68 110.22L4.07 109.18L3.49 108.12L2.95 107.03L2.46 105.93L2 104.8L1.59 103.64L1.23 102.47L0.91 101.28L0.64 100.07L0.41 98.84L0.23 97.6L0.1 96.34L0.03 95.07L0 93.79L0 31.21L0.03 29.93L0.1 28.66L0.23 27.4L0.41 26.16L0.64 24.93L0.91 23.72L1.23 22.53L1.59 21.36L2 20.2L2.46 19.07L2.95 17.97L3.49 16.88L4.07 15.82L4.68 14.78L5.34 13.77L6.03 12.79L6.76 11.84L7.52 10.91L8.32 10.02L9.15 9.15L10.02 8.32L10.91 7.52L11.84 6.76L12.79 6.03L13.77 5.34L14.78 4.68L15.82 4.07L16.88 3.49L17.97 2.95L19.07 2.46L20.2 2L21.36 1.59L22.53 1.23L23.72 0.91L24.93 0.64L26.16 0.41L27.4 0.23L28.66 0.1L29.93 0.03L31.21 0L368.79 0L370.07 0.03L371.34 0.1ZM50 368.69L50.01 368.95L50.02 369.2L50.05 369.46L50.08 369.71L50.13 369.96L50.18 370.2L50.25 370.44L50.32 370.68L50.41 370.91L50.5 371.14L50.6 371.36L50.71 371.58L50.82 371.8L50.95 372.01L51.08 372.21L51.22 372.41L51.37 372.6L51.52 372.79L51.68 372.97L51.85 373.15L52.03 373.32L52.21 373.48L52.4 373.63L52.59 373.78L52.79 373.92L52.99 374.05L53.2 374.18L53.42 374.29L53.64 374.4L53.86 374.5L54.09 374.59L54.32 374.68L54.56 374.75L54.8 374.82L55.04 374.87L55.29 374.92L55.54 374.95L55.8 374.98L56.05 374.99L56.31 375L343.69 375L343.95 374.99L344.2 374.98L344.46 374.95L344.71 374.92L344.96 374.87L345.2 374.82L345.44 374.75L345.68 374.68L345.91 374.59L346.14 374.5L346.36 374.4L346.58 374.29L346.8 374.18L347.01 374.05L347.21 373.92L347.41 373.78L347.6 373.63L347.79 373.48L347.97 373.32L348.15 373.15L348.32 372.97L348.48 372.79L348.63 372.6L348.78 372.41L348.92 372.21L349.05 372.01L349.18 371.8L349.29 371.58L349.4 371.36L349.5 371.14L349.59 370.91L349.68 370.68L349.75 370.44L349.82 370.2L349.87 369.96L349.92 369.71L349.95 369.46L349.98 369.2L349.99 368.95L350 368.69L350 125L50 125L50 368.69ZM263.53 175.04L264.03 175.09L264.53 175.16L265.02 175.25L265.51 175.36L265.98 175.49L266.45 175.64L266.92 175.8L267.37 175.98L267.81 176.18L268.25 176.4L268.67 176.63L269.09 176.87L269.49 177.14L269.89 177.41L270.27 177.7L270.64 178.01L271 178.33L271.34 178.66L271.67 179.01L271.99 179.37L272.3 179.74L272.59 180.12L272.87 180.51L273.13 180.92L273.38 181.33L273.61 181.76L273.82 182.19L274.02 182.64L274.2 183.09L274.36 183.55L274.51 184.02L274.64 184.5L274.75 184.98L274.84 185.47L274.91 185.97L274.96 186.48L274.99 186.99L275 187.5L274.99 188.01L274.96 188.52L274.91 189.03L274.84 189.53L274.75 190.02L274.64 190.5L274.51 190.98L274.36 191.45L274.2 191.91L274.02 192.36L273.82 192.81L273.61 193.24L273.38 193.67L273.13 194.08L272.87 194.49L272.59 194.88L272.3 195.26L271.99 195.63L271.67 195.99L271.34 196.34L271 196.67L270.64 196.99L270.27 197.3L269.89 197.59L269.49 197.86L269.09 198.13L268.67 198.37L268.25 198.6L267.81 198.82L267.37 199.02L266.92 199.2L266.45 199.36L265.98 199.51L265.51 199.64L265.02 199.75L264.53 199.84L264.03 199.91L263.53 199.96L263.02 199.99L262.5 200L137.5 200L136.99 199.99L136.48 199.96L135.97 199.91L135.47 199.84L134.98 199.75L134.5 199.64L134.02 199.51L133.55 199.36L133.09 199.2L132.64 199.02L132.19 198.82L131.76 198.6L131.33 198.37L130.92 198.13L130.51 197.86L130.12 197.59L129.74 197.3L129.37 196.99L129.01 196.67L128.66 196.34L128.33 195.99L128.01 195.63L127.7 195.26L127.41 194.88L127.14 194.49L126.87 194.08L126.63 193.67L126.4 193.24L126.18 192.81L125.98 192.36L125.8 191.91L125.64 191.45L125.49 190.98L125.36 190.5L125.25 190.02L125.16 189.53L125.09 189.03L125.04 188.52L125.01 188.01L125 187.5L125.01 186.99L125.04 186.48L125.09 185.97L125.16 185.47L125.25 184.98L125.36 184.5L125.49 184.02L125.64 183.55L125.8 183.09L125.98 182.64L126.18 182.19L126.4 181.76L126.63 181.33L126.87 180.92L127.14 180.51L127.41 180.12L127.7 179.74L128.01 179.37L128.33 179.01L128.66 178.66L129.01 178.33L129.37 178.01L129.74 177.7L130.12 177.41L130.51 177.14L130.92 176.87L131.33 176.63L131.76 176.4L132.19 176.18L132.64 175.98L133.09 175.8L133.55 175.64L134.02 175.49L134.5 175.36L134.98 175.25L135.47 175.16L135.97 175.09L136.48 175.04L136.99 175.01L137.5 175L262.5 175L263.02 175.01L263.53 175.04ZM30.91 25.14L30.61 25.28L30.32 25.42L30.03 25.56L29.76 25.71L29.49 25.85L29.23 26L28.98 26.14L28.73 26.29L28.49 26.43L28.27 26.58L28.04 26.73L27.83 26.88L27.62 27.03L27.43 27.18L27.24 27.33L27.05 27.48L26.88 27.64L26.71 27.79L26.55 27.95L26.4 28.1L26.26 28.26L26.12 28.42L25.99 28.57L25.87 28.73L25.76 28.89L25.66 29.05L25.56 29.21L25.47 29.38L25.39 29.54L25.31 29.7L25.25 29.87L25.19 30.03L25.14 30.2L25.1 30.37L25.06 30.53L25.03 30.7L25.02 30.87L25 31.04L25 31.21L25 93.79L25.01 94.04L25.02 94.3L25.05 94.55L25.08 94.79L25.13 95.04L25.18 95.28L25.24 95.52L25.32 95.75L25.4 95.98L25.49 96.2L25.59 96.42L25.69 96.64L25.81 96.85L25.93 97.06L26.06 97.26L26.2 97.45L26.35 97.64L26.5 97.83L26.66 98.01L26.82 98.18L26.99 98.34L27.17 98.5L27.36 98.65L27.55 98.8L27.74 98.94L27.94 99.07L28.15 99.19L28.36 99.31L28.58 99.41L28.8 99.51L29.02 99.6L29.25 99.68L29.48 99.76L29.72 99.82L29.96 99.87L30.21 99.92L30.45 99.95L30.7 99.98L30.96 99.99L31.21 100L368.79 100L369.04 99.99L369.3 99.98L369.55 99.95L369.79 99.92L370.04 99.87L370.28 99.82L370.52 99.76L370.75 99.68L370.98 99.6L371.2 99.51L371.42 99.41L371.64 99.31L371.85 99.19L372.06 99.07L372.26 98.94L372.45 98.8L372.64 98.65L372.83 98.5L373.01 98.34L373.18 98.18L373.34 98.01L373.5 97.83L373.65 97.64L373.8 97.45L373.94 97.26L374.07 97.06L374.19 96.85L374.31 96.64L374.41 96.42L374.51 96.2L374.6 95.98L374.68 95.75L374.76 95.52L374.82 95.28L374.87 95.04L374.92 94.79L374.95 94.55L374.98 94.3L374.99 94.04L375 93.79L375 31.21L374.99 30.96L374.98 30.7L374.95 30.45L374.92 30.21L374.87 29.96L374.82 29.72L374.76 29.48L374.68 29.25L374.6 29.02L374.51 28.8L374.41 28.58L374.31 28.36L374.19 28.15L374.07 27.94L373.94 27.74L373.8 27.55L373.65 27.36L373.5 27.17L373.34 26.99L373.18 26.82L373.01 26.66L372.83 26.5L372.64 26.35L372.45 26.2L372.26 26.06L372.06 25.93L371.85 25.81L371.64 25.69L371.42 25.59L371.2 25.49L370.98 25.4L370.75 25.32L370.52 25.24L370.28 25.18L370.04 25.13L369.79 25.08L369.55 25.05L369.3 25.02L369.04 25.01L368.79 25L31.21 25L30.91 25.14Z" id="adVLJKYZs"></path></defs><g><g><g><use xlink:href="#adVLJKYZs" opacity="1" fill="#ffffff" fill-opacity="1"></use><g><use xlink:href="#adVLJKYZs" opacity="1" fill-opacity="0" stroke="#000000" stroke-width="1" stroke-opacity="0"></use></g></g></g></g></svg>