<?xml version="1.0" encoding="UTF-8" standalone="no"?>
<!DOCTYPE svg PUBLIC "-//W3C//DTD SVG 1.1//EN" "http://www.w3.org/Graphics/SVG/1.1/DTD/svg11.dtd">
<svg version="1.1" xmlns="http://www.w3.org/2000/svg" xmlns:xlink="http://www.w3.org/1999/xlink" preserveAspectRatio="xMidYMid meet" viewBox="0 0 205 205" width="205" height="205"><defs><path d="M44.8 64.2C41.27 64.2 38.4 61.33 38.4 57.8C38.4 54.27 41.27 51.4 44.8 51.4C52.48 51.4 113.92 51.4 121.6 51.4C125.14 51.4 128 54.27 128 57.8C128 61.33 125.14 64.2 121.6 64.2C106.24 64.2 52.48 64.2 44.8 64.2Z" id="c4cnIleCv"></path><path d="M44.8 89.8C41.27 89.8 38.4 86.93 38.4 83.4C38.4 79.87 41.27 77 44.8 77C52.48 77 113.92 77 121.6 77C125.14 77 128 79.87 128 83.4C128 86.93 125.14 89.8 121.6 89.8C106.24 89.8 52.48 89.8 44.8 89.8Z" id="e14LhtXzWL"></path><path d="M44.8 115.4C41.27 115.4 38.4 112.54 38.4 109C38.4 105.47 41.27 102.6 44.8 102.6C52.48 102.6 113.92 102.6 121.6 102.6C125.14 102.6 128 105.47 128 109C128 112.54 125.14 115.4 121.6 115.4C106.24 115.4 52.48 115.4 44.8 115.4Z" id="d9pcnJyr9w"></path><path d="M44.8 141C41.27 141 38.4 138.14 38.4 134.6C38.4 131.06 41.27 128.2 44.8 128.2C48.64 128.2 79.36 128.2 83.2 128.2C86.73 128.2 89.6 131.06 89.6 134.6C89.6 138.14 86.73 141 83.2 141C75.52 141 48.64 141 44.8 141Z" id="b19oGeajzP"></path><path d="M172.8 173C172.8 162.41 172.8 77.72 172.8 67.13C172.8 63.6 175.66 60.73 179.2 60.73C182.74 60.73 185.6 63.6 185.6 67.13C185.6 77.72 185.6 162.41 185.6 173C185.6 176.53 182.74 179.4 179.2 179.4C175.66 179.4 172.8 176.53 172.8 173Z" id="b7voCax1m"></path><path d="M151.72 0.25L152.37 0.32L153 0.41L153.63 0.53L154.25 0.67L154.86 0.83L155.46 1.02L156.05 1.23L156.63 1.46L157.2 1.71L157.75 1.99L158.3 2.28L158.83 2.6L159.34 2.93L159.85 3.29L160.34 3.66L160.81 4.05L161.27 4.46L161.71 4.89L162.14 5.33L162.55 5.79L162.94 6.26L163.31 6.75L163.67 7.26L164 7.77L164.32 8.3L164.61 8.85L164.89 9.4L165.14 9.97L165.37 10.55L165.58 11.14L165.77 11.74L165.93 12.35L166.07 12.97L166.19 13.6L166.28 14.23L166.35 14.88L166.39 15.53L166.4 16.19L166.4 179.4L166.41 179.93L166.44 180.45L166.5 180.96L166.57 181.47L166.66 181.98L166.77 182.47L166.9 182.96L167.05 183.44L167.22 183.91L167.41 184.38L167.61 184.83L167.83 185.28L168.07 185.71L168.32 186.14L168.59 186.55L168.87 186.96L169.17 187.35L169.48 187.73L169.81 188.09L170.15 188.45L170.51 188.79L170.87 189.12L171.25 189.43L171.64 189.73L172.05 190.01L172.46 190.28L172.89 190.53L173.32 190.77L173.77 190.99L174.22 191.19L174.69 191.38L175.16 191.55L175.64 191.7L176.13 191.83L176.62 191.94L177.13 192.03L177.64 192.1L178.15 192.16L178.67 192.19L179.2 192.2L179.73 192.19L180.25 192.16L180.76 192.1L181.27 192.03L181.78 191.94L182.27 191.83L182.76 191.7L183.24 191.55L183.71 191.38L184.18 191.19L184.63 190.99L185.08 190.77L185.51 190.53L185.94 190.28L186.35 190.01L186.76 189.73L187.15 189.43L187.53 189.12L187.89 188.79L188.25 188.45L188.59 188.09L188.92 187.73L189.23 187.35L189.53 186.96L189.81 186.55L190.08 186.14L190.33 185.71L190.57 185.28L190.79 184.83L190.99 184.38L191.18 183.91L191.35 183.44L191.5 182.96L191.63 182.47L191.74 181.98L191.83 181.47L191.9 180.96L191.96 180.45L191.99 179.93L192 179.4L192 77L192.01 76.74L192.02 76.48L192.05 76.22L192.08 75.96L192.13 75.71L192.19 75.46L192.25 75.22L192.33 74.98L192.41 74.74L192.5 74.51L192.6 74.28L192.71 74.06L192.83 73.84L192.96 73.63L193.09 73.42L193.23 73.22L193.38 73.03L193.54 72.84L193.7 72.65L193.87 72.48L194.05 72.3L194.23 72.14L194.42 71.98L194.62 71.84L194.82 71.69L195.03 71.56L195.24 71.43L195.46 71.31L195.68 71.2L195.91 71.1L196.14 71.01L196.38 70.93L196.62 70.85L196.86 70.79L197.11 70.73L197.36 70.68L197.62 70.65L197.87 70.62L198.14 70.61L198.4 70.6L198.66 70.61L198.93 70.62L199.18 70.65L199.44 70.68L199.69 70.73L199.94 70.79L200.18 70.85L200.42 70.93L200.66 71.01L200.89 71.1L201.12 71.2L201.34 71.31L201.56 71.43L201.77 71.56L201.98 71.69L202.18 71.84L202.38 71.98L202.57 72.14L202.75 72.3L202.93 72.48L203.1 72.65L203.26 72.84L203.42 73.03L203.57 73.22L203.71 73.42L203.84 73.63L203.97 73.84L204.09 74.06L204.2 74.28L204.3 74.51L204.39 74.74L204.47 74.98L204.55 75.22L204.61 75.46L204.67 75.71L204.72 75.96L204.75 76.22L204.78 76.48L204.79 76.74L204.8 77L204.8 179.4L204.78 180.45L204.71 181.5L204.61 182.53L204.46 183.55L204.28 184.55L204.05 185.55L203.79 186.52L203.49 187.48L203.16 188.43L202.79 189.36L202.38 190.27L201.94 191.16L201.47 192.03L200.96 192.88L200.42 193.7L199.85 194.51L199.26 195.29L198.63 196.05L197.98 196.79L197.29 197.49L196.59 198.18L195.85 198.83L195.09 199.46L194.31 200.05L193.5 200.62L192.68 201.16L191.83 201.67L190.96 202.14L190.07 202.58L189.16 202.99L188.23 203.36L187.28 203.69L186.32 203.99L185.35 204.25L184.35 204.48L183.35 204.66L182.33 204.81L181.3 204.91L180.25 204.98L179.2 205L179.09 205L178.98 205L178.87 205L178.76 205L178.65 204.99L178.54 204.99L178.43 204.99L178.33 204.98L178.22 204.98L178.11 204.98L178 204.97L177.89 204.97L177.78 204.96L177.68 204.95L177.57 204.95L177.46 204.94L177.35 204.93L177.25 204.92L177.14 204.92L177.03 204.91L176.93 204.9L176.82 204.89L176.71 204.88L176.61 204.87L176.5 204.86L176.39 204.84L176.29 204.83L176.18 204.82L176.08 204.81L175.97 204.79L175.86 204.78L175.76 204.77L175.65 204.75L175.55 204.74L175.44 204.72L175.34 204.71L175.23 204.69L175.13 204.68L175.02 204.66L174.92 204.64L174.87 204.66L174.82 204.68L174.77 204.69L174.72 204.71L174.67 204.72L174.62 204.74L174.57 204.75L174.52 204.77L174.47 204.78L174.41 204.79L174.36 204.81L174.31 204.82L174.26 204.83L174.21 204.84L174.15 204.86L174.1 204.87L174.05 204.88L174 204.89L173.94 204.9L173.89 204.91L173.84 204.92L173.78 204.92L173.73 204.93L173.68 204.94L173.62 204.95L173.57 204.95L173.51 204.96L173.46 204.97L173.41 204.97L173.35 204.98L173.3 204.98L173.24 204.98L173.19 204.99L173.13 204.99L173.08 204.99L173.02 205L172.97 205L172.91 205L172.86 205L172.8 205L25.6 205L24.55 204.98L23.5 204.91L22.47 204.81L21.45 204.66L20.45 204.48L19.45 204.25L18.48 203.99L17.52 203.69L16.57 203.36L15.64 202.99L14.73 202.58L13.84 202.14L12.97 201.67L12.12 201.16L11.3 200.62L10.49 200.05L9.71 199.46L8.95 198.83L8.21 198.18L7.51 197.49L6.82 196.79L6.17 196.05L5.54 195.29L4.95 194.51L4.38 193.7L3.84 192.88L3.33 192.03L2.86 191.16L2.42 190.27L2.01 189.36L1.64 188.43L1.31 187.48L1.01 186.52L0.75 185.55L0.52 184.55L0.34 183.55L0.19 182.53L0.09 181.5L0.02 180.45L0 179.4L0 16.19L0.01 15.53L0.05 14.88L0.12 14.23L0.21 13.6L0.33 12.97L0.47 12.35L0.63 11.74L0.82 11.14L1.03 10.55L1.26 9.97L1.51 9.4L1.79 8.85L2.08 8.3L2.4 7.77L2.73 7.26L3.09 6.75L3.46 6.26L3.85 5.79L4.26 5.33L4.69 4.89L5.13 4.46L5.59 4.05L6.06 3.66L6.55 3.29L7.06 2.93L7.57 2.6L8.1 2.28L8.65 1.99L9.2 1.71L9.77 1.46L10.35 1.23L10.94 1.02L11.54 0.83L12.15 0.67L12.77 0.53L13.4 0.41L14.03 0.32L14.68 0.25L15.33 0.21L15.99 0.2L150.41 0.2L151.07 0.21L151.72 0.25ZM15.83 13.07L15.68 13.14L15.53 13.22L15.38 13.29L15.24 13.36L15.1 13.44L14.97 13.51L14.84 13.58L14.71 13.66L14.59 13.73L14.48 13.81L14.36 13.89L14.25 13.96L14.15 14.04L14.04 14.12L13.95 14.2L13.85 14.27L13.76 14.35L13.68 14.43L13.6 14.51L13.52 14.59L13.45 14.67L13.38 14.75L13.31 14.83L13.25 14.91L13.19 15L13.14 15.08L13.09 15.16L13.04 15.24L13 15.33L12.96 15.41L12.93 15.5L12.9 15.58L12.87 15.67L12.85 15.75L12.83 15.84L12.82 15.93L12.81 16.01L12.8 16.1L12.8 16.19L12.8 179.4L12.81 179.93L12.84 180.45L12.9 180.96L12.97 181.47L13.06 181.98L13.17 182.47L13.3 182.96L13.45 183.44L13.62 183.91L13.81 184.38L14.01 184.83L14.23 185.28L14.47 185.71L14.72 186.14L14.99 186.55L15.27 186.96L15.57 187.35L15.88 187.73L16.21 188.09L16.55 188.45L16.91 188.79L17.27 189.12L17.65 189.43L18.04 189.73L18.45 190.01L18.86 190.28L19.29 190.53L19.72 190.77L20.17 190.99L20.62 191.19L21.09 191.38L21.56 191.55L22.04 191.7L22.53 191.83L23.02 191.94L23.53 192.03L24.04 192.1L24.55 192.16L25.07 192.19L25.6 192.2L157.04 192.2L156.87 191.92L156.72 191.63L156.56 191.34L156.41 191.05L156.26 190.76L156.12 190.46L155.98 190.17L155.84 189.87L155.71 189.57L155.58 189.26L155.45 188.96L155.33 188.65L155.21 188.34L155.1 188.03L154.99 187.72L154.88 187.41L154.78 187.09L154.68 186.77L154.59 186.45L154.5 186.13L154.41 185.81L154.33 185.49L154.25 185.16L154.18 184.83L154.11 184.5L154.05 184.17L153.98 183.84L153.93 183.51L153.88 183.17L153.83 182.84L153.79 182.5L153.75 182.16L153.71 181.82L153.68 181.48L153.66 181.13L153.64 180.79L153.62 180.44L153.61 180.1L153.6 179.75L153.6 179.4L153.6 16.19L153.6 16.06L153.59 15.93L153.58 15.8L153.56 15.67L153.53 15.54L153.51 15.42L153.47 15.3L153.44 15.18L153.39 15.06L153.35 14.95L153.3 14.83L153.24 14.72L153.18 14.61L153.12 14.51L153.05 14.41L152.98 14.3L152.91 14.21L152.83 14.11L152.75 14.02L152.66 13.93L152.58 13.85L152.48 13.77L152.39 13.69L152.29 13.62L152.19 13.54L152.09 13.48L151.98 13.41L151.87 13.36L151.76 13.3L151.65 13.25L151.54 13.2L151.42 13.16L151.3 13.13L151.18 13.09L151.05 13.06L150.93 13.04L150.8 13.02L150.67 13.01L150.54 13L150.41 13L15.99 13L15.83 13.07Z" id="c2pHNbJCH1"></path></defs><g><g><g><use xlink:href="#c4cnIleCv" opacity="1" fill="#ffffff" fill-opacity="1"></use><g><use xlink:href="#c4cnIleCv" opacity="1" fill-opacity="0" stroke="#000000" stroke-width="1" stroke-opacity="0"></use></g></g><g><use xlink:href="#e14LhtXzWL" opacity="1" fill="#ffffff" fill-opacity="1"></use><g><use xlink:href="#e14LhtXzWL" opacity="1" fill-opacity="0" stroke="#000000" stroke-width="1" stroke-opacity="0"></use></g></g><g><use xlink:href="#d9pcnJyr9w" opacity="1" fill="#ffffff" fill-opacity="1"></use><g><use xlink:href="#d9pcnJyr9w" opacity="1" fill-opacity="0" stroke="#000000" stroke-width="1" stroke-opacity="0"></use></g></g><g><use xlink:href="#b19oGeajzP" opacity="1" fill="#ffffff" fill-opacity="1"></use><g><use xlink:href="#b19oGeajzP" opacity="1" fill-opacity="0" stroke="#000000" stroke-width="1" stroke-opacity="0"></use></g></g><g><use xlink:href="#b7voCax1m" opacity="1" fill="#ffffff" fill-opacity="1"></use><g><use xlink:href="#b7voCax1m" opacity="1" fill-opacity="0" stroke="#000000" stroke-width="1" stroke-opacity="0"></use></g></g><g><use xlink:href="#c2pHNbJCH1" opacity="1" fill="#ffffff" fill-opacity="1"></use><g><use xlink:href="#c2pHNbJCH1" opacity="1" fill-opacity="0" stroke="#000000" stroke-width="1" stroke-opacity="0"></use></g></g></g></g></svg>