<?xml version="1.0" encoding="UTF-8" standalone="no"?>
<!DOCTYPE svg PUBLIC "-//W3C//DTD SVG 1.1//EN" "http://www.w3.org/Graphics/SVG/1.1/DTD/svg11.dtd">
<svg version="1.1" xmlns="http://www.w3.org/2000/svg" xmlns:xlink="http://www.w3.org/1999/xlink" preserveAspectRatio="xMidYMid meet" viewBox="0 0 256 256" width="256" height="256"><defs><path d="M237.8 0.01L238.18 0.03L238.55 0.06L238.93 0.09L239.3 0.13L239.67 0.18L240.04 0.23L240.41 0.3L240.77 0.36L241.14 0.44L241.5 0.52L241.86 0.61L242.21 0.71L242.57 0.81L242.92 0.92L243.27 1.04L243.62 1.17L243.96 1.3L244.31 1.44L244.65 1.58L244.98 1.73L245.32 1.89L245.65 2.05L245.97 2.23L246.3 2.4L246.62 2.59L246.94 2.78L247.25 2.98L247.56 3.18L247.87 3.39L248.17 3.61L248.47 3.83L248.77 4.06L249.06 4.29L249.35 4.53L249.63 4.78L249.91 5.03L250.19 5.29L250.46 5.56L250.72 5.83L250.98 6.11L251.23 6.39L251.48 6.67L251.72 6.96L251.96 7.25L252.19 7.55L252.41 7.85L252.62 8.15L252.83 8.46L253.04 8.77L253.23 9.08L253.42 9.4L253.61 9.72L253.78 10.04L253.96 10.37L254.12 10.7L254.28 11.04L254.43 11.37L254.57 11.71L254.71 12.06L254.84 12.4L254.96 12.75L255.08 13.1L255.19 13.45L255.29 13.81L255.39 14.16L255.48 14.52L255.56 14.88L255.63 15.25L255.7 15.61L255.76 15.98L255.82 16.35L255.86 16.72L255.9 17.09L255.94 17.47L255.96 17.84L255.98 18.22L255.99 18.6L255.99 18.98L255.94 124.46L255.97 124.88L255.99 125.3L256 125.72L256 126.13L255.99 126.55L255.98 126.96L255.95 127.38L255.91 127.79L255.87 128.2L255.82 128.61L255.76 129.01L255.69 129.42L255.61 129.82L255.52 130.22L255.43 130.62L255.32 131.01L255.21 131.41L255.09 131.8L254.96 132.19L254.82 132.57L254.68 132.95L254.52 133.33L254.36 133.71L254.19 134.08L254.01 134.45L253.82 134.82L253.63 135.18L253.43 135.53L253.22 135.89L253 136.24L252.77 136.58L252.54 136.92L252.3 137.26L252.05 137.59L251.79 137.92L251.53 138.24L251.25 138.56L250.97 138.87L250.69 139.18L250.39 139.48L139.49 250.38L139.21 250.65L138.94 250.92L138.65 251.17L138.37 251.42L138.07 251.67L137.78 251.9L137.48 252.13L137.18 252.36L136.87 252.58L136.56 252.79L136.25 253L135.93 253.2L135.61 253.39L135.28 253.57L134.95 253.75L134.62 253.93L134.29 254.09L133.95 254.25L133.61 254.4L133.27 254.55L132.92 254.69L132.57 254.82L132.22 254.95L131.87 255.07L131.51 255.18L131.15 255.28L130.79 255.38L130.43 255.47L130.06 255.56L129.69 255.63L129.32 255.7L128.95 255.76L128.58 255.82L128.2 255.87L127.83 255.91L127.45 255.94L127.07 255.97L126.69 255.99L126.3 256L125.92 256L125.54 256L125.15 255.99L124.77 255.97L124.39 255.94L124.02 255.91L123.64 255.87L123.26 255.82L122.89 255.76L122.52 255.7L122.15 255.63L121.78 255.56L121.42 255.47L121.05 255.38L120.69 255.28L120.34 255.18L119.98 255.07L119.62 254.95L119.27 254.82L118.92 254.69L118.58 254.55L118.24 254.4L117.9 254.25L117.56 254.09L117.22 253.93L116.89 253.75L116.57 253.57L116.24 253.39L115.92 253.2L115.6 253L115.29 252.79L114.98 252.58L114.67 252.36L114.37 252.13L114.07 251.9L113.77 251.67L113.48 251.42L113.2 251.17L112.91 250.92L112.63 250.65L112.36 250.38L5.62 143.63L5.35 143.36L5.09 143.08L4.83 142.8L4.58 142.51L4.34 142.22L4.1 141.93L3.87 141.63L3.64 141.33L3.43 141.02L3.21 140.71L3.01 140.4L2.81 140.08L2.62 139.76L2.43 139.43L2.25 139.11L2.08 138.77L1.91 138.44L1.75 138.1L1.6 137.76L1.45 137.42L1.31 137.07L1.18 136.73L1.05 136.37L0.94 136.02L0.82 135.66L0.72 135.31L0.62 134.94L0.53 134.58L0.45 134.22L0.37 133.85L0.3 133.48L0.24 133.11L0.18 132.74L0.13 132.36L0.09 131.98L0.06 131.61L0.03 131.23L0.01 130.85L0 130.46L0 130.08L0 129.7L0.01 129.31L0.03 128.93L0.06 128.55L0.09 128.18L0.13 127.8L0.18 127.42L0.24 127.05L0.3 126.68L0.37 126.31L0.45 125.94L0.53 125.58L0.62 125.21L0.72 124.85L0.82 124.5L0.94 124.14L1.05 123.78L1.18 123.43L1.31 123.08L1.45 122.74L1.6 122.4L1.75 122.06L1.91 121.72L2.08 121.38L2.25 121.05L2.43 120.73L2.62 120.4L2.81 120.08L3.01 119.76L3.21 119.45L3.43 119.14L3.64 118.83L3.87 118.53L4.1 118.23L4.34 117.93L4.58 117.64L4.83 117.36L5.09 117.07L5.35 116.79L5.62 116.52L116.52 5.62L116.83 5.31L117.14 5.02L117.46 4.73L117.79 4.45L118.12 4.18L118.45 3.92L118.79 3.67L119.14 3.42L119.49 3.18L119.84 2.95L120.2 2.73L120.56 2.52L120.93 2.31L121.3 2.12L121.68 1.93L122.06 1.75L122.44 1.58L122.82 1.41L123.21 1.26L123.61 1.11L124 0.98L124.4 0.85L124.8 0.73L125.21 0.62L125.62 0.52L126.03 0.42L126.44 0.34L126.86 0.27L127.27 0.2L127.69 0.15L128.12 0.1L128.54 0.06L128.97 0.03L129.39 0.01L129.82 0L130.25 0L130.68 0.01L131.12 0.03L131.55 0.06L131.98 0.1L237.04 0L237.42 0L237.8 0.01ZM131.18 16.05L131.14 16.04L131.12 16.04L131.08 16.04L131.06 16.04L131.03 16.04L131.01 16.04L130.97 16.04L130.95 16.03L130.91 16.03L130.89 16.03L130.86 16.03L130.82 16.03L130.8 16.03L130.77 16.03L130.73 16.03L130.7 16.03L130.68 16.03L130.65 16.03L130.61 16.02L130.58 16.02L130.55 16.02L130.51 16.02L130.48 16.02L130.38 16.02L130.29 16.03L130.2 16.03L130.1 16.03L130.02 16.04L129.93 16.05L129.84 16.05L129.76 16.06L129.68 16.07L129.6 16.08L129.52 16.1L129.44 16.11L129.37 16.13L129.29 16.14L129.22 16.16L129.15 16.18L129.08 16.2L129.02 16.22L128.95 16.24L128.89 16.26L128.82 16.28L128.76 16.31L128.7 16.33L128.64 16.36L128.58 16.39L128.53 16.42L128.47 16.45L128.42 16.48L128.36 16.51L128.31 16.54L128.26 16.58L128.21 16.61L128.16 16.65L128.11 16.69L128.06 16.72L128.01 16.76L127.97 16.8L127.92 16.84L127.88 16.89L127.83 16.93L16.93 127.83L16.87 127.89L16.81 127.95L16.76 128.02L16.71 128.08L16.66 128.14L16.61 128.2L16.56 128.27L16.52 128.33L16.48 128.39L16.44 128.45L16.41 128.52L16.37 128.58L16.34 128.64L16.31 128.71L16.28 128.77L16.25 128.83L16.23 128.89L16.2 128.95L16.18 129.01L16.16 129.07L16.14 129.13L16.12 129.19L16.11 129.25L16.09 129.31L16.08 129.36L16.07 129.42L16.06 129.47L16.05 129.53L16.04 129.58L16.03 129.63L16.02 129.68L16.02 129.73L16.01 129.78L16.01 129.83L16.01 129.87L16 129.92L16 129.96L16 130L16 130.04L16 130.08L16 130.12L16 130.16L16 130.2L16 130.24L16.01 130.28L16.01 130.33L16.01 130.37L16.02 130.42L16.02 130.47L16.03 130.52L16.04 130.57L16.05 130.63L16.06 130.68L16.07 130.73L16.08 130.79L16.09 130.85L16.11 130.9L16.12 130.96L16.14 131.02L16.16 131.08L16.18 131.14L16.2 131.2L16.23 131.26L16.25 131.32L16.28 131.38L16.31 131.45L16.34 131.51L16.37 131.57L16.41 131.63L16.44 131.7L16.48 131.76L16.52 131.82L16.56 131.89L16.61 131.95L16.66 132.01L16.71 132.07L16.76 132.14L16.81 132.2L16.87 132.26L16.93 132.32L123.67 239.07L123.79 239.19L123.91 239.3L124.03 239.41L124.15 239.51L124.26 239.6L124.38 239.69L124.49 239.78L124.6 239.85L124.72 239.92L124.83 239.99L124.94 240.04L125.05 240.1L125.16 240.14L125.27 240.18L125.37 240.21L125.48 240.24L125.59 240.26L125.7 240.28L125.81 240.29L125.91 240.29L126.02 240.29L126.13 240.28L126.24 240.26L126.34 240.24L126.45 240.21L126.56 240.18L126.67 240.14L126.78 240.1L126.89 240.04L127 239.99L127.11 239.92L127.22 239.85L127.34 239.78L127.45 239.69L127.57 239.6L127.68 239.51L127.8 239.41L127.92 239.3L128.04 239.19L128.16 239.07L239.06 128.17L239.11 128.12L239.16 128.07L239.21 128.01L239.26 127.96L239.3 127.9L239.34 127.85L239.39 127.79L239.43 127.74L239.47 127.68L239.5 127.62L239.54 127.56L239.58 127.5L239.61 127.44L239.64 127.38L239.67 127.31L239.7 127.25L239.73 127.19L239.76 127.12L239.78 127.06L239.81 126.99L239.83 126.93L239.85 126.86L239.87 126.79L239.89 126.73L239.91 126.66L239.92 126.59L239.94 126.52L239.95 126.45L239.96 126.38L239.97 126.32L239.98 126.25L239.98 126.18L239.99 126.11L239.99 126.03L239.99 125.96L239.99 125.89L239.99 125.82L239.99 125.75L239.98 125.68L239.98 125.61L239.97 125.59L239.97 125.55L239.97 125.53L239.97 125.51L239.97 125.49L239.96 125.45L239.96 125.43L239.96 125.41L239.96 125.39L239.96 125.37L239.96 125.35L239.95 125.33L239.95 125.29L239.95 125.27L239.95 125.25L239.95 125.23L239.95 125.21L239.95 125.19L239.94 125.17L239.94 125.13L239.94 125.11L239.94 125.09L239.94 125.06L239.94 125.04L239.94 125.02L239.94 125L239.94 124.98L239.94 124.96L239.94 124.94L239.94 124.92L239.94 124.9L239.94 124.88L239.94 124.86L239.94 124.84L239.94 124.82L239.94 124.8L239.98 18.96L239.98 18.88L239.98 18.8L239.98 18.73L239.97 18.65L239.96 18.58L239.95 18.5L239.94 18.43L239.93 18.36L239.91 18.29L239.9 18.23L239.88 18.16L239.86 18.1L239.84 18.03L239.82 17.97L239.8 17.91L239.77 17.85L239.75 17.8L239.73 17.74L239.7 17.69L239.68 17.63L239.65 17.58L239.62 17.53L239.6 17.48L239.57 17.44L239.54 17.39L239.51 17.35L239.48 17.3L239.45 17.26L239.43 17.22L239.4 17.18L239.37 17.15L239.34 17.11L239.31 17.07L239.28 17.04L239.26 17.01L239.23 16.98L239.2 16.95L239.18 16.92L239.15 16.9L239.13 16.87L239.1 16.85L239.08 16.82L239.05 16.79L239.02 16.77L238.99 16.74L238.96 16.71L238.93 16.68L238.89 16.66L238.85 16.63L238.82 16.6L238.78 16.57L238.74 16.54L238.7 16.51L238.65 16.48L238.61 16.45L238.56 16.42L238.52 16.4L238.47 16.37L238.42 16.34L238.37 16.31L238.31 16.29L238.26 16.26L238.2 16.24L238.15 16.21L238.09 16.19L238.03 16.17L237.97 16.15L237.9 16.13L237.84 16.11L237.77 16.09L237.71 16.07L237.64 16.06L237.57 16.05L237.5 16.03L237.42 16.02L237.35 16.02L237.27 16.01L237.2 16L237.12 16L237.04 16L131.2 16.05L131.18 16.05Z" id="a3kPwAPp2X"></path><path d="M82.34 141.66C79.22 138.53 79.22 133.47 82.34 130.34C87.94 124.74 132.74 79.94 138.34 74.34C141.47 71.22 146.53 71.22 149.66 74.34C152.78 77.47 152.78 82.53 149.66 85.66C144.06 91.26 99.26 136.06 93.66 141.66C92.1 143.22 90.05 144 88 144C85.95 144 83.9 143.22 82.34 141.66Z" id="j7U2qgV6b"></path><path d="M114.34 173.66C111.22 170.53 111.22 165.47 114.34 162.34C119.94 156.74 164.74 111.94 170.34 106.34C173.47 103.22 178.53 103.22 181.66 106.34C184.78 109.47 184.78 114.53 181.66 117.66C176.06 123.26 131.26 168.06 125.66 173.66C124.1 175.22 122.05 176 120 176C117.95 176 115.9 175.22 114.34 173.66Z" id="e42KWIA2WX"></path><path d="M202.32 53.68C200.87 52.16 200 50.08 200 48C200 45.92 200.87 43.84 202.32 42.32C205.36 39.36 210.72 39.36 213.68 42.32C215.12 43.84 216 45.92 216 48C216 50.08 215.12 52.16 213.68 53.68C212.16 55.12 210.08 56 208 56C205.92 56 203.83 55.12 202.32 53.68Z" id="daxn8kZKF"></path></defs><g><g><g><use xlink:href="#a3kPwAPp2X" opacity="1" fill="#000000" fill-opacity="1"></use><g><use xlink:href="#a3kPwAPp2X" opacity="1" fill-opacity="0" stroke="#000000" stroke-width="1" stroke-opacity="0"></use></g></g><g><use xlink:href="#j7U2qgV6b" opacity="1" fill="#000000" fill-opacity="1"></use><g><use xlink:href="#j7U2qgV6b" opacity="1" fill-opacity="0" stroke="#000000" stroke-width="1" stroke-opacity="0"></use></g></g><g><use xlink:href="#e42KWIA2WX" opacity="1" fill="#000000" fill-opacity="1"></use><g><use xlink:href="#e42KWIA2WX" opacity="1" fill-opacity="0" stroke="#000000" stroke-width="1" stroke-opacity="0"></use></g></g><g><use xlink:href="#daxn8kZKF" opacity="1" fill="#000000" fill-opacity="1"></use><g><use xlink:href="#daxn8kZKF" opacity="1" fill-opacity="0" stroke="#000000" stroke-width="1" stroke-opacity="0"></use></g></g></g></g></svg>