<?xml version="1.0" encoding="UTF-8" standalone="no"?>
<!DOCTYPE svg PUBLIC "-//W3C//DTD SVG 1.1//EN" "http://www.w3.org/Graphics/SVG/1.1/DTD/svg11.dtd">
<svg version="1.1" xmlns="http://www.w3.org/2000/svg" xmlns:xlink="http://www.w3.org/1999/xlink" preserveAspectRatio="xMidYMid meet" viewBox="0 0 400 400" width="400" height="400"><defs><path d="M175.71 0.54L181.95 1.14L188.17 1.97L194.36 3.05L200.52 4.36L206.62 5.92L212.68 7.71L218.67 9.74L224.6 12.01L230.46 14.52L236.23 17.27L241.92 20.26L247.5 23.48L252.99 26.95L258.36 30.65L263.62 34.6L268.74 38.78L273.74 43.2L278.59 47.86L282.9 52.34L287.01 56.93L290.91 61.64L294.61 66.47L298.11 71.39L301.4 76.41L304.49 81.52L307.38 86.72L310.06 92L312.54 97.35L314.81 102.77L316.88 108.26L318.75 113.8L320.41 119.39L321.87 125.02L323.12 130.69L324.18 136.4L325.02 142.13L325.67 147.89L326.11 153.66L326.34 159.44L326.38 165.23L326.2 171.01L325.83 176.78L325.25 182.54L324.47 188.28L323.48 194L322.29 199.69L320.9 205.33L319.3 210.94L317.5 216.49L315.5 222L313.29 227.44L310.87 232.81L308.26 238.11L305.44 243.34L302.41 248.48L299.19 253.53L295.76 258.49L292.12 263.34L394.05 365.28L394.63 365.88L395.18 366.5L395.7 367.14L396.19 367.79L396.65 368.46L397.09 369.14L397.49 369.84L397.86 370.54L398.2 371.26L398.51 371.99L398.8 372.73L399.05 373.47L399.27 374.23L399.47 374.99L399.63 375.75L399.76 376.52L399.87 377.3L399.94 378.07L399.99 378.85L400 379.63L399.98 380.41L399.94 381.19L399.86 381.97L399.76 382.75L399.62 383.52L399.46 384.29L399.26 385.05L399.04 385.8L398.78 386.55L398.49 387.29L398.18 388.02L397.83 388.75L397.46 389.46L397.05 390.16L396.62 390.84L396.15 391.52L395.65 392.18L395.13 392.82L394.57 393.45L393.98 394.06L393.38 394.64L392.75 395.19L392.11 395.72L391.45 396.21L390.78 396.67L390.09 397.1L389.39 397.5L388.68 397.87L387.96 398.21L387.22 398.53L386.48 398.81L385.73 399.06L384.97 399.28L384.2 399.47L383.43 399.63L382.65 399.77L381.87 399.87L381.09 399.94L380.31 399.99L379.53 400L378.74 399.98L377.96 399.94L377.18 399.86L376.4 399.76L375.63 399.63L374.86 399.46L374.1 399.27L373.35 399.05L372.6 398.8L371.86 398.52L371.14 398.21L370.42 397.87L369.72 397.51L369.03 397.11L368.35 396.69L367.69 396.23L367.04 395.75L366.41 395.24L365.8 394.7L365.2 394.13L263.27 292.19L258.42 295.83L253.46 299.26L248.41 302.49L243.27 305.51L238.05 308.33L232.74 310.95L227.37 313.36L221.93 315.57L216.43 317.57L210.87 319.37L205.27 320.97L199.62 322.37L193.93 323.56L188.22 324.54L182.48 325.32L176.72 325.9L170.94 326.28L165.16 326.45L159.37 326.42L153.59 326.18L147.82 325.74L142.07 325.1L136.34 324.25L130.63 323.2L124.96 321.94L119.32 320.48L113.73 318.82L108.19 316.95L102.71 314.88L97.29 312.61L91.94 310.13L86.66 307.45L81.46 304.56L76.35 301.47L71.33 298.18L66.4 294.68L61.58 290.98L56.87 287.08L52.27 282.97L47.8 278.66L43.14 273.81L38.72 268.81L34.53 263.68L30.59 258.43L26.89 253.06L23.42 247.57L20.19 241.99L17.21 236.3L14.46 230.53L11.95 224.67L9.68 218.74L7.65 212.75L5.86 206.69L4.3 200.58L2.99 194.43L1.91 188.24L1.08 182.02L0.48 175.78L0.12 169.52L0 163.26L0.12 157L0.48 150.74L1.08 144.5L1.91 138.28L2.99 132.09L4.3 125.94L5.86 119.83L7.65 113.77L9.68 107.78L11.95 101.85L14.46 95.99L17.21 90.22L20.19 84.53L23.42 78.95L26.89 73.46L30.59 68.09L34.53 62.84L38.72 57.71L43.14 52.71L47.8 47.86L52.65 43.2L57.65 38.78L62.77 34.6L68.03 30.65L73.4 26.95L78.88 23.48L84.47 20.26L90.16 17.27L95.93 14.52L101.78 12.01L107.71 9.74L113.71 7.71L119.77 5.92L125.87 4.36L132.02 3.05L138.21 1.97L144.43 1.14L150.67 0.54L156.93 0.18L163.19 0.06L169.46 0.18L175.71 0.54ZM153.8 41.22L149.12 41.67L144.46 42.29L139.82 43.1L135.2 44.09L130.62 45.25L126.08 46.6L121.58 48.12L117.14 49.82L112.75 51.7L108.41 53.77L104.15 56.01L99.96 58.43L95.85 61.03L91.82 63.8L87.88 66.76L84.03 69.9L80.29 73.21L76.65 76.71L73.15 80.35L69.84 84.1L66.7 87.94L63.74 91.88L60.96 95.91L58.36 100.02L55.94 104.22L53.7 108.48L51.64 112.81L49.76 117.2L48.06 121.65L46.53 126.15L45.19 130.69L44.02 135.27L43.04 139.88L42.23 144.52L41.61 149.19L41.16 153.87L40.89 158.56L40.8 163.26L40.89 167.96L41.16 172.65L41.61 177.33L42.23 182L43.04 186.64L44.02 191.25L45.19 195.83L46.53 200.37L48.06 204.87L49.76 209.32L51.64 213.71L53.7 218.04L55.94 222.3L58.36 226.5L60.96 230.61L63.74 234.64L66.7 238.58L69.84 242.42L73.15 246.17L76.65 249.81L80.29 253.31L84.03 256.62L87.88 259.76L91.82 262.72L95.85 265.49L99.96 268.09L104.15 270.51L108.41 272.75L112.75 274.82L117.14 276.7L121.58 278.4L126.08 279.92L130.62 281.27L135.2 282.43L139.82 283.42L144.46 284.23L149.12 284.85L153.8 285.3L158.5 285.57L163.19 285.66L167.89 285.57L172.58 285.3L177.26 284.85L181.93 284.23L186.57 283.42L191.18 282.43L195.77 281.27L200.31 279.92L204.8 278.4L209.25 276.7L213.64 274.82L217.97 272.75L222.24 270.51L226.43 268.09L230.54 265.49L234.57 262.72L238.51 259.76L242.36 256.62L246.1 253.31L249.74 249.81L253.24 246.17L256.55 242.42L259.69 238.58L262.65 234.64L265.42 230.61L268.02 226.5L270.44 222.3L272.68 218.04L274.75 213.71L276.63 209.32L278.33 204.87L279.85 200.37L281.2 195.83L282.36 191.25L283.35 186.64L284.16 182L284.78 177.33L285.23 172.65L285.5 167.96L285.59 163.26L285.5 158.56L285.23 153.87L284.78 149.19L284.16 144.52L283.35 139.88L282.36 135.27L281.2 130.69L279.85 126.15L278.33 121.65L276.63 117.2L274.75 112.81L272.68 108.48L270.44 104.22L268.02 100.02L265.42 95.91L262.65 91.88L259.69 87.94L256.55 84.1L253.24 80.35L249.74 76.71L246.1 73.21L242.36 69.9L238.51 66.76L234.57 63.8L230.54 61.03L226.43 58.43L222.24 56.01L217.97 53.77L213.64 51.7L209.25 49.82L204.8 48.12L200.31 46.6L195.77 45.25L191.18 44.09L186.57 43.1L181.93 42.29L177.26 41.67L172.58 41.22L167.89 40.95L163.19 40.86L158.5 40.95L153.8 41.22Z" id="bTAjTfWVl"></path></defs><g><g><g><use xlink:href="#bTAjTfWVl" opacity="1" fill="#000000" fill-opacity="1"></use><g><use xlink:href="#bTAjTfWVl" opacity="1" fill-opacity="0" stroke="#000000" stroke-width="1" stroke-opacity="0"></use></g></g></g></g></svg>