<?xml version="1.0" encoding="UTF-8" standalone="no"?>
<!DOCTYPE svg PUBLIC "-//W3C//DTD SVG 1.1//EN" "http://www.w3.org/Graphics/SVG/1.1/DTD/svg11.dtd">
<svg version="1.1" xmlns="http://www.w3.org/2000/svg" xmlns:xlink="http://www.w3.org/1999/xlink" preserveAspectRatio="xMidYMid meet" viewBox="0 0 164 159" width="164" height="159"><defs><path d="M82.2 0.01L82.37 0.02L82.53 0.03L82.7 0.05L82.86 0.07L83.02 0.11L83.18 0.14L83.34 0.18L83.5 0.23L83.65 0.27L83.8 0.33L83.95 0.39L84.1 0.45L84.25 0.52L84.39 0.59L84.53 0.67L84.67 0.75L84.8 0.84L84.93 0.93L85.06 1.02L85.19 1.12L85.31 1.22L85.43 1.32L85.55 1.43L85.66 1.54L85.77 1.66L85.88 1.78L85.98 1.9L86.08 2.03L86.18 2.16L86.27 2.29L86.36 2.43L86.44 2.57L86.52 2.71L86.59 2.85L86.66 3L86.73 3.15L86.79 3.3L86.84 3.46L86.89 3.62L86.94 3.78L101.29 56.38L158.88 56.38L159.04 56.38L159.21 56.39L159.37 56.4L159.54 56.42L159.7 56.44L159.86 56.47L160.02 56.5L160.18 56.54L160.33 56.59L160.49 56.64L160.64 56.69L160.79 56.75L160.94 56.81L161.08 56.87L161.22 56.95L161.37 57.02L161.5 57.1L161.64 57.19L161.77 57.27L161.9 57.37L162.03 57.46L162.15 57.56L162.27 57.67L162.39 57.77L162.51 57.88L162.62 58L162.73 58.12L162.83 58.24L162.93 58.37L163.03 58.5L163.12 58.63L163.21 58.76L163.29 58.9L163.37 59.04L163.45 59.19L163.52 59.34L163.59 59.49L163.65 59.64L163.71 59.79L163.76 59.95L163.81 60.11L163.85 60.27L163.89 60.44L163.92 60.6L163.95 60.76L163.97 60.92L163.98 61.08L163.99 61.25L164 61.41L164 61.57L164 61.73L163.99 61.89L163.97 62.05L163.95 62.21L163.93 62.37L163.9 62.52L163.86 62.68L163.82 62.84L163.78 62.99L163.73 63.14L163.68 63.29L163.62 63.44L163.56 63.59L163.49 63.73L163.42 63.87L163.34 64.01L163.26 64.15L163.18 64.29L163.09 64.42L162.99 64.55L162.9 64.68L162.79 64.81L162.69 64.93L162.58 65.05L162.46 65.17L162.34 65.28L162.22 65.39L162.09 65.49L161.96 65.6L161.83 65.69L116.23 97.83L138.01 151.83L138.07 151.99L138.12 152.15L138.17 152.31L138.22 152.47L138.26 152.63L138.29 152.8L138.32 152.96L138.34 153.12L138.36 153.29L138.37 153.45L138.38 153.61L138.38 153.77L138.37 153.94L138.36 154.1L138.35 154.26L138.33 154.42L138.31 154.58L138.28 154.74L138.25 154.9L138.21 155.06L138.16 155.21L138.11 155.37L138.06 155.52L138 155.67L137.94 155.82L137.87 155.97L137.8 156.11L137.72 156.26L137.64 156.4L137.55 156.54L137.46 156.67L137.37 156.81L137.27 156.94L137.16 157.06L137.05 157.19L136.94 157.31L136.82 157.43L136.7 157.54L136.57 157.66L136.44 157.76L136.3 157.87L136.17 157.96L136.03 158.06L135.88 158.14L135.74 158.23L135.59 158.31L135.45 158.38L135.3 158.45L135.14 158.51L134.99 158.57L134.84 158.62L134.68 158.67L134.52 158.71L134.37 158.75L134.21 158.78L134.05 158.81L133.89 158.83L133.73 158.85L133.57 158.86L133.41 158.87L133.24 158.87L133.08 158.87L132.92 158.86L132.76 158.85L132.6 158.83L132.44 158.81L132.28 158.78L132.12 158.75L131.96 158.71L131.81 158.67L131.65 158.62L131.49 158.57L131.34 158.51L131.19 158.44L131.04 158.37L130.89 158.3L130.74 158.22L130.6 158.13L130.45 158.04L130.31 157.95L82 124.13L33.69 157.95L33.62 158L33.55 158.04L33.49 158.09L33.42 158.13L33.35 158.17L33.28 158.21L33.21 158.25L33.14 158.29L33.07 158.32L33 158.36L32.93 158.39L32.86 158.42L32.79 158.46L32.71 158.49L32.64 158.52L32.57 158.54L32.49 158.57L32.42 158.6L32.35 158.62L32.27 158.65L32.2 158.67L32.12 158.69L32.05 158.71L31.97 158.73L31.9 158.75L31.82 158.76L31.75 158.78L31.67 158.79L31.59 158.81L31.52 158.82L31.44 158.83L31.37 158.84L31.29 158.85L31.21 158.86L31.14 158.86L31.06 158.87L30.98 158.87L30.9 158.87L30.83 158.88L30.75 158.88L30.67 158.88L30.58 158.87L30.5 158.87L30.41 158.87L30.33 158.86L30.24 158.85L30.16 158.84L30.07 158.83L29.99 158.82L29.91 158.81L29.82 158.79L29.74 158.78L29.66 158.76L29.57 158.74L29.49 158.72L29.41 158.7L29.33 158.67L29.24 158.65L29.16 158.62L29.08 158.6L29 158.57L28.92 158.54L28.84 158.51L28.76 158.47L28.68 158.44L28.6 158.4L28.53 158.37L28.45 158.33L28.37 158.29L28.3 158.25L28.22 158.21L28.14 158.16L28.07 158.12L27.99 158.07L27.92 158.02L27.85 157.97L27.78 157.92L27.7 157.87L27.63 157.82L27.56 157.76L27.43 157.66L27.3 157.54L27.18 157.43L27.06 157.31L26.95 157.19L26.84 157.06L26.74 156.94L26.64 156.81L26.54 156.67L26.45 156.54L26.36 156.4L26.28 156.26L26.2 156.11L26.13 155.97L26.06 155.82L26 155.67L25.94 155.52L25.89 155.37L25.84 155.21L25.8 155.06L25.76 154.9L25.72 154.74L25.69 154.58L25.67 154.42L25.65 154.26L25.64 154.1L25.63 153.94L25.63 153.78L25.63 153.61L25.64 153.45L25.65 153.29L25.67 153.12L25.69 152.96L25.72 152.8L25.75 152.64L25.79 152.47L25.83 152.31L25.88 152.15L25.94 151.99L26 151.83L47.78 97.83L2.17 65.69L2.04 65.6L1.91 65.49L1.78 65.39L1.66 65.28L1.54 65.17L1.42 65.05L1.31 64.93L1.21 64.81L1.11 64.68L1.01 64.55L0.91 64.42L0.82 64.29L0.74 64.15L0.66 64.01L0.58 63.87L0.51 63.73L0.44 63.59L0.38 63.44L0.32 63.29L0.27 63.14L0.22 62.99L0.18 62.84L0.14 62.68L0.1 62.52L0.07 62.37L0.05 62.21L0.03 62.05L0.02 61.89L0.01 61.73L0 61.57L0 61.41L0.01 61.25L0.02 61.08L0.03 60.92L0.06 60.76L0.08 60.6L0.11 60.44L0.15 60.27L0.19 60.11L0.24 59.95L0.29 59.79L0.35 59.64L0.41 59.49L0.48 59.34L0.55 59.19L0.63 59.04L0.71 58.9L0.79 58.76L0.88 58.63L0.97 58.5L1.07 58.37L1.17 58.24L1.27 58.12L1.38 58L1.49 57.88L1.61 57.77L1.73 57.67L1.85 57.56L1.97 57.46L2.1 57.37L2.23 57.27L2.36 57.19L2.5 57.1L2.63 57.02L2.78 56.95L2.92 56.87L3.06 56.81L3.21 56.75L3.36 56.69L3.51 56.64L3.67 56.59L3.82 56.54L3.98 56.5L4.14 56.47L4.3 56.44L4.46 56.42L4.63 56.4L4.79 56.39L4.96 56.38L5.13 56.38L58.14 56.38L77.18 3.39L77.24 3.24L77.3 3.08L77.37 2.93L77.44 2.78L77.52 2.64L77.6 2.5L77.68 2.36L77.77 2.22L77.86 2.09L77.95 1.96L78.05 1.83L78.16 1.71L78.26 1.59L78.37 1.48L78.49 1.37L78.6 1.26L78.72 1.15L78.85 1.05L78.97 0.96L79.1 0.87L79.23 0.78L79.37 0.7L79.51 0.62L79.65 0.54L79.79 0.47L79.94 0.41L80.08 0.34L80.23 0.29L80.39 0.24L80.54 0.19L80.7 0.15L80.86 0.11L81.02 0.08L81.18 0.05L81.35 0.03L81.52 0.02L81.68 0.01L81.86 0L82.03 0L82.2 0.01ZM66.51 63.38L66.45 63.53L66.38 63.68L66.31 63.82L66.24 63.96L66.16 64.1L66.08 64.24L65.99 64.37L65.9 64.5L65.81 64.62L65.71 64.74L65.61 64.86L65.51 64.98L65.4 65.09L65.29 65.2L65.18 65.31L65.06 65.41L64.94 65.51L64.82 65.6L64.69 65.69L64.56 65.78L64.43 65.86L64.3 65.94L64.16 66.02L64.03 66.09L63.89 66.16L63.74 66.22L63.6 66.28L63.45 66.33L63.31 66.38L63.16 66.43L63 66.47L62.85 66.51L62.7 66.54L62.54 66.56L62.38 66.59L62.22 66.6L62.06 66.62L61.9 66.62L61.74 66.63L21.3 66.63L57 91.79L57.14 91.9L57.28 92L57.42 92.12L57.55 92.24L57.67 92.36L57.79 92.48L57.91 92.61L58.02 92.74L58.13 92.88L58.23 93.01L58.32 93.15L58.41 93.3L58.5 93.44L58.58 93.59L58.66 93.74L58.73 93.9L58.8 94.05L58.86 94.21L58.91 94.37L58.96 94.53L59.01 94.69L59.05 94.86L59.08 95.02L59.11 95.19L59.13 95.36L59.15 95.52L59.17 95.69L59.17 95.86L59.17 96.03L59.17 96.2L59.16 96.37L59.14 96.54L59.12 96.72L59.09 96.89L59.06 97.06L59.02 97.22L58.97 97.39L58.92 97.56L58.86 97.73L58.8 97.89L41.96 139.64L79.06 113.67L79.2 113.58L79.33 113.5L79.47 113.42L79.61 113.34L79.75 113.27L79.89 113.2L80.04 113.14L80.18 113.08L80.33 113.03L80.48 112.98L80.63 112.94L80.78 112.9L80.93 112.86L81.08 112.83L81.23 112.81L81.39 112.79L81.54 112.77L81.69 112.76L81.85 112.75L82 112.75L82.16 112.75L82.31 112.76L82.46 112.77L82.62 112.79L82.77 112.81L82.92 112.83L83.08 112.86L83.23 112.9L83.38 112.94L83.53 112.98L83.67 113.03L83.82 113.08L83.97 113.14L84.11 113.2L84.25 113.27L84.39 113.34L84.53 113.42L84.67 113.5L84.8 113.58L84.94 113.67L122.03 139.64L105.2 97.89L105.13 97.73L105.08 97.56L105.02 97.39L104.98 97.22L104.94 97.05L104.91 96.88L104.88 96.71L104.86 96.54L104.84 96.37L104.83 96.2L104.83 96.03L104.83 95.86L104.84 95.69L104.85 95.52L104.87 95.35L104.89 95.19L104.92 95.02L104.95 94.85L104.99 94.69L105.04 94.53L105.09 94.37L105.14 94.21L105.2 94.05L105.27 93.89L105.34 93.74L105.42 93.59L105.5 93.44L105.59 93.29L105.68 93.15L105.77 93.01L105.88 92.87L105.98 92.74L106.09 92.61L106.21 92.48L106.33 92.35L106.45 92.23L106.58 92.12L106.72 92L106.86 91.89L107 91.79L142.71 66.63L97.38 66.63L97.2 66.62L97.03 66.61L96.86 66.6L96.69 66.58L96.52 66.56L96.36 66.52L96.19 66.49L96.03 66.45L95.87 66.4L95.71 66.35L95.56 66.29L95.4 66.23L95.25 66.17L95.1 66.09L94.96 66.02L94.81 65.94L94.67 65.85L94.53 65.76L94.4 65.67L94.26 65.57L94.14 65.47L94.01 65.37L93.89 65.26L93.77 65.14L93.65 65.02L93.54 64.9L93.43 64.78L93.33 64.65L93.23 64.52L93.14 64.38L93.04 64.24L92.96 64.1L92.87 63.95L92.8 63.8L92.72 63.65L92.65 63.5L92.59 63.34L92.53 63.18L92.48 63.02L92.43 62.85L81.33 22.15L66.56 63.23L66.51 63.38Z" id="b7UwAaZAY"></path></defs><g><g><g><use xlink:href="#b7UwAaZAY" opacity="1" fill="#000000" fill-opacity="1"></use><g><use xlink:href="#b7UwAaZAY" opacity="1" fill-opacity="0" stroke="#000000" stroke-width="1" stroke-opacity="0"></use></g></g></g></g></svg>