<svg width="18" height="18" viewBox="0 0 18 18" fill="none" xmlns="http://www.w3.org/2000/svg">
<path d="M13.5 8.25H6.3L8.0325 6.5175C8.18025 6.36975 8.25 6.1935 8.25 6C8.25 5.631 7.94513 5.25 7.5 5.25C7.30087 5.25 7.12725 5.32237 6.9825 5.4675L3.99825 8.45175C3.87525 8.57475 3.75 8.72663 3.75 9C3.75 9.27337 3.85462 9.405 3.99225 9.54263L6.9825 12.5325C7.12725 12.6776 7.30087 12.75 7.5 12.75C7.9455 12.75 8.25 12.369 8.25 12C8.25 11.8065 8.18025 11.6303 8.0325 11.4825L6.3 9.75H13.5C13.914 9.75 14.25 9.414 14.25 9C14.25 8.586 13.914 8.25 13.5 8.25Z" fill="black"/>
</svg>
