<?xml version="1.0" encoding="UTF-8" standalone="no"?>
<!DOCTYPE svg PUBLIC "-//W3C//DTD SVG 1.1//EN" "http://www.w3.org/Graphics/SVG/1.1/DTD/svg11.dtd">
<svg version="1.1" xmlns="http://www.w3.org/2000/svg" xmlns:xlink="http://www.w3.org/1999/xlink" preserveAspectRatio="xMidYMid meet" viewBox="0 0 12 12" width="12" height="12"><defs><path d="M9.88 5.34C7.52 2.84 6.21 1.45 5.95 1.17C5.7 0.91 5.7 0.46 5.95 0.2C6.2 -0.07 6.53 -0.07 6.79 0.2C7.29 0.73 11.31 4.98 11.81 5.51C12.06 5.78 12.06 6.22 11.81 6.49C11.31 7.02 7.29 11.27 6.79 11.8C6.53 12.07 6.12 12.07 5.86 11.8C5.61 11.54 5.61 11.18 5.86 10.92C6.13 10.63 7.44 9.21 9.8 6.66C4.32 6.66 1.28 6.66 0.67 6.66C0.34 6.66 0 6.4 0 5.96C0.17 5.6 0.42 5.25 0.75 5.34C0.75 5.34 0.75 5.34 0.75 5.34L9.88 5.34Z" id="d6JV2oyBYV"></path></defs><g><g><g><use xlink:href="#d6JV2oyBYV" opacity="1" fill="#000000" fill-opacity="1"></use><g><use xlink:href="#d6JV2oyBYV" opacity="1" fill-opacity="0" stroke="#000000" stroke-width="1" stroke-opacity="0"></use></g></g></g></g></svg>